<svg width="560" height="293" viewBox="0 0 560 293" fill="none" xmlns="http://www.w3.org/2000/svg">
<path d="M539.473 168.08H543.104V176.764H545.027V168.08H548.617V166.346H539.473V168.08Z" fill="#1E1C1A"/>
<path d="M559.216 166.346H557.354L554.304 173.968L551.255 166.346H549.392L548.646 176.764H550.53L550.993 170.215L553.662 176.764H554.947L557.616 170.215L558.079 176.764H559.962L559.216 166.346Z" fill="#1E1C1A"/>
<path d="M29.1685 215.878C32.4695 215.878 35.2209 213.126 35.2209 209.824C35.2209 206.522 32.4695 203.77 29.1685 203.77H23.6642V215.878H29.1685ZM23.6642 180.106V189.095H29.6262C31.8279 189.095 33.6629 186.802 33.6629 184.601C33.6629 182.4 31.8279 180.106 29.6262 180.106H23.6642ZM51.7308 212.483C51.7308 217.528 49.988 221.748 46.4115 225.326C42.9257 228.81 38.7067 230.553 33.6629 230.553H1.92657C0.642796 230.553 0 229.91 0 228.626V222.023C0 221.013 0.367358 220.372 1.19338 220.097L7.15543 217.988V178.914L1.19338 176.805C0.367358 176.53 0 175.887 0 174.879V168.274C0 166.99 0.642796 166.349 1.92657 166.349H33.0201C37.5146 166.349 41.3665 167.908 44.4849 171.117C47.6956 174.327 49.2548 178.089 49.2548 182.583C49.2548 188.178 46.4115 193.313 41.7336 196.341C47.6956 199.276 51.7308 205.513 51.7308 212.483Z" fill="#1E1C1A"/>
<path d="M87.3239 180.1C82.3711 180.1 78.2433 181.843 75.0322 185.42C71.8234 188.996 70.2641 193.307 70.2641 198.444C70.2641 203.58 71.8234 207.891 75.0322 211.468C78.2433 215.046 82.3711 216.788 87.3239 216.788C92.2767 216.788 96.3121 215.046 99.5225 211.468C102.734 207.891 104.383 203.58 104.383 198.444C104.383 193.307 102.734 188.996 99.5225 185.42C96.3121 181.843 92.2767 180.1 87.3239 180.1ZM63.5676 174.689C70.0803 168.176 78.0596 164.874 87.3239 164.874C96.5874 164.874 104.567 168.176 111.08 174.689C117.592 181.201 120.893 189.18 120.893 198.444C120.893 207.709 117.592 215.596 110.988 222.2C104.475 228.712 96.5874 232.014 87.3239 232.014C78.0596 232.014 70.1722 228.712 63.5676 222.2C57.0562 215.596 53.7539 207.709 53.7539 198.444C53.7539 189.18 57.0562 181.201 63.5676 174.689Z" fill="#1E1C1A"/>
<path d="M206.522 166.349C207.807 166.349 208.448 166.99 208.448 168.274V174.879C208.448 175.979 208.081 176.621 207.256 176.805L204.229 177.446L189.921 228.718C189.463 230.185 189.004 230.553 187.536 230.553H180.381C178.914 230.553 178.639 230.185 177.998 228.718L164.789 195.607L151.582 228.718C150.939 230.185 150.664 230.553 149.197 230.553H142.226C140.667 230.553 140.301 230.278 139.841 228.718L125.625 177.722L121.772 176.805C120.947 176.621 120.58 175.979 120.58 174.879V168.274C120.58 166.99 121.221 166.349 122.506 166.349H144.152C145.436 166.349 146.078 166.99 146.078 168.274V174.879C146.078 175.979 145.712 176.621 144.886 176.805L141.492 177.538L146.996 198.542L159.377 168.182C160.019 166.624 160.296 166.349 161.763 166.349H167.817C169.284 166.349 169.559 166.624 170.2 168.182L182.675 198.542L188.086 177.722L184.143 176.805C183.316 176.621 182.95 175.979 182.95 174.879V168.274C182.95 166.99 183.592 166.349 184.876 166.349H206.522Z" fill="#1E1C1A"/>
<path d="M262.563 209.64C263.846 209.64 264.489 210.283 264.489 211.567V228.626C264.489 229.91 263.846 230.553 262.563 230.553H215.601C214.317 230.553 213.676 229.91 213.676 228.626V222.023C213.676 221.013 214.042 220.372 214.868 220.097L220.83 217.988V178.914L214.868 176.805C214.042 176.53 213.676 175.887 213.676 174.879V168.274C213.676 166.99 214.317 166.349 215.601 166.349H241.925C243.209 166.349 243.852 166.99 243.852 168.274V174.879C243.852 175.887 243.484 176.53 242.659 176.805L237.339 178.638V216.794H251.923L254.033 210.832C254.308 210.007 254.949 209.64 255.959 209.64H262.563Z" fill="#1E1C1A"/>
<path d="M374.946 166.349C376.23 166.349 376.872 166.99 376.872 168.274V174.879C376.872 175.979 376.505 176.621 375.68 176.805L372.653 177.446L358.345 228.718C357.886 230.185 357.427 230.553 355.959 230.553H348.805C347.338 230.553 347.063 230.185 346.421 228.718L333.213 195.607L320.006 228.718C319.363 230.185 319.088 230.553 317.62 230.553H310.649C309.09 230.553 308.724 230.278 308.265 228.718L294.049 177.722L290.196 176.805C289.371 176.621 289.004 175.979 289.004 174.879V168.274C289.004 166.99 289.645 166.349 290.93 166.349H312.576C313.86 166.349 314.502 166.99 314.502 168.274V174.879C314.502 175.979 314.135 176.621 313.309 176.805L309.916 177.538L315.419 198.542L327.8 168.182C328.443 166.624 328.719 166.349 330.187 166.349H336.24C337.708 166.349 337.983 166.624 338.624 168.182L351.099 198.542L356.51 177.722L352.567 176.805C351.74 176.621 351.373 175.979 351.373 174.879V168.274C351.373 166.99 352.015 166.349 353.3 166.349H374.946Z" fill="#1E1C1A"/>
<path d="M410.14 180.1C405.187 180.1 401.06 181.843 397.85 185.42C394.64 188.996 393.08 193.307 393.08 198.444C393.08 203.58 394.64 207.891 397.85 211.468C401.06 215.046 405.187 216.788 410.14 216.788C415.094 216.788 419.129 215.046 422.34 211.468C425.55 207.891 427.201 203.58 427.201 198.444C427.201 193.307 425.55 188.996 422.34 185.42C419.129 181.843 415.094 180.1 410.14 180.1ZM386.384 174.689C392.897 168.176 400.876 164.874 410.14 164.874C419.405 164.874 427.383 168.176 433.896 174.689C440.408 181.201 443.71 189.18 443.71 198.444C443.71 207.709 440.408 215.596 433.804 222.2C427.292 228.712 419.405 232.014 410.14 232.014C400.876 232.014 392.989 228.712 386.384 222.2C379.873 215.596 376.57 207.709 376.57 198.444C376.57 189.18 379.873 181.201 386.384 174.689Z" fill="#1E1C1A"/>
<path d="M529.375 166.349C530.659 166.349 531.302 166.99 531.302 168.274V174.879C531.302 175.979 530.935 176.621 530.11 176.805L527.083 177.446L512.775 228.718C512.316 230.185 511.857 230.553 510.389 230.553H503.236C501.768 230.553 501.492 230.185 500.851 228.718L487.644 195.607L474.435 228.718C473.793 230.185 473.517 230.553 472.05 230.553H465.08C463.52 230.553 463.153 230.278 462.695 228.718L448.478 177.722L444.626 176.805C443.801 176.621 443.434 175.979 443.434 174.879V168.274C443.434 166.99 444.076 166.349 445.361 166.349H467.006C468.29 166.349 468.933 166.99 468.933 168.274V174.879C468.933 175.979 468.565 176.621 467.739 176.805L464.347 177.538L469.849 198.542L482.232 168.182C482.874 166.624 483.149 166.349 484.616 166.349H490.67C492.138 166.349 492.413 166.624 493.055 168.182L505.529 198.542L510.94 177.722L506.997 176.805C506.171 176.621 505.803 175.979 505.803 174.879V168.274C505.803 166.99 506.446 166.349 507.73 166.349H529.375Z" fill="#1E1C1A"/>
<path d="M93.3767 262.246V264.766C93.3767 265.15 93.2368 265.395 92.9215 265.5L90.7177 266.269V285.269C90.7177 285.793 90.5078 286.003 89.9834 286.003H87.289C86.9037 286.003 86.7991 285.758 86.3439 285.269L75.777 273.687V281.245L77.9816 282.015C78.2969 282.12 78.4368 282.364 78.4368 282.75V285.269C78.4368 285.793 78.1915 286.003 77.7017 286.003H67.9398C67.4502 286.003 67.2051 285.793 67.2051 285.269V282.75C67.2051 282.364 67.3451 282.12 67.6601 282.015L69.8297 281.245V266.269L67.6601 265.5C67.3451 265.395 67.2051 265.15 67.2051 264.766V262.246C67.2051 261.721 67.4502 261.511 67.9398 261.511H73.2587C73.6432 261.511 73.7485 261.756 74.203 262.246L84.7699 274.177V266.269L82.5653 265.5C82.25 265.395 82.1101 265.15 82.1101 264.766V262.246C82.1101 261.721 82.3554 261.511 82.8452 261.511H92.6424C93.1314 261.511 93.3767 261.721 93.3767 262.246Z" fill="#1E1C1A"/>
<path d="M100.824 282.226C101.279 282.121 101.664 281.911 102.048 281.631V280.862C99.5292 279.777 98.7949 280.651 98.7949 281.422C98.7949 282.157 99.7745 282.506 100.824 282.226ZM109.746 282.751V285.27C109.746 285.794 109.501 286.004 109.011 286.004H103.483C102.958 286.004 102.608 285.69 102.364 285.2L102.154 284.78C101.104 285.69 99.8091 286.39 98.2697 286.39C95.4361 286.39 93.127 284.43 93.127 281.631C93.127 278.797 95.4707 275.368 102.048 277.222V276.278C102.048 275.438 101.594 273.828 99.1794 273.828C98.9694 273.828 98.7595 273.828 98.5496 273.864L98.1297 275.228C98.0252 275.543 97.7799 275.684 97.3954 275.684H94.8763C94.3511 275.684 94.1412 275.438 94.1412 274.948L94.1758 271.204C94.1758 270.785 94.2112 270.54 94.5956 270.4C96.3458 269.769 98.4096 269.35 100.194 269.35C105.093 269.35 107.367 271.835 107.367 274.494V281.526L109.291 282.016C109.606 282.087 109.746 282.366 109.746 282.751Z" fill="#1E1C1A"/>
<path d="M124.227 285.512C122.513 286.176 120.588 286.561 118.909 286.561C114.256 286.561 112.855 283.726 112.855 281.067V274.594H111.141C110.616 274.594 110.406 274.385 110.406 273.86V270.641C110.406 270.116 110.616 269.906 111.141 269.906H112.855V266.267C112.855 265.743 113.065 265.533 113.59 265.533H118.069C118.594 265.533 118.804 265.743 118.804 266.267V269.906H122.267C122.792 269.906 123.002 270.116 123.002 270.641V273.86C123.002 274.385 122.792 274.594 122.267 274.594H118.804V279.039C118.804 279.878 118.769 281.312 120.762 281.242C121.288 281.208 121.883 281.067 122.513 280.858C123.002 280.682 123.282 280.752 123.457 281.242L124.612 284.567C124.786 285.056 124.646 285.336 124.227 285.512Z" fill="#1E1C1A"/>
<path d="M146.34 282.747V285.266C146.34 285.791 146.096 286.001 145.606 286.001H139.833C139.308 286.001 139.133 285.721 139.028 285.196L138.888 284.531C137.348 285.826 135.319 286.561 133.465 286.561C130.351 286.561 127.342 284.531 127.342 280.822V274.385L125.417 273.895C125.103 273.824 124.963 273.545 124.963 273.16V270.641C124.963 270.116 125.207 269.906 125.698 269.906H132.206C132.73 269.906 132.905 270.116 132.94 270.641L133.29 275.119V278.619C133.29 280.402 134.235 281.312 135.599 281.312C136.439 281.312 137.208 280.962 138.014 280.438V274.385L136.089 273.895C135.774 273.824 135.634 273.545 135.634 273.16V270.641C135.634 270.116 135.879 269.906 136.369 269.906H142.877C143.402 269.906 143.577 270.116 143.611 270.641L143.961 275.119V281.522L145.886 282.012C146.201 282.083 146.34 282.362 146.34 282.747Z" fill="#1E1C1A"/>
<path d="M164.059 270.679V275.577C164.059 276.067 163.848 276.312 163.324 276.312H160.805C160.42 276.312 160.175 276.171 160.07 275.857L159.685 274.596C159.23 274.632 158.776 274.772 158.32 274.946C157.551 275.227 156.886 275.682 156.431 276.102V281.455L159.72 282.015C160.035 282.085 160.175 282.364 160.175 282.75V285.269C160.175 285.793 159.931 286.003 159.44 286.003H148.874C148.384 286.003 148.139 285.793 148.139 285.269V282.75C148.139 282.364 148.279 282.085 148.594 282.015L150.483 281.525V274.387L148.594 273.897C148.279 273.827 148.139 273.547 148.139 273.162V270.643C148.139 270.118 148.384 269.909 148.874 269.909H154.612C155.137 269.909 155.311 270.189 155.416 270.714L155.626 271.693C155.626 271.693 156.991 270.329 158.88 269.734C160.7 269.174 162.449 269.524 163.428 269.909C163.884 270.084 164.059 270.223 164.059 270.679Z" fill="#1E1C1A"/>
<path d="M172.478 282.226C172.933 282.121 173.318 281.911 173.703 281.631V280.862C171.184 279.777 170.449 280.651 170.449 281.422C170.449 282.157 171.429 282.506 172.478 282.226ZM181.401 282.751V285.27C181.401 285.794 181.155 286.004 180.666 286.004H175.137C174.612 286.004 174.262 285.69 174.018 285.2L173.808 284.78C172.758 285.69 171.463 286.39 169.924 286.39C167.09 286.39 164.781 284.43 164.781 281.631C164.781 278.797 167.125 275.368 173.703 277.222V276.278C173.703 275.438 173.248 273.828 170.834 273.828C170.624 273.828 170.415 273.828 170.204 273.864L169.784 275.228C169.679 275.543 169.435 275.684 169.05 275.684H166.531C166.005 275.684 165.795 275.438 165.795 274.948L165.83 271.204C165.83 270.785 165.865 270.54 166.251 270.4C168 269.769 170.064 269.35 171.849 269.35C176.747 269.35 179.021 271.835 179.021 274.494V281.526L180.945 282.016C181.261 282.087 181.401 282.366 181.401 282.751Z" fill="#1E1C1A"/>
<path d="M191.856 281.455V285.269C191.856 285.793 191.646 286.003 191.122 286.003C185.384 286.003 183.074 283.869 183.074 278.586V265.99L181.185 265.5C180.87 265.431 180.73 265.15 180.73 264.766V262.246C180.73 261.721 180.975 261.511 181.465 261.511H187.938C188.463 261.511 188.568 261.721 188.673 262.246L189.023 264.1V278.586C189.023 279.915 189.583 280.72 191.122 280.72C191.646 280.72 191.856 280.93 191.856 281.455Z" fill="#1E1C1A"/>
<path d="M202.08 278.094C202.08 277.604 202.29 277.358 202.814 277.358H205.334C205.719 277.358 205.823 277.534 205.998 278.024L206.768 280.193C207.678 280.892 208.412 281.312 209.847 281.312C211.282 281.312 212.646 280.752 212.856 279.423C213.451 275.574 202.429 275.504 202.359 267.982C202.325 264.063 205.509 260.949 210.827 260.949C212.961 260.949 215.551 261.474 217.755 262.874C218.14 263.119 218.28 263.398 218.28 263.713V268.611C218.28 269.101 218.07 269.346 217.544 269.346H215.025C214.641 269.346 214.501 269.171 214.36 268.681L213.8 267.002C212.926 266.512 211.842 266.197 210.897 266.197C209.078 266.197 208.272 267.353 208.482 268.262C209.147 271.165 219.119 272.11 219.119 279.109C219.119 283.726 214.815 286.561 210.092 286.561C206.873 286.561 204.458 285.441 202.535 283.762C202.255 283.517 202.115 283.342 202.08 283.132V278.094Z" fill="#1E1C1A"/>
<path d="M242.028 282.747V285.266C242.028 285.791 241.783 286.001 241.294 286.001H235.52C234.996 286.001 234.821 285.721 234.716 285.196L234.575 284.531C233.036 285.826 231.007 286.561 229.153 286.561C226.038 286.561 223.03 284.531 223.03 280.822V274.385L221.105 273.895C220.79 273.824 220.65 273.545 220.65 273.16V270.641C220.65 270.116 220.895 269.906 221.385 269.906H227.893C228.418 269.906 228.593 270.116 228.627 270.641L228.977 275.119V278.619C228.977 280.402 229.922 281.312 231.286 281.312C232.126 281.312 232.896 280.962 233.701 280.438V274.385L231.776 273.895C231.462 273.824 231.322 273.545 231.322 273.16V270.641C231.322 270.116 231.566 269.906 232.056 269.906H238.565C239.089 269.906 239.264 270.116 239.299 270.641L239.649 275.119V281.522L241.573 282.012C241.889 282.083 242.028 282.362 242.028 282.747Z" fill="#1E1C1A"/>
<path d="M257.975 277.955C257.975 276.065 256.435 274.595 254.406 274.595C253.461 274.595 252.657 274.911 252.132 275.156V280.964C252.447 281.103 253.321 281.488 254.336 281.488C256.435 281.488 257.975 279.845 257.975 277.955ZM263.573 278.165C263.433 282.748 259.934 286.527 255.386 286.387C253.881 286.352 252.691 285.897 252.132 285.652V288.451L255.071 289.011C255.386 289.081 255.526 289.361 255.526 289.746V292.265C255.526 292.79 255.28 293 254.791 293H244.539C244.049 293 243.805 292.79 243.805 292.265V289.746C243.805 289.361 243.945 289.081 244.259 289.011L246.184 288.521V274.386L244.259 273.896C243.945 273.826 243.805 273.546 243.805 273.161V270.642C243.805 270.117 244.049 269.907 244.539 269.907H250.312C250.837 269.907 251.012 270.187 251.117 270.713L251.187 271.027C252.272 270.432 253.357 269.942 254.616 269.732C259.514 268.927 263.748 272.917 263.573 278.165Z" fill="#1E1C1A"/>
<path d="M271.44 275.924H276.339C276.164 274.665 275.079 273.895 273.889 273.895C272.7 273.895 271.615 274.665 271.44 275.924ZM281.692 277.149C281.726 277.708 281.726 277.884 281.657 278.374C281.587 278.898 281.412 279.109 280.887 279.109H271.02C271.125 280.473 272.21 281.487 274.099 281.487C275.324 281.487 276.584 281.067 277.563 280.717C278.018 280.543 278.333 280.717 278.508 281.102L279.942 284.217C280.118 284.601 279.942 284.951 279.558 285.162C278.508 285.721 276.653 286.561 274.204 286.561C268.991 286.561 265.492 282.712 265.492 277.954C265.492 273.195 268.991 269.346 273.785 269.346C278.298 269.346 281.412 272.776 281.692 277.149Z" fill="#1E1C1A"/>
<path d="M298.8 270.679V275.577C298.8 276.067 298.591 276.312 298.065 276.312H295.547C295.162 276.312 294.917 276.171 294.812 275.857L294.427 274.596C293.972 274.632 293.517 274.772 293.063 274.946C292.293 275.227 291.628 275.682 291.172 276.102V281.455L294.462 282.015C294.777 282.085 294.917 282.364 294.917 282.75V285.269C294.917 285.793 294.672 286.003 294.182 286.003H283.615C283.126 286.003 282.881 285.793 282.881 285.269V282.75C282.881 282.364 283.021 282.085 283.335 282.015L285.225 281.525V274.387L283.335 273.897C283.021 273.827 282.881 273.547 282.881 273.162V270.643C282.881 270.118 283.126 269.909 283.615 269.909H289.354C289.878 269.909 290.053 270.189 290.158 270.714L290.369 271.693C290.369 271.693 291.733 270.329 293.622 269.734C295.442 269.174 297.191 269.524 298.171 269.909C298.626 270.084 298.8 270.223 298.8 270.679Z" fill="#1E1C1A"/>
<path d="M317.499 272.498H319.948C321.593 272.498 322.678 271.413 322.678 269.804C322.678 268.194 321.593 267.109 319.948 267.109H317.499V272.498ZM317.499 278.096V281.139L321.173 282.015C321.489 282.085 321.628 282.364 321.628 282.75V285.269C321.628 285.793 321.383 286.003 320.894 286.003H309.207C308.717 286.003 308.473 285.793 308.473 285.269V282.75C308.473 282.364 308.613 282.12 308.927 282.015L311.202 281.21V266.305L308.927 265.5C308.613 265.395 308.473 265.15 308.473 264.766V262.246C308.473 261.721 308.717 261.511 309.207 261.511H320.684C325.652 261.511 328.976 264.835 328.976 269.804C328.976 274.772 325.652 278.096 320.684 278.096H317.499Z" fill="#1E1C1A"/>
<path d="M345.524 270.679V275.577C345.524 276.067 345.313 276.312 344.788 276.312H342.27C341.884 276.312 341.64 276.171 341.535 275.857L341.15 274.596C340.695 274.632 340.24 274.772 339.785 274.946C339.015 275.227 338.35 275.682 337.896 276.102V281.455L341.185 282.015C341.5 282.085 341.64 282.364 341.64 282.75V285.269C341.64 285.793 341.395 286.003 340.905 286.003H330.338C329.849 286.003 329.604 285.793 329.604 285.269V282.75C329.604 282.364 329.743 282.085 330.058 282.015L331.947 281.525V274.387L330.058 273.897C329.743 273.827 329.604 273.547 329.604 273.162V270.643C329.604 270.118 329.849 269.909 330.338 269.909H336.077C336.601 269.909 336.776 270.189 336.881 270.714L337.092 271.693C337.092 271.693 338.456 270.329 340.345 269.734C342.164 269.174 343.914 269.524 344.893 269.909C345.349 270.084 345.524 270.223 345.524 270.679Z" fill="#1E1C1A"/>
<path d="M352.919 275.924H357.817C357.642 274.665 356.558 273.895 355.368 273.895C354.178 273.895 353.094 274.665 352.919 275.924ZM363.17 277.149C363.205 277.708 363.205 277.884 363.135 278.374C363.065 278.898 362.89 279.109 362.365 279.109H352.499C352.603 280.473 353.688 281.487 355.578 281.487C356.803 281.487 358.062 281.067 359.042 280.717C359.496 280.543 359.811 280.717 359.987 281.102L361.421 284.217C361.595 284.601 361.421 284.951 361.036 285.162C359.987 285.721 358.131 286.561 355.683 286.561C350.469 286.561 346.971 282.712 346.971 277.954C346.971 273.195 350.469 269.346 355.263 269.346C359.776 269.346 362.89 272.776 363.17 277.149Z" fill="#1E1C1A"/>
<path d="M396.409 282.75V285.269C396.409 285.793 396.163 286.003 395.674 286.003H388.817C388.291 286.003 388.081 285.793 388.081 285.269V277.291C388.081 275.507 386.927 274.596 385.562 274.596C384.722 274.596 383.953 274.946 383.358 275.471V281.525L385.283 282.015C385.597 282.085 385.737 282.364 385.737 282.75V285.269C385.737 285.793 385.492 286.003 385.003 286.003H378.145C377.62 286.003 377.41 285.793 377.41 285.269V277.291C377.41 275.507 376.465 274.596 375.101 274.596C374.261 274.596 373.491 274.946 372.686 275.471V281.525L374.611 282.015C374.925 282.085 375.065 282.364 375.065 282.75V285.269C375.065 285.793 374.821 286.003 374.331 286.003H365.129C364.639 286.003 364.394 285.793 364.394 285.269V282.75C364.394 282.364 364.535 282.085 364.849 282.015L366.739 281.525V274.387L364.814 273.897C364.499 273.827 364.359 273.547 364.359 273.162V270.643C364.359 270.118 364.604 269.909 365.094 269.909H370.867C371.392 269.909 371.567 270.189 371.672 270.714L371.811 271.378C373.351 270.084 375.381 269.348 377.235 269.348C379.089 269.348 380.909 270.084 382.098 271.448L382.168 271.378C384.058 270.084 386.052 269.348 387.906 269.348C391.02 269.348 394.029 271.378 394.029 275.087V281.525L395.954 282.015C396.268 282.085 396.409 282.364 396.409 282.75Z" fill="#1E1C1A"/>
<path d="M399.749 264.03C399.749 262.352 401.148 260.951 402.863 260.951C404.577 260.951 405.977 262.352 405.977 264.03C405.977 265.745 404.577 267.144 402.863 267.144C401.148 267.144 399.749 265.745 399.749 264.03ZM408.216 282.75V285.269C408.216 285.793 407.971 286.003 407.482 286.003H398.244C397.754 286.003 397.51 285.793 397.51 285.269V282.75C397.51 282.364 397.65 282.085 397.964 282.015L399.889 281.525V274.387L398 273.897C397.684 273.827 397.544 273.547 397.544 273.162V270.643C397.544 270.118 397.789 269.909 398.28 269.909H404.752C405.276 269.909 405.451 270.118 405.487 270.643L405.837 275.122V281.525L407.761 282.015C408.076 282.085 408.216 282.364 408.216 282.75Z" fill="#1E1C1A"/>
<path d="M430.253 282.747V285.266C430.253 285.791 430.008 286.001 429.518 286.001H423.745C423.22 286.001 423.045 285.721 422.941 285.196L422.8 284.531C421.26 285.826 419.232 286.561 417.377 286.561C414.263 286.561 411.254 284.531 411.254 280.822V274.385L409.33 273.895C409.015 273.824 408.875 273.545 408.875 273.16V270.641C408.875 270.116 409.12 269.906 409.609 269.906H416.118C416.643 269.906 416.817 270.116 416.852 270.641L417.202 275.119V278.619C417.202 280.402 418.147 281.312 419.511 281.312C420.352 281.312 421.121 280.962 421.926 280.438V274.385L420.002 273.895C419.686 273.824 419.546 273.545 419.546 273.16V270.641C419.546 270.116 419.791 269.906 420.281 269.906H426.789C427.314 269.906 427.489 270.116 427.524 270.641L427.873 275.119V281.522L429.798 282.012C430.113 282.083 430.253 282.362 430.253 282.747Z" fill="#1E1C1A"/>
<path d="M464.108 282.75V285.269C464.108 285.793 463.863 286.003 463.373 286.003H456.516C455.991 286.003 455.781 285.793 455.781 285.269V277.291C455.781 275.507 454.626 274.596 453.261 274.596C452.422 274.596 451.652 274.946 451.057 275.471V281.525L452.982 282.015C453.296 282.085 453.436 282.364 453.436 282.75V285.269C453.436 285.793 453.191 286.003 452.702 286.003H445.844C445.319 286.003 445.109 285.793 445.109 285.269V277.291C445.109 275.507 444.164 274.596 442.8 274.596C441.96 274.596 441.191 274.946 440.386 275.471V281.525L442.31 282.015C442.625 282.085 442.765 282.364 442.765 282.75V285.269C442.765 285.793 442.52 286.003 442.03 286.003H432.828C432.338 286.003 432.093 285.793 432.093 285.269V282.75C432.093 282.364 432.234 282.085 432.548 282.015L434.438 281.525V274.387L432.513 273.897C432.199 273.827 432.059 273.547 432.059 273.162V270.643C432.059 270.118 432.303 269.909 432.793 269.909H438.566C439.091 269.909 439.266 270.189 439.371 270.714L439.511 271.378C441.05 270.084 443.08 269.348 444.934 269.348C446.789 269.348 448.608 270.084 449.797 271.448L449.867 271.378C451.757 270.084 453.751 269.348 455.605 269.348C458.72 269.348 461.729 271.378 461.729 275.087V281.525L463.653 282.015C463.968 282.085 464.108 282.364 464.108 282.75Z" fill="#1E1C1A"/>
<path d="M315.843 82.3072C315.843 87.4953 315.284 91.9568 314.165 95.6908C313.047 99.4248 311.616 102.544 309.872 105.049C308.128 107.553 306.182 109.488 304.035 110.851C301.889 112.216 299.809 113.099 297.797 113.502C297.037 114.799 296.377 115.704 295.818 116.218C295.259 116.733 294.89 117.035 294.711 117.124C294.443 117.348 294.085 117.549 293.638 117.728C293.191 117.906 292.721 118.063 292.229 118.198C291.692 118.376 291.133 118.51 290.552 118.6H264.524C263.762 118.6 262.969 118.545 262.141 118.432C261.314 118.321 260.565 118.12 259.894 117.829C259.223 117.537 258.664 117.124 258.217 116.587C257.77 116.051 257.546 115.357 257.546 114.508C257.546 113.613 258.094 112.931 259.19 112.462C260.286 111.992 261.505 111.645 262.846 111.422C264.366 111.154 266.133 110.974 268.146 110.885C267.788 110.661 267.385 110.393 266.938 110.08C266.581 109.857 266.133 109.566 265.597 109.207C265.06 108.85 264.478 108.47 263.852 108.068C263.226 107.754 262.6 107.184 261.975 106.357C261.347 105.529 260.756 104.591 260.196 103.539C259.637 102.488 259.134 101.382 258.687 100.219C258.24 99.0557 257.882 97.983 257.614 96.998C257.524 96.552 257.479 96.1045 257.479 95.6569C257.479 94.941 257.535 94.1037 257.647 93.1417C257.759 92.1805 257.893 91.2186 258.049 90.2574C258.206 89.2954 258.34 88.3896 258.453 87.5399C258.563 86.6902 258.62 85.9966 258.62 85.4599C258.62 84.834 258.508 84.521 258.284 84.521C258.106 84.521 257.86 84.7225 257.546 85.1246C257.054 85.706 256.484 86.701 255.836 88.1105C255.188 89.5192 254.494 91.1286 253.756 92.9403C253.019 94.7511 252.292 96.6635 251.576 98.6758C250.86 100.688 250.211 102.578 249.631 104.345C249.049 106.111 248.579 107.666 248.222 109.007C247.864 110.348 247.685 111.243 247.685 111.69C247.685 112.406 247.539 113.133 247.249 113.87C246.959 114.608 246.511 115.28 245.907 115.883C245.304 116.487 244.52 116.979 243.559 117.359C242.598 117.739 241.424 117.929 240.037 117.929C237.22 117.929 235.118 117.537 233.731 116.755C232.345 115.973 231.652 114.732 231.652 113.032C231.652 112.182 231.954 111.4 232.557 110.685C233.161 109.969 233.832 109.331 234.57 108.772C235.307 108.213 236.013 107.709 236.684 107.263C237.354 106.816 237.756 106.413 237.891 106.055C237.979 105.832 238.137 105.027 238.36 103.64C238.584 102.254 238.829 100.577 239.098 98.6089C239.367 96.6404 239.635 94.5058 239.903 92.2021C240.171 89.899 240.417 87.7298 240.641 85.6952C240.865 83.6598 241.044 81.8712 241.178 80.3287C241.312 78.7854 241.379 77.7904 241.379 77.3429C241.379 76.8953 241.055 76.0126 240.406 74.6931C239.758 73.3736 238.941 71.8533 237.958 70.1309C236.974 68.4092 235.912 66.576 234.771 64.6306C233.63 62.6851 232.569 60.8289 231.584 59.0626C230.601 57.2956 229.785 55.7308 229.136 54.3666C228.488 53.0025 228.163 52.0298 228.163 51.4485C228.163 50.6434 228.308 49.5476 228.6 48.1612C228.89 46.7748 229.226 45.3323 229.606 43.8343C229.985 42.3364 230.322 40.9162 230.611 39.5744C230.903 38.2333 231.048 37.2491 231.048 36.6224C231.048 36.354 231.026 36.1756 230.98 36.0864C230.758 35.7281 230.243 35.4936 229.438 35.3813C228.633 35.2698 227.739 35.2144 226.755 35.2144C226.218 35.2144 225.704 35.2252 225.212 35.2475C224.72 35.2698 224.272 35.3029 223.87 35.3482C223.379 35.3928 222.953 35.4151 222.595 35.4151C222.104 34.5208 221.612 33.6711 221.119 32.8661C220.717 32.2401 220.325 31.625 219.945 31.0213C219.565 30.4177 219.286 30.0263 219.106 29.8472C218.883 29.5788 218.637 29.232 218.369 28.8075C218.101 28.3823 217.967 27.924 217.967 27.4319C217.967 27.0743 218.045 26.7506 218.201 26.4592C218.357 26.1685 218.66 25.8663 219.106 25.5541C219.599 25.1965 220.158 24.6483 220.784 23.9101C221.41 23.1727 222.014 22.4014 222.595 21.5956C223.221 20.7013 223.87 19.6947 224.541 18.5767L228.163 13.68C228.701 13.1886 229.371 12.6965 230.176 12.2044C230.847 11.8015 231.685 11.3877 232.692 10.9625C233.698 10.5381 234.894 10.1697 236.28 9.856C236.192 9.45384 236.136 9.03937 236.113 8.61491C236.091 8.18968 236.079 7.73216 236.079 7.23927C236.079 6.61334 235.968 5.96512 235.744 5.29382C235.52 4.6233 235.264 3.99738 234.972 3.41605C234.681 2.83472 234.425 2.33183 234.201 1.90659C233.977 1.48213 233.866 1.20301 233.866 1.06768C233.866 0.979248 233.887 0.933884 233.933 0.933884C235.319 0.933884 236.638 1.34756 237.891 2.17496C239.143 3.00158 240.294 3.97507 241.345 5.09312C242.396 6.21117 243.28 7.3177 243.995 8.41345C244.711 9.50921 245.225 10.3258 245.538 10.8618C247.551 11.8014 249.328 13.0541 250.872 14.6189C252.415 16.1837 253.79 17.9177 254.997 19.8177C256.204 21.7186 257.256 23.6756 258.15 25.6879C259.044 27.701 259.861 29.6242 260.598 31.4573C261.336 33.2913 262.018 34.923 262.644 36.354C263.27 37.7858 263.898 38.8592 264.524 39.5744C265.06 40.2011 266.022 40.737 267.408 41.1845C268.794 41.6321 270.438 42.1019 272.338 42.5933C274.239 43.0854 276.319 43.689 278.578 44.4049C280.836 45.1208 283.094 46.0589 285.353 47.2223C287.611 48.385 289.803 49.8391 291.927 51.5823C294.051 53.3263 295.93 55.4732 297.562 58.0222C299.194 60.5713 300.503 63.6017 301.486 67.112C302.47 70.623 302.962 74.7492 302.962 79.4898C302.962 84.4987 302.828 88.8371 302.56 92.5035C302.291 96.1714 301.866 99.3687 301.286 102.098C302.09 101.293 302.851 100.298 303.566 99.1118C304.281 97.9269 304.93 96.5297 305.512 94.9188C306.093 93.3093 306.551 91.4646 306.887 89.3854C307.223 87.3046 307.39 84.9462 307.39 82.3072C307.39 78.0588 307.066 74.1794 306.418 70.6684C305.769 67.1574 304.897 63.9485 303.801 61.0411C302.705 58.1345 301.464 55.5062 300.078 53.1594C298.691 50.811 297.238 48.6864 295.718 46.7856C294.197 44.8855 292.676 43.1754 291.155 41.6544C289.634 40.1334 288.227 38.7693 286.929 37.562C285.364 36.0864 284.023 34.7669 282.905 33.6035C281.786 32.4416 280.959 31.2336 280.422 29.981C279.617 28.1931 279.047 26.4484 278.712 24.749C278.375 23.0489 278.209 21.4395 278.209 19.9185C278.209 18.2191 278.387 16.6989 278.745 15.3571C279.103 14.0153 279.572 12.8972 280.154 12.0029C280.602 11.4216 281.138 10.9625 281.763 10.6273C282.389 10.2928 283.038 10.1244 283.709 10.1244C284.47 10.1244 285.208 10.3704 285.923 10.8618C287.22 11.7568 287.869 12.9195 287.869 14.3505C287.869 15.1556 287.623 15.9161 287.131 16.632C286.996 16.855 286.874 17.2356 286.762 17.7723C286.65 18.3091 286.594 18.9804 286.594 19.7847C286.594 20.6797 286.695 21.7186 286.896 22.9043C287.097 24.0893 287.489 25.3526 288.07 26.6945C288.339 27.0974 288.931 27.7679 289.847 28.7068C290.765 29.6465 291.715 30.5623 292.699 31.4573C294.041 32.7538 295.549 34.2417 297.227 35.9188C298.904 37.5951 300.604 39.5182 302.325 41.6874C304.047 43.8567 305.712 46.2942 307.323 49.0001C308.933 51.7053 310.375 54.7242 311.649 58.0568C312.924 61.3879 313.942 65.0666 314.703 69.092C315.463 73.1167 315.843 77.5213 315.843 82.3072Z" fill="#1E1C1A"/>
</svg>
