<svg width="624" height="256" viewBox="0 0 624 256" fill="none" xmlns="http://www.w3.org/2000/svg">
<path d="M56.6132 113.588C59.957 113.588 62.7439 110.8 62.7439 107.456C62.7439 104.11 59.957 101.324 56.6132 101.324H51.0382V113.588H56.6132ZM51.0382 77.3543V86.4587H57.0769C59.3074 86.4587 61.1657 84.1369 61.1657 81.9062C61.1657 79.677 59.3074 77.3543 57.0769 77.3543H51.0382ZM79.4674 110.15C79.4674 115.26 77.7018 119.534 74.0794 123.157C70.5485 126.687 66.2751 128.452 61.1657 128.452H29.0198C27.7192 128.452 27.0684 127.802 27.0684 126.501V119.813C27.0684 118.79 27.4402 118.14 28.2771 117.861L34.3159 115.725V76.1463L28.2771 74.0106C27.4402 73.7318 27.0684 73.0806 27.0684 72.0587V65.3689C27.0684 64.0689 27.7192 63.4186 29.0198 63.4186H60.515C65.0675 63.4186 68.9689 64.9982 72.128 68.2492C75.3798 71.5011 76.9594 75.3105 76.9594 79.8631C76.9594 85.5303 74.0794 90.7324 69.341 93.7981C75.3798 96.7711 79.4674 103.089 79.4674 110.15Z" fill="#1E1C1A"/>
<path d="M115.509 77.3543C110.493 77.3543 106.311 79.1192 103.059 82.7434C99.8087 86.366 98.229 90.7324 98.229 95.9353C98.229 101.137 99.8087 105.504 103.059 109.128C106.311 112.752 110.493 114.516 115.509 114.516C120.526 114.516 124.614 112.752 127.866 109.128C131.118 105.504 132.789 101.137 132.789 95.9353C132.789 90.7324 131.118 86.366 127.866 82.7434C124.614 79.1192 120.526 77.3543 115.509 77.3543ZM91.4463 71.8733C98.0431 65.2761 106.125 61.9324 115.509 61.9324C124.893 61.9324 132.975 65.2761 139.572 71.8733C146.169 78.4696 149.513 86.5521 149.513 95.9353C149.513 105.319 146.169 113.308 139.479 119.998C132.882 126.594 124.893 129.939 115.509 129.939C106.125 129.939 98.1362 126.594 91.4463 119.998C84.8508 113.308 81.5059 105.319 81.5059 95.9353C81.5059 86.5521 84.8508 78.4696 91.4463 71.8733Z" fill="#1E1C1A"/>
<path d="M236.281 63.4186C237.583 63.4186 238.232 64.0689 238.232 65.3689V72.0587C238.232 73.1733 237.861 73.8245 237.025 74.0106L233.958 74.6602L219.466 126.594C219.001 128.081 218.536 128.452 217.05 128.452H209.803C208.316 128.452 208.037 128.081 207.388 126.594L194.01 93.0558L180.631 126.594C179.98 128.081 179.702 128.452 178.215 128.452H171.154C169.574 128.452 169.204 128.173 168.74 126.594L154.34 74.939L150.437 74.0106C149.601 73.8245 149.229 73.1733 149.229 72.0587V65.3689C149.229 64.0689 149.879 63.4186 151.18 63.4186H173.106C174.406 63.4186 175.057 64.0689 175.057 65.3689V72.0587C175.057 73.1733 174.685 73.8245 173.848 74.0106L170.412 74.7529L175.985 96.0288L188.527 65.2762C189.178 63.6974 189.457 63.4186 190.943 63.4186H197.075C198.562 63.4186 198.841 63.6974 199.491 65.2762L212.126 96.0288L217.607 74.939L213.613 74.0106C212.776 73.8245 212.404 73.1733 212.404 72.0587V65.3689C212.404 64.0689 213.055 63.4186 214.356 63.4186H236.281Z" fill="#1E1C1A"/>
<path d="M293.037 107.27C294.338 107.27 294.988 107.92 294.988 109.221V126.501C294.988 127.802 294.338 128.452 293.037 128.452H245.469C244.169 128.452 243.52 127.802 243.52 126.501V119.813C243.52 118.79 243.89 118.14 244.727 117.861L250.765 115.725V76.1463L244.727 74.0106C243.89 73.7318 243.52 73.0806 243.52 72.0587V65.3689C243.52 64.0689 244.169 63.4186 245.469 63.4186H272.133C273.434 63.4186 274.084 64.0689 274.084 65.3689V72.0587C274.084 73.0806 273.713 73.7318 272.877 74.0106L267.488 75.8675V114.516H282.26L284.397 108.477C284.676 107.642 285.326 107.27 286.349 107.27H293.037Z" fill="#1E1C1A"/>
<path d="M406.835 63.4186C408.137 63.4186 408.787 64.0689 408.787 65.3689V72.0587C408.787 73.1733 408.415 73.8245 407.579 74.0106L404.513 74.6602L390.021 126.594C389.556 128.081 389.091 128.452 387.604 128.452H380.358C378.871 128.452 378.592 128.081 377.942 126.594L364.564 93.0558L351.185 126.594C350.535 128.081 350.255 128.452 348.769 128.452H341.709C340.129 128.452 339.758 128.173 339.293 126.594L324.893 74.939L320.991 74.0106C320.156 73.8245 319.783 73.1733 319.783 72.0587V65.3689C319.783 64.0689 320.433 63.4186 321.735 63.4186H343.66C344.961 63.4186 345.612 64.0689 345.612 65.3689V72.0587C345.612 73.1733 345.239 73.8245 344.403 74.0106L340.966 74.7529L346.54 96.0288L359.082 65.2762C359.733 63.6974 360.012 63.4186 361.498 63.4186H367.63C369.116 63.4186 369.396 63.6974 370.045 65.2762L382.681 96.0288L388.162 74.939L384.167 74.0106C383.331 73.8245 382.958 73.1733 382.958 72.0587V65.3689C382.958 64.0689 383.61 63.4186 384.91 63.4186H406.835Z" fill="#1E1C1A"/>
<path d="M442.506 77.3543C437.488 77.3543 433.307 79.1192 430.057 82.7434C426.805 86.366 425.225 90.7324 425.225 95.9353C425.225 101.137 426.805 105.504 430.057 109.128C433.307 112.752 437.488 114.516 442.506 114.516C447.522 114.516 451.61 112.752 454.862 109.128C458.114 105.504 459.787 101.137 459.787 95.9353C459.787 90.7324 458.114 86.366 454.862 82.7434C451.61 79.1192 447.522 77.3543 442.506 77.3543ZM418.442 71.8733C425.039 65.2761 433.122 61.9324 442.506 61.9324C451.889 61.9324 459.971 65.2761 466.568 71.8733C473.164 78.4696 476.509 86.5521 476.509 95.9353C476.509 105.319 473.164 113.308 466.475 119.998C459.879 126.594 451.889 129.939 442.506 129.939C433.122 129.939 425.132 126.594 418.442 119.998C411.846 113.308 408.502 105.319 408.502 95.9353C408.502 86.5521 411.846 78.4696 418.442 71.8733Z" fill="#1E1C1A"/>
<path d="M563.274 63.4186C564.575 63.4186 565.226 64.0689 565.226 65.3689V72.0587C565.226 73.1733 564.854 73.8245 564.018 74.0106L560.953 74.6602L546.459 126.594C545.994 128.081 545.529 128.452 544.043 128.452H536.796C535.31 128.452 535.031 128.081 534.382 126.594L521.003 93.0558L507.625 126.594C506.974 128.081 506.695 128.452 505.208 128.452H498.148C496.569 128.452 496.196 128.173 495.733 126.594L481.331 74.939L477.43 74.0106C476.594 73.8245 476.223 73.1733 476.223 72.0587V65.3689C476.223 64.0689 476.873 63.4186 478.174 63.4186H500.099C501.4 63.4186 502.05 64.0689 502.05 65.3689V72.0587C502.05 73.1733 501.679 73.8245 500.842 74.0106L497.405 74.7529L502.979 96.0288L515.522 65.2762C516.172 63.6974 516.45 63.4186 517.937 63.4186H524.069C525.556 63.4186 525.834 63.6974 526.484 65.2762L539.12 96.0288L544.601 74.939L540.607 74.0106C539.769 73.8245 539.398 73.1733 539.398 72.0587V65.3689C539.398 64.0689 540.048 63.4186 541.349 63.4186H563.274Z" fill="#1E1C1A"/>
<path d="M121.631 160.556V163.108C121.631 163.498 121.489 163.745 121.17 163.852L118.937 164.632V183.876C118.937 184.407 118.724 184.62 118.193 184.62H115.464C115.074 184.62 114.969 184.372 114.507 183.876L103.804 172.146V179.8L106.037 180.58C106.356 180.686 106.498 180.934 106.498 181.325V183.876C106.498 184.407 106.25 184.62 105.754 184.62H95.8653C95.3693 184.62 95.1211 184.407 95.1211 183.876V181.325C95.1211 180.934 95.2629 180.686 95.582 180.58L97.7793 179.8V164.632L95.582 163.852C95.2629 163.745 95.1211 163.498 95.1211 163.108V160.556C95.1211 160.025 95.3693 159.811 95.8653 159.811H101.252C101.642 159.811 101.749 160.06 102.209 160.556L112.912 172.641V164.632L110.68 163.852C110.361 163.745 110.219 163.498 110.219 163.108V160.556C110.219 160.025 110.467 159.811 110.963 159.811H120.886C121.383 159.811 121.631 160.025 121.631 160.556Z" fill="#1E1C1A"/>
<path d="M129.213 180.792C129.674 180.685 130.063 180.474 130.453 180.19V179.41C127.902 178.311 127.157 179.197 127.157 179.977C127.157 180.721 128.149 181.076 129.213 180.792ZM138.25 181.324V183.876C138.25 184.407 138.002 184.62 137.506 184.62H131.906C131.375 184.62 131.02 184.301 130.772 183.804L130.559 183.379C129.496 184.301 128.185 185.01 126.626 185.01C123.755 185.01 121.416 183.024 121.416 180.19C121.416 177.319 123.791 173.846 130.453 175.724V174.767C130.453 173.917 129.992 172.286 127.547 172.286C127.335 172.286 127.122 172.286 126.909 172.322L126.484 173.703C126.378 174.023 126.13 174.165 125.74 174.165H123.188C122.656 174.165 122.444 173.917 122.444 173.42L122.479 169.628C122.479 169.203 122.514 168.955 122.904 168.813C124.676 168.175 126.768 167.75 128.575 167.75C133.537 167.75 135.84 170.266 135.84 172.96V180.083L137.79 180.579C138.108 180.65 138.25 180.934 138.25 181.324Z" fill="#1E1C1A"/>
<path d="M152.923 184.124C151.186 184.797 149.237 185.188 147.535 185.188C142.822 185.188 141.405 182.316 141.405 179.622V173.066H139.668C139.136 173.066 138.924 172.854 138.924 172.322V169.062C138.924 168.53 139.136 168.317 139.668 168.317H141.405V164.631C141.405 164.099 141.617 163.887 142.148 163.887H146.685C147.217 163.887 147.429 164.099 147.429 164.631V168.317H150.938C151.469 168.317 151.682 168.53 151.682 169.062V172.322C151.682 172.854 151.469 173.066 150.938 173.066H147.429V177.567C147.429 178.417 147.394 179.87 149.414 179.8C149.946 179.765 150.548 179.622 151.186 179.411C151.682 179.233 151.965 179.304 152.143 179.8L153.312 183.167C153.49 183.663 153.348 183.947 152.923 184.124Z" fill="#1E1C1A"/>
<path d="M175.321 181.324V183.876C175.321 184.407 175.072 184.62 174.576 184.62H168.729C168.197 184.62 168.02 184.336 167.913 183.804L167.772 183.131C166.212 184.443 164.157 185.188 162.278 185.188C159.124 185.188 156.077 183.131 156.077 179.375V172.854L154.127 172.358C153.809 172.286 153.666 172.003 153.666 171.613V169.062C153.666 168.53 153.914 168.317 154.411 168.317H161.002C161.534 168.317 161.711 168.53 161.747 169.062L162.101 173.598V177.142C162.101 178.949 163.059 179.87 164.44 179.87C165.291 179.87 166.07 179.516 166.886 178.985V172.854L164.936 172.358C164.618 172.286 164.475 172.003 164.475 171.613V169.062C164.475 168.53 164.724 168.317 165.22 168.317H171.812C172.344 168.317 172.52 168.53 172.556 169.062L172.911 173.598V180.083L174.859 180.58C175.179 180.651 175.321 180.934 175.321 181.324Z" fill="#1E1C1A"/>
<path d="M193.252 169.097V174.059C193.252 174.555 193.04 174.804 192.508 174.804H189.956C189.566 174.804 189.319 174.661 189.212 174.343L188.822 173.066C188.362 173.102 187.9 173.244 187.44 173.421C186.66 173.704 185.987 174.165 185.526 174.59V180.013L188.858 180.58C189.176 180.651 189.319 180.934 189.319 181.325V183.876C189.319 184.407 189.07 184.62 188.574 184.62H177.871C177.375 184.62 177.127 184.407 177.127 183.876V181.325C177.127 180.934 177.269 180.651 177.587 180.58L179.501 180.084V172.854L177.587 172.358C177.269 172.286 177.127 172.004 177.127 171.614V169.062C177.127 168.53 177.375 168.317 177.871 168.317H183.684C184.215 168.317 184.392 168.602 184.498 169.133L184.711 170.125C184.711 170.125 186.093 168.743 188.007 168.14C189.85 167.573 191.622 167.927 192.614 168.317C193.075 168.495 193.252 168.637 193.252 169.097Z" fill="#1E1C1A"/>
<path d="M201.792 180.792C202.252 180.685 202.641 180.474 203.032 180.19V179.41C200.48 178.311 199.735 179.197 199.735 179.977C199.735 180.721 200.728 181.076 201.792 180.792ZM210.829 181.324V183.876C210.829 184.407 210.58 184.62 210.084 184.62H204.485C203.953 184.62 203.599 184.301 203.35 183.804L203.138 183.379C202.074 184.301 200.763 185.01 199.204 185.01C196.333 185.01 193.994 183.024 193.994 180.19C193.994 177.319 196.369 173.846 203.032 175.724V174.767C203.032 173.917 202.571 172.286 200.126 172.286C199.913 172.286 199.7 172.286 199.488 172.322L199.062 173.703C198.956 174.023 198.708 174.165 198.318 174.165H195.766C195.235 174.165 195.022 173.917 195.022 173.42L195.057 169.628C195.057 169.203 195.093 168.955 195.483 168.813C197.255 168.175 199.346 167.75 201.154 167.75C206.115 167.75 208.418 170.266 208.418 172.96V180.083L210.368 180.579C210.686 180.65 210.829 180.934 210.829 181.324Z" fill="#1E1C1A"/>
<path d="M221.39 180.013V183.876C221.39 184.407 221.177 184.62 220.645 184.62C214.833 184.62 212.494 182.459 212.494 177.107V164.348L210.58 163.852C210.261 163.781 210.119 163.498 210.119 163.108V160.556C210.119 160.025 210.368 159.811 210.864 159.811H217.42C217.952 159.811 218.058 160.025 218.164 160.556L218.519 162.434V177.107C218.519 178.454 219.086 179.268 220.645 179.268C221.177 179.268 221.39 179.481 221.39 180.013Z" fill="#1E1C1A"/>
<path d="M231.771 176.61C231.771 176.114 231.984 175.866 232.515 175.866H235.068C235.457 175.866 235.564 176.043 235.741 176.54L236.52 178.736C237.443 179.446 238.186 179.87 239.639 179.87C241.092 179.87 242.474 179.304 242.687 177.956C243.29 174.059 232.126 173.988 232.055 166.367C232.02 162.399 235.245 159.244 240.631 159.244C242.793 159.244 245.416 159.776 247.649 161.194C248.038 161.442 248.18 161.724 248.18 162.045V167.006C248.18 167.502 247.968 167.75 247.436 167.75H244.885C244.495 167.75 244.353 167.572 244.211 167.077L243.644 165.376C242.758 164.879 241.659 164.56 240.703 164.56C238.859 164.56 238.045 165.73 238.257 166.652C238.93 169.593 249.031 170.55 249.031 177.638C249.031 182.316 244.672 185.188 239.887 185.188C236.627 185.188 234.181 184.053 232.233 182.352C231.948 182.104 231.807 181.926 231.771 181.714V176.61Z" fill="#1E1C1A"/>
<path d="M272.209 181.324V183.876C272.209 184.407 271.961 184.62 271.465 184.62H265.617C265.086 184.62 264.909 184.336 264.802 183.804L264.66 183.131C263.101 184.443 261.045 185.188 259.167 185.188C256.013 185.188 252.965 183.131 252.965 179.375V172.854L251.016 172.358C250.697 172.286 250.555 172.003 250.555 171.613V169.062C250.555 168.53 250.803 168.317 251.299 168.317H257.892C258.423 168.317 258.6 168.53 258.636 169.062L258.99 173.598V177.142C258.99 178.949 259.946 179.87 261.329 179.87C262.179 179.87 262.959 179.516 263.775 178.985V172.854L261.825 172.358C261.507 172.286 261.364 172.003 261.364 171.613V169.062C261.364 168.53 261.612 168.317 262.109 168.317H268.7C269.232 168.317 269.41 168.53 269.445 169.062L269.799 173.598V180.083L271.748 180.58C272.067 180.651 272.209 180.934 272.209 181.324Z" fill="#1E1C1A"/>
<path d="M288.371 176.468C288.371 174.554 286.811 173.066 284.756 173.066C283.8 173.066 282.984 173.385 282.453 173.634V179.516C282.771 179.658 283.658 180.048 284.685 180.048C286.811 180.048 288.371 178.383 288.371 176.468ZM294.042 176.681C293.9 181.324 290.356 185.152 285.748 185.01C284.225 184.974 283.02 184.513 282.453 184.265V187.101L285.43 187.668C285.748 187.739 285.89 188.022 285.89 188.412V190.964C285.89 191.495 285.642 191.708 285.146 191.708H274.762C274.266 191.708 274.018 191.495 274.018 190.964V188.412C274.018 188.022 274.159 187.739 274.479 187.668L276.427 187.172V172.854L274.479 172.358C274.159 172.286 274.018 172.004 274.018 171.613V169.062C274.018 168.53 274.266 168.317 274.762 168.317H280.609C281.141 168.317 281.319 168.601 281.425 169.133L281.496 169.451C282.595 168.849 283.693 168.352 284.969 168.14C289.93 167.325 294.219 171.365 294.042 176.681Z" fill="#1E1C1A"/>
<path d="M302.013 174.413H306.974C306.798 173.137 305.699 172.358 304.493 172.358C303.289 172.358 302.19 173.137 302.013 174.413ZM312.397 175.653C312.432 176.22 312.432 176.397 312.361 176.894C312.29 177.425 312.114 177.638 311.582 177.638H301.588C301.694 179.02 302.793 180.048 304.706 180.048C305.947 180.048 307.222 179.622 308.215 179.268C308.676 179.09 308.995 179.268 309.172 179.658L310.625 182.813C310.802 183.202 310.625 183.557 310.236 183.769C309.172 184.336 307.293 185.188 304.813 185.188C299.531 185.188 295.988 181.288 295.988 176.468C295.988 171.649 299.531 167.75 304.388 167.75C308.959 167.75 312.114 171.224 312.397 175.653Z" fill="#1E1C1A"/>
<path d="M329.729 169.097V174.059C329.729 174.555 329.516 174.804 328.984 174.804H326.433C326.043 174.804 325.795 174.661 325.688 174.343L325.298 173.066C324.838 173.102 324.377 173.244 323.916 173.421C323.136 173.704 322.463 174.165 322.002 174.59V180.013L325.333 180.58C325.654 180.651 325.795 180.934 325.795 181.325V183.876C325.795 184.407 325.547 184.62 325.05 184.62H314.347C313.851 184.62 313.604 184.407 313.604 183.876V181.325C313.604 180.934 313.745 180.651 314.064 180.58L315.978 180.084V172.854L314.064 172.358C313.745 172.286 313.604 172.004 313.604 171.614V169.062C313.604 168.53 313.851 168.317 314.347 168.317H320.16C320.691 168.317 320.868 168.602 320.975 169.133L321.187 170.125C321.187 170.125 322.57 168.743 324.484 168.14C326.327 167.573 328.098 167.927 329.091 168.317C329.551 168.495 329.729 168.637 329.729 169.097Z" fill="#1E1C1A"/>
<path d="M348.649 170.941H351.129C352.795 170.941 353.894 169.841 353.894 168.211C353.894 166.581 352.795 165.482 351.129 165.482H348.649V170.941ZM348.649 176.611V179.694L352.37 180.58C352.689 180.651 352.831 180.934 352.831 181.325V183.876C352.831 184.407 352.583 184.62 352.087 184.62H340.25C339.754 184.62 339.506 184.407 339.506 183.876V181.325C339.506 180.934 339.647 180.686 339.965 180.58L342.269 179.765V164.667L339.965 163.852C339.647 163.745 339.506 163.498 339.506 163.108V160.556C339.506 160.025 339.754 159.811 340.25 159.811H351.874C356.906 159.811 360.274 163.179 360.274 168.211C360.274 173.244 356.906 176.611 351.874 176.611H348.649Z" fill="#1E1C1A"/>
<path d="M377.072 169.097V174.059C377.072 174.555 376.86 174.804 376.328 174.804H373.777C373.387 174.804 373.138 174.661 373.032 174.343L372.643 173.066C372.182 173.102 371.721 173.244 371.26 173.421C370.48 173.704 369.807 174.165 369.346 174.59V180.013L372.677 180.58C372.997 180.651 373.138 180.934 373.138 181.325V183.876C373.138 184.407 372.891 184.62 372.394 184.62H361.691C361.195 184.62 360.947 184.407 360.947 183.876V181.325C360.947 180.934 361.089 180.651 361.408 180.58L363.321 180.084V172.854L361.408 172.358C361.089 172.286 360.947 172.004 360.947 171.614V169.062C360.947 168.53 361.195 168.317 361.691 168.317H367.504C368.035 168.317 368.212 168.602 368.319 169.133L368.531 170.125C368.531 170.125 369.914 168.743 371.827 168.14C373.67 167.573 375.441 167.927 376.435 168.317C376.896 168.495 377.072 168.637 377.072 169.097Z" fill="#1E1C1A"/>
<path d="M384.549 174.413H389.51C389.333 173.137 388.235 172.358 387.029 172.358C385.824 172.358 384.726 173.137 384.549 174.413ZM394.933 175.653C394.968 176.22 394.968 176.397 394.897 176.894C394.826 177.425 394.649 177.638 394.117 177.638H384.124C384.23 179.02 385.329 180.048 387.242 180.048C388.482 180.048 389.758 179.622 390.751 179.268C391.211 179.09 391.531 179.268 391.708 179.658L393.16 182.813C393.338 183.202 393.16 183.557 392.771 183.769C391.708 184.336 389.829 185.188 387.348 185.188C382.067 185.188 378.523 181.288 378.523 176.468C378.523 171.649 382.067 167.75 386.924 167.75C391.495 167.75 394.649 171.224 394.933 175.653Z" fill="#1E1C1A"/>
<path d="M428.602 181.325V183.876C428.602 184.407 428.353 184.62 427.857 184.62H420.911C420.38 184.62 420.166 184.407 420.166 183.876V175.795C420.166 173.988 418.997 173.066 417.615 173.066C416.764 173.066 415.985 173.421 415.383 173.953V180.084L417.332 180.58C417.651 180.651 417.792 180.934 417.792 181.325V183.876C417.792 184.407 417.544 184.62 417.048 184.62H410.102C409.571 184.62 409.357 184.407 409.357 183.876V175.795C409.357 173.988 408.401 173.066 407.018 173.066C406.168 173.066 405.389 173.421 404.573 173.953V180.084L406.523 180.58C406.841 180.651 406.982 180.934 406.982 181.325V183.876C406.982 184.407 406.735 184.62 406.238 184.62H396.918C396.421 184.62 396.174 184.407 396.174 183.876V181.325C396.174 180.934 396.315 180.651 396.634 180.58L398.548 180.084V172.854L396.598 172.358C396.28 172.286 396.139 172.004 396.139 171.614V169.062C396.139 168.53 396.386 168.317 396.882 168.317H402.73C403.262 168.317 403.439 168.602 403.545 169.133L403.687 169.806C405.246 168.495 407.302 167.75 409.18 167.75C411.059 167.75 412.901 168.495 414.107 169.877L414.178 169.806C416.091 168.495 418.112 167.75 419.99 167.75C423.143 167.75 426.192 169.806 426.192 173.563V180.084L428.141 180.58C428.46 180.651 428.602 180.934 428.602 181.325Z" fill="#1E1C1A"/>
<path d="M432.002 162.364C432.002 160.662 433.42 159.245 435.157 159.245C436.894 159.245 438.311 160.662 438.311 162.364C438.311 164.1 436.894 165.518 435.157 165.518C433.42 165.518 432.002 164.1 432.002 162.364ZM440.579 181.325V183.876C440.579 184.407 440.331 184.62 439.835 184.62H430.479C429.983 184.62 429.734 184.407 429.734 183.876V181.325C429.734 180.934 429.876 180.651 430.195 180.58L432.144 180.084V172.854L430.231 172.358C429.912 172.286 429.769 172.004 429.769 171.614V169.062C429.769 168.53 430.018 168.317 430.514 168.317H437.071C437.602 168.317 437.779 168.53 437.814 169.062L438.169 173.598V180.084L440.118 180.58C440.438 180.651 440.579 180.934 440.579 181.325Z" fill="#1E1C1A"/>
<path d="M462.906 181.324V183.876C462.906 184.407 462.658 184.62 462.161 184.62H456.313C455.782 184.62 455.604 184.336 455.498 183.804L455.357 183.131C453.797 184.443 451.742 185.188 449.863 185.188C446.709 185.188 443.661 183.131 443.661 179.375V172.854L441.712 172.358C441.393 172.286 441.252 172.003 441.252 171.613V169.062C441.252 168.53 441.5 168.317 441.996 168.317H448.588C449.119 168.317 449.297 168.53 449.332 169.062L449.686 173.598V177.142C449.686 178.949 450.643 179.87 452.025 179.87C452.876 179.87 453.656 179.516 454.47 178.985V172.854L452.522 172.358C452.202 172.286 452.061 172.003 452.061 171.613V169.062C452.061 168.53 452.309 168.317 452.805 168.317H459.397C459.929 168.317 460.106 168.53 460.141 169.062L460.496 173.598V180.083L462.445 180.58C462.764 180.651 462.906 180.934 462.906 181.324Z" fill="#1E1C1A"/>
<path d="M497.176 181.325V183.876C497.176 184.407 496.927 184.62 496.431 184.62H489.485C488.954 184.62 488.741 184.407 488.741 183.876V175.795C488.741 173.988 487.572 173.066 486.189 173.066C485.338 173.066 484.559 173.421 483.957 173.953V180.084L485.906 180.58C486.225 180.651 486.366 180.934 486.366 181.325V183.876C486.366 184.407 486.118 184.62 485.622 184.62H478.676C478.145 184.62 477.931 184.407 477.931 183.876V175.795C477.931 173.988 476.975 173.066 475.592 173.066C474.743 173.066 473.963 173.421 473.147 173.953V180.084L475.097 180.58C475.416 180.651 475.557 180.934 475.557 181.325V183.876C475.557 184.407 475.309 184.62 474.813 184.62H465.493C464.996 184.62 464.748 184.407 464.748 183.876V181.325C464.748 180.934 464.89 180.651 465.208 180.58L467.122 180.084V172.854L465.172 172.358C464.854 172.286 464.713 172.004 464.713 171.614V169.062C464.713 168.53 464.961 168.317 465.457 168.317H471.304C471.836 168.317 472.013 168.602 472.119 169.133L472.261 169.806C473.82 168.495 475.877 167.75 477.754 167.75C479.633 167.75 481.475 168.495 482.681 169.877L482.752 169.806C484.666 168.495 486.686 167.75 488.564 167.75C491.718 167.75 494.766 169.806 494.766 173.563V180.084L496.715 180.58C497.034 180.651 497.176 180.934 497.176 181.325Z" fill="#1E1C1A"/>
<path d="M573.564 65.1747H577.242V73.9707H579.19V65.1747H582.827V63.4184H573.564V65.1747Z" fill="#1E1C1A"/>
<path d="M593.568 63.4184H591.681L588.592 71.1394L585.503 63.4184H583.617L582.861 73.9707H584.769L585.237 67.3377L587.941 73.9707H589.243L591.947 67.3377L592.416 73.9707H594.323L593.568 63.4184Z" fill="#1E1C1A"/>
<path d="M310.922 0.363994V3.44092" stroke="#17161D" stroke-opacity="0.25" stroke-width="1.33333" stroke-miterlimit="10"/>
<path d="M310.922 9.5208V249.637" stroke="#17161D" stroke-opacity="0.25" stroke-width="1.33333" stroke-miterlimit="10" stroke-dasharray="15.81 15.81"/>
<path d="M310.922 252.675V255.752" stroke="#17161D" stroke-opacity="0.25" stroke-width="1.33333" stroke-miterlimit="10"/>
<path d="M569.202 129.288H26.3867V62.7963H569.202V129.288Z" stroke="#17161D" stroke-opacity="0.25" stroke-width="1.33333" stroke-miterlimit="10"/>
<path d="M497.349 209.436H95.3691V129.665H497.349V209.436Z" stroke="#17161D" stroke-opacity="0.25" stroke-width="1.33333" stroke-miterlimit="10"/>
<path d="M596.931 129.665H26.5469V60.8436H596.931V129.665Z" stroke="#17161D" stroke-opacity="0.25" stroke-width="1.33333" stroke-miterlimit="10"/>
<path d="M596.93 73.8779H569.297V62.9291H596.93V73.8779Z" stroke="#17161D" stroke-opacity="0.25" stroke-width="1.33333" stroke-miterlimit="10"/>
<path d="M573.468 129.144H569.297V60.844H573.468V129.144Z" stroke="#17161D" stroke-opacity="0.25" stroke-width="1.33333" stroke-miterlimit="10"/>
<path d="M597.011 209.683H26.3906V129.288H597.011V209.683Z" stroke="#17161D" stroke-opacity="0.25" stroke-width="1.33333" stroke-miterlimit="10"/>
<path d="M596.931 184.931H26.5469V159.383H596.931V184.931Z" stroke="#17161D" stroke-opacity="0.25" stroke-width="1.33333" stroke-miterlimit="10"/>
<path d="M52.7243 33.6083C53.2227 33.6083 53.4715 33.8576 53.4715 34.3555V36.9176C53.4715 37.3089 53.3289 37.5576 53.0089 37.6653L50.7668 38.4478V57.7704C50.7668 58.2689 50.5176 58.5176 50.0197 58.5176H47.2797C47.1017 58.5176 46.9238 58.4114 46.8171 58.376C46.7817 58.2689 46.4612 57.9135 46.3186 57.7704L35.572 45.9919V53.6781L37.814 54.4612C38.134 54.5683 38.2766 54.8176 38.2766 55.2083V57.7704C38.2766 58.2689 38.0274 58.5176 37.5294 58.5176H27.6007C27.1022 58.5176 26.8535 58.2689 26.8535 57.7704V55.2083C26.8535 54.8176 26.9956 54.5683 27.3161 54.4612L29.5222 53.6781V38.4478L27.3161 37.6653C26.9956 37.5576 26.8535 37.3089 26.8535 36.9176V34.3555C26.8535 33.8576 27.1022 33.6083 27.6007 33.6083H33.0099C33.1874 33.6083 33.4012 33.6791 33.4366 33.7868C33.5433 33.8222 33.8279 34.213 33.971 34.3555L44.7171 46.4904V38.4478L42.4756 37.6653C42.1551 37.5576 42.013 37.3089 42.013 36.9176V34.3555C42.013 33.8576 42.2622 33.6083 42.7602 33.6083H52.7243Z" fill="#17161D" fill-opacity="0.4"/>
<path d="M623 209.683H1V33.7821H623V209.683Z" stroke="#17161D" stroke-opacity="0.25" stroke-width="1.33333" stroke-miterlimit="10"/>
<path d="M1.19531 155.798C1.19531 155.299 1.44454 155.051 1.94249 155.051H4.50454C4.89583 155.051 5.14454 155.193 5.25224 155.513L6.0348 157.755H25.3574C25.8558 157.755 26.1045 158.004 26.1045 158.502V161.242C26.1045 161.42 25.9984 161.598 25.963 161.705C25.8558 161.74 25.5004 162.061 25.3574 162.203L13.5789 172.95H21.2651L22.0481 170.708C22.1553 170.388 22.4045 170.245 22.7953 170.245H25.3574C25.8558 170.245 26.1045 170.495 26.1045 170.993V180.921C26.1045 181.42 25.8558 181.668 25.3574 181.668H22.7953C22.4045 181.668 22.1553 181.526 22.0481 181.206L21.2651 179H6.0348L5.25224 181.206C5.14454 181.526 4.89583 181.668 4.50454 181.668H1.94249C1.44454 181.668 1.19531 181.42 1.19531 180.921V175.512C1.19531 175.335 1.26608 175.121 1.37377 175.085C1.40916 174.979 1.79993 174.694 1.94249 174.551L14.0774 163.805H6.0348L5.25224 166.046C5.14454 166.367 4.89583 166.509 4.50454 166.509H1.94249C1.44454 166.509 1.19531 166.26 1.19531 165.762V155.798Z" fill="#17161D" fill-opacity="0.4"/>
<path d="M622.347 156.374C622.347 156.873 622.097 157.122 621.6 157.122H619.038C618.646 157.122 618.398 156.979 618.29 156.659L617.507 154.417H598.185C597.686 154.417 597.438 154.168 597.438 153.67V150.93C597.438 150.752 597.544 150.574 597.579 150.467C597.686 150.432 598.042 150.111 598.185 149.969L609.963 139.222H602.277L601.494 141.464C601.387 141.784 601.138 141.927 600.747 141.927H598.185C597.686 141.927 597.438 141.677 597.438 141.18V131.251C597.438 130.752 597.686 130.504 598.185 130.504H600.747C601.138 130.504 601.387 130.646 601.494 130.966L602.277 133.172H617.507L618.29 130.966C618.398 130.646 618.646 130.504 619.038 130.504H621.6C622.097 130.504 622.347 130.752 622.347 131.251V136.66C622.347 136.837 622.276 137.051 622.168 137.087C622.133 137.193 621.742 137.478 621.6 137.621L609.465 148.367H617.507L618.29 146.126C618.398 145.805 618.646 145.663 619.038 145.663H621.6C622.097 145.663 622.347 145.912 622.347 146.41V156.374Z" fill="#17161D" fill-opacity="0.4"/>
<path d="M586.009 183.81C586.507 183.81 586.757 184.059 586.757 184.557V187.119C586.757 187.51 586.614 187.759 586.294 187.866L584.052 188.649V207.972C584.052 208.47 583.803 208.719 583.305 208.719H580.565C580.387 208.719 580.209 208.613 580.102 208.577C580.066 208.47 579.746 208.114 579.604 207.972L568.857 196.193V203.879L571.099 204.662C571.419 204.77 571.562 205.019 571.562 205.41V207.972C571.562 208.47 571.313 208.719 570.815 208.719H560.886C560.387 208.719 560.139 208.47 560.139 207.972V205.41C560.139 205.019 560.281 204.77 560.601 204.662L562.807 203.879V188.649L560.601 187.866C560.281 187.759 560.139 187.51 560.139 187.119V184.557C560.139 184.059 560.387 183.81 560.886 183.81H566.295C566.473 183.81 566.686 183.88 566.722 183.988C566.828 184.023 567.113 184.414 567.256 184.557L578.002 196.692V188.649L575.761 187.866C575.44 187.759 575.298 187.51 575.298 187.119V184.557C575.298 184.059 575.547 183.81 576.045 183.81H586.009Z" fill="#17161D" fill-opacity="0.4"/>
</svg>
