<svg width="170" height="37" fill="none" xmlns="http://www.w3.org/2000/svg"><path d="M45.78 29.276c.164 0 .205.083.205.207v.79c0 .124-.04.207-.123.207l-.658.25v5.854c0 .167-.083.208-.206.208h-.822a.41.41 0 01-.124-.041c0-.042-.123-.125-.164-.166l-3.209-3.572v2.326l.658.249a.229.229 0 01.124.207v.79c0 .166-.082.207-.206.207h-2.961c-.165 0-.206-.083-.206-.208v-.789c0-.124.041-.207.123-.207l.658-.25V30.73l-.658-.249a.229.229 0 01-.123-.207v-.79c0-.166.082-.207.206-.207h1.604c.04 0 .123.041.123.041.041 0 .123.125.165.166l3.208 3.655v-2.45l-.658-.25a.229.229 0 01-.124-.207v-.789c0-.166.083-.208.206-.208h2.962v.042zm5.1 6.312c.081.041.123.083.123.207v.79c0 .165-.083.207-.206.207h-1.686c-.124 0-.247-.083-.33-.25l-.082-.124c-.37.332-.781.498-1.193.498-.452 0-.822-.124-1.11-.415-.288-.29-.453-.623-.453-1.038 0-.914.7-1.869 2.715-1.37v-.291c0-.374-.206-.748-.864-.748h-.205l-.124.416a.226.226 0 01-.205.124h-.782c-.164 0-.206-.083-.206-.207v-1.163c0-.125.041-.208.124-.25.576-.207 1.151-.331 1.686-.331 1.399 0 2.18.706 2.18 1.578v2.159l.617.208zm-2.592.041c.123-.041.247-.083.37-.166v-.25c-.74-.331-.987-.082-.987.167 0 .25.288.332.617.25zm7.24.748c.04.125 0 .25-.124.29-.534.209-1.07.333-1.604.333-.658 0-1.11-.166-1.398-.498-.288-.333-.412-.748-.412-1.205v-1.993h-.534c-.165 0-.206-.083-.206-.207V32.1c0-.166.082-.208.206-.208h.534v-1.12c0-.167.083-.208.206-.208h1.357c.165 0 .206.082.206.207v1.121h1.07c.164 0 .205.083.205.208v.997c0 .166-.082.207-.206.207H53.76v1.37c0 .208 0 .25.082.457.083.166.247.25.535.25.165 0 .33-.042.535-.125.123-.042.247 0 .288.124l.329.997zm6.5-.789c.082.041.123.083.123.208v.789c0 .166-.082.207-.206.207h-1.768c-.124 0-.206-.083-.247-.249l-.041-.208c-.494.416-1.029.623-1.645.623-.494 0-.947-.166-1.317-.456-.37-.333-.534-.748-.534-1.288v-1.993l-.576-.166c-.083-.042-.124-.083-.124-.208v-.789c0-.166.083-.207.206-.207h1.974c.124 0 .206.083.206.207l.123 1.37v1.08c0 .54.288.83.7.83.205 0 .452-.082.74-.248v-1.87l-.576-.166c-.082-.042-.123-.083-.123-.208v-.789c0-.166.082-.207.206-.207h1.974c.123 0 .206.083.206.207l.123 1.37v1.952l.576.208zm5.511-3.488v1.495c0 .166-.082.208-.206.208h-.781c-.124 0-.206-.042-.206-.125l-.123-.373c-.124 0-.247.041-.412.124a1.725 1.725 0 00-.575.374v1.66l.987.167c.082.041.123.083.123.208v.789c0 .166-.082.207-.206.207h-3.208c-.164 0-.205-.083-.205-.207v-.79c0-.124.04-.207.123-.207l.576-.166v-2.201l-.576-.166c-.082-.042-.123-.083-.123-.208V32.1c0-.166.082-.207.205-.207h1.769c.123 0 .206.083.247.249l.082.29c.288-.29.617-.498.987-.623a2.3 2.3 0 011.399.042c.082.042.123.125.123.25zm5.182 3.488c.082.041.123.083.123.207v.79c0 .165-.082.207-.205.207h-1.687c-.123 0-.246-.083-.329-.25l-.082-.124c-.37.332-.781.498-1.193.498-.452 0-.823-.124-1.11-.415-.288-.29-.453-.623-.453-1.038 0-.914.7-1.869 2.715-1.37v-.291c0-.374-.206-.748-.864-.748h-.206l-.123.416a.226.226 0 01-.206.124h-.781c-.165 0-.206-.083-.206-.207v-1.163c0-.125.041-.208.124-.25.576-.207 1.151-.331 1.686-.331 1.398 0 2.18.706 2.18 1.578v2.159l.617.208zm-2.591.041c.123-.041.246-.083.37-.166v-.25c-.74-.331-.987-.082-.987.167 0 .25.288.332.617.25zm5.881-.207v1.163c0 .166-.082.208-.205.208-1.769 0-2.468-.665-2.468-2.284v-3.862l-.576-.166c-.082-.042-.123-.083-.123-.208v-.789c0-.166.082-.208.205-.208h1.975c.164 0 .205.042.205.208l.124.581v4.444c0 .456.205.664.658.664.123 0 .206.083.206.25zm8.722-2.782c.164 0 .206.083.206.207v1.038c0 .166-.083.208-.206.208h-.453v.54c0 .706-.246 1.287-.74 1.661-.494.415-1.11.623-1.851.623-.74 0-1.357-.208-1.851-.623-.493-.415-.74-.997-.74-1.661 0-.748.329-1.329.987-1.786-.494-.415-.74-.996-.782-1.744 0-.623.206-1.121.617-1.495.412-.373.946-.54 1.563-.54.494 0 .946.125 1.317.374.37.208.617.457.781.748.082.124.082.249 0 .332l-.823.83c-.123.083-.205.083-.329-.041-.205-.25-.452-.416-.699-.416a.521.521 0 00-.535.54c0 .416.33.706.74.79.165.04.206.082.206.207v.955c0 .166-.082.208-.205.208-.658.166-.987.456-.987.872 0 .415.37.706.904.706.535 0 .947-.333.947-.914v-1.412c0-.166.082-.207.205-.207h1.728zm9.337 2.034c0 .582-.206 1.08-.617 1.495a2.01 2.01 0 01-1.481.623H88.27c-.164 0-.206-.083-.206-.208v-.789c0-.124.042-.207.124-.207l.7-.25v-4.567l-.7-.25a.229.229 0 01-.124-.207v-.789c0-.166.083-.208.206-.208h3.62c.534 0 .987.166 1.316.54.37.374.535.83.535 1.33 0 .663-.33 1.245-.864 1.619.7.332 1.193 1.08 1.193 1.868zm-3.25-3.779v1.039h.7c.246 0 .452-.25.452-.54 0-.25-.206-.54-.452-.54h-.7v.041zm.617 4.195c.37 0 .7-.333.7-.706a.724.724 0 00-.7-.706h-.658v1.412h.658zm8.103.498c.082.041.123.083.123.207v.79c0 .165-.082.207-.206.207h-1.686c-.124 0-.247-.083-.33-.25l-.082-.124c-.37.332-.781.498-1.192.498-.453 0-.823-.124-1.111-.415-.288-.29-.453-.623-.453-1.038 0-.914.7-1.869 2.715-1.37v-.291c0-.374-.205-.748-.864-.748h-.205l-.124.416a.226.226 0 01-.205.124h-.782c-.164 0-.205-.083-.205-.207v-1.163c0-.125.04-.208.123-.25.576-.207 1.152-.331 1.686-.331 1.399 0 2.18.706 2.18 1.578v2.159l.617.208zm-2.592.041c.123-.041.247-.083.37-.166v-.25c-.74-.331-.987-.082-.987.167 0 .25.288.332.617.25zm5.923-.207v1.163c0 .166-.082.208-.206.208-1.768 0-2.468-.665-2.468-2.284v-3.862l-.576-.166c-.082-.042-.123-.083-.123-.208v-.789c0-.166.082-.208.206-.208h1.974c.165 0 .206.042.206.208l.123.581v4.444c0 .456.206.664.658.664.124 0 .206.083.206.25zm5.553.166c.082.041.124.083.124.207v.79c0 .165-.083.207-.206.207h-1.687c-.123 0-.246-.083-.329-.25l-.082-.124c-.37.332-.781.498-1.193.498-.452 0-.822-.124-1.11-.415-.288-.29-.453-.623-.453-1.038 0-.914.7-1.869 2.715-1.37v-.291c0-.374-.206-.748-.864-.748h-.205l-.124.416a.225.225 0 01-.205.124h-.782c-.165 0-.206-.083-.206-.207v-1.163c0-.125.041-.208.124-.25.576-.207 1.151-.331 1.686-.331 1.399 0 2.18.706 2.18 1.578v2.159l.617.208zm-2.591.041c.123-.041.247-.083.37-.166v-.25c-.74-.331-.987-.082-.987.167 0 .25.288.332.617.25zm9.419-.041c.083.042.124.083.124.208v.789c0 .166-.083.207-.206.207h-2.098c-.164 0-.205-.083-.205-.207v-2.45c0-.54-.247-.83-.782-.83a1.09 1.09 0 00-.658.248v1.869l.576.166c.082.042.123.083.123.208v.789c0 .166-.082.207-.205.207h-2.797c-.165 0-.206-.083-.206-.207v-.79c0-.124.041-.207.123-.207l.576-.166V33.22l-.576-.166c-.082-.042-.123-.083-.123-.208v-.789c0-.166.082-.207.206-.207h1.768c.124 0 .206.083.247.249l.041.207c.494-.415 1.029-.622 1.646-.622.493 0 .946.166 1.316.456.37.333.534.748.534 1.288v1.993l.576.166zm4.567-3.447c.041.042.082.084.082.125v1.37c0 .166-.082.208-.206.208h-.781c-.124 0-.206-.041-.206-.125l-.123-.415c-.083-.041-.124-.041-.206-.041-.576 0-1.028.456-1.028 1.038 0 .581.493 1.038 1.069 1.038.165 0 .411-.042.617-.125.165-.041.247-.041.288.042l.535.913c.082.125.082.25 0 .291-.453.332-.946.457-1.563.457-.741 0-1.358-.25-1.892-.79-.535-.497-.782-1.12-.782-1.868 0-.747.247-1.37.782-1.868.534-.499 1.151-.79 1.892-.79.534.084 1.069.25 1.522.54zm4.771.249c.452.457.699 1.039.74 1.703v.374c-.041.166-.082.208-.246.208h-3.003c.041.415.37.747.946.747.247 0 .617-.083 1.069-.25.124-.04.247 0 .288.125l.453.956c.041.124.041.207-.124.29a3.339 3.339 0 01-1.645.415c-.781 0-1.398-.249-1.933-.747-.494-.498-.74-1.121-.74-1.869 0-.747.246-1.37.699-1.868.493-.499 1.069-.79 1.81-.79.699 0 1.275.208 1.686.707zm-.864 1.33c-.082-.831-1.398-.831-1.481 0h1.481zm8.103 1.868c.082.042.124.083.124.208v.789c0 .166-.083.208-.206.208h-1.769c-.123 0-.205-.083-.247-.25l-.041-.083a4.8 4.8 0 01-1.028.416 2.194 2.194 0 01-1.933-.582c-.535-.54-.823-1.204-.782-1.993.041-.706.247-1.329.741-1.827.493-.498 1.069-.748 1.768-.706.329 0 .658.083.987.208v-1.33l-.575-.165c-.083-.042-.124-.083-.124-.208v-.789c0-.166.083-.208.206-.208h1.974c.165 0 .206.042.206.208l.123.54v5.357l.576.207zm-2.386-.415v-1.785a1.396 1.396 0 00-.658-.167c-.617 0-1.11.499-1.11 1.08 0 .581.493 1.038 1.069 1.038.206.042.453-.041.699-.166zM15.836 15.199c0 1.578-.535 2.865-1.645 3.945-1.07 1.08-2.345 1.62-3.908 1.62H.576c-.411 0-.576-.209-.576-.582v-2.035c0-.332.123-.498.37-.581l1.81-.665V4.817L.37 4.153C.123 4.07 0 3.862 0 3.57V1.536c0-.415.206-.58.576-.58h9.501c1.358 0 2.55.497 3.497 1.453.987.996 1.44 2.159 1.44 3.53 0 1.743-.864 3.321-2.304 4.235 1.892.955 3.126 2.865 3.126 5.025zM7.239 5.19v2.782h1.81c.658 0 1.234-.706 1.234-1.37 0-.665-.576-1.37-1.234-1.37H7.24V5.19zm1.687 11.046c1.028 0 1.85-.83 1.85-1.869a1.852 1.852 0 00-1.85-1.869H7.239v3.738h1.687zM19.456 3.53C21.43 1.535 23.898.497 26.736.497s5.265 1.038 7.28 3.031c1.975 1.994 3.003 4.485 3.003 7.35 0 2.866-1.028 5.316-3.044 7.35-1.974 1.994-4.4 3.032-7.239 3.032-2.838 0-5.265-1.038-7.28-3.031-1.975-2.035-3.003-4.485-3.003-7.35 0-2.866.987-5.316 3.003-7.35zm7.24 1.66c-1.523 0-2.798.54-3.744 1.662-.987 1.12-1.44 2.45-1.44 4.028 0 1.578.494 2.906 1.44 4.028.987 1.12 2.262 1.66 3.743 1.66 1.522 0 2.756-.54 3.743-1.66.987-1.121 1.48-2.45 1.48-4.028 0-1.578-.493-2.907-1.48-4.028-.987-1.122-2.221-1.661-3.743-1.661zM63.18.955c.412 0 .576.208.576.581v2.035c0 .333-.123.54-.37.582l-.946.207-4.32 15.863c-.122.457-.287.582-.74.582H55.2c-.452 0-.534-.125-.74-.582l-4.03-10.215-4.032 10.215c-.206.457-.288.582-.74.582h-2.14c-.493 0-.575-.083-.74-.582l-4.36-15.738-1.192-.29c-.247-.042-.37-.25-.37-.582V1.536c0-.415.205-.58.575-.58h6.623c.411 0 .575.207.575.58v2.035c0 .333-.123.54-.37.582l-1.028.207 1.686 6.478 3.785-9.385c.205-.498.288-.58.74-.58h1.85c.453 0 .536.082.741.58l3.826 9.385 1.645-6.436-1.193-.29c-.247-.042-.37-.25-.37-.582V1.536c0-.415.206-.58.576-.58h2.18v.04c.04-.04.123-.04.205-.04h4.278zm17.151 13.372c.412 0 .576.207.576.58v5.275c0 .415-.205.581-.576.581H65.976c-.411 0-.576-.208-.576-.581v-2.035c0-.332.124-.498.37-.581l1.81-.665V4.817l-1.81-.664c-.246-.083-.37-.291-.37-.582V1.536c0-.415.206-.58.576-.58h8.062c.412 0 .576.207.576.58v2.035c0 .332-.123.499-.37.582l-1.645.581v11.794h4.483l.658-1.828c.082-.249.288-.373.576-.373h2.015zM114.676.955c.412 0 .576.208.576.581v2.035c0 .333-.123.54-.37.582l-.946.207-4.319 15.863c-.123.457-.288.582-.74.582h-2.18c-.453 0-.535-.125-.741-.582l-4.031-10.215-4.03 10.215c-.206.457-.289.582-.741.582h-2.139c-.494 0-.576-.083-.74-.582l-4.36-15.738-1.193-.29c-.247-.042-.37-.25-.37-.582V1.536c0-.415.205-.58.575-.58h6.664c.411 0 .576.207.576.58v2.035c0 .333-.124.54-.37.582l-1.029.207 1.687 6.478 3.784-9.385c.205-.498.288-.58.74-.58h1.851c.453 0 .535.082.741.58l3.825 9.385 1.645-6.436-1.193-.29c-.247-.042-.37-.25-.37-.582V1.536c0-.415.206-.58.576-.58h2.18v.04c.041-.04.123-.04.206-.04h4.236zm3.538 2.575c1.974-1.994 4.442-3.032 7.28-3.032s5.265 1.038 7.28 3.031c1.975 1.994 3.003 4.485 3.003 7.35 0 2.866-1.028 5.316-3.044 7.35-1.974 1.994-4.401 3.032-7.239 3.032s-5.265-1.038-7.28-3.031c-1.975-2.035-3.003-4.485-3.003-7.35 0-2.866.987-5.316 3.003-7.35zm7.239 1.66c-1.522 0-2.797.54-3.743 1.662-.987 1.12-1.44 2.45-1.44 4.028 0 1.578.494 2.906 1.44 4.028.987 1.12 2.262 1.66 3.743 1.66 1.481 0 2.756-.54 3.743-1.66.987-1.121 1.481-2.45 1.481-4.028 0-1.578-.494-2.907-1.481-4.028-.987-1.122-2.221-1.661-3.743-1.661zM161.938.955c.411 0 .576.208.576.581v2.035c0 .333-.123.54-.37.582l-.946.207-4.36 15.863c-.124.457-.288.582-.741.582h-2.18c-.452 0-.534-.125-.74-.582l-4.031-10.215-4.031 10.215c-.206.457-.288.582-.74.582h-2.139c-.494 0-.576-.083-.741-.582l-4.36-15.738-1.193-.29c-.246-.042-.37-.25-.37-.582V1.536c0-.415.206-.58.576-.58h6.622c.412 0 .576.207.576.58v2.035c0 .333-.123.54-.37.582l-1.028.207 1.686 6.478 3.784-9.385c.206-.498.288-.58.741-.58h1.851c.452 0 .534.082.74.58l3.825 9.385 1.646-6.436-1.193-.29c-.247-.042-.37-.25-.37-.582V1.536c0-.415.205-.58.576-.58h2.18v.04c.041-.04.123-.04.205-.04h4.319zm4.402-.623h.658V1.87h.329V.332h.658V0h-1.645v.332zM169.835 0h-.329l-.534 1.37-.535-1.37h-.329l-.124 1.869h.329l.083-1.163.493 1.163h.206l.494-1.163.082 1.163H170L169.835 0z" fill="#fff"/></svg>