<svg width="561" height="296" viewBox="0 0 561 296" fill="none" xmlns="http://www.w3.org/2000/svg">
<path d="M539.547 171.077H543.174V179.76H545.098V171.077H548.691V169.342H539.547V171.077Z" fill="#1E1C1A"/>
<path d="M559.293 169.342H557.439L554.385 176.964L551.34 169.342H549.469L548.721 179.76H550.609L551.068 173.21L553.747 179.76H555.032L557.694 173.21L558.162 179.76H560.042L559.293 169.342Z" fill="#1E1C1A"/>
<path fill-rule="evenodd" clip-rule="evenodd" d="M332.496 117.309C330.705 117.175 328.928 117.057 327.175 116.905H327.168C325.853 116.593 324.492 116.479 323.277 116.46C322.423 116.333 321.578 116.193 320.739 116.012C316.787 115.154 314.058 115.581 310.513 113.551C308.06 112.138 305.968 110.139 304.892 107.488C304.054 105.454 302.439 98.1623 302.408 96.0054C302.37 96.0054 302.339 96.0154 302.301 96.0154C302.293 95.8009 302.27 95.5879 302.239 95.3741C302.047 93.5672 301.647 91.8279 301.07 90.2008C301.07 90.1908 301.063 90.1685 301.063 90.1555C299.502 83.382 298.579 80.5132 293.381 72.9401L284.915 60.7235C282.77 57.5955 280.84 55.1457 278.856 53.0012C276.973 50.9805 275.035 49.2289 272.805 47.4458C270.913 45.9318 268.807 44.3855 266.346 42.6139L260.179 34.2695L260.164 34.2472L258.518 30.1827C255.581 22.7088 251.26 10.8082 249.084 6.39461C249.068 6.3823 249.068 6.37154 249.061 6.36078C248.745 5.71642 248.469 5.242 248.253 4.95981C244.04 -0.59565 226.931 -0.685608 223.563 6.15779C223.348 6.57455 223.202 7.01589 223.102 7.48955L222.648 8.99125C222.195 10.6291 220.118 12.5475 218.619 13.3726L217.827 13.8232L217.758 13.8585L212.106 16.9834L209.63 18.3506C208.662 18.8803 208.254 20.0545 208.685 21.0948L210.061 23.2278L212.545 27.1117C212.645 27.3493 212.76 27.5738 212.883 27.8006C212.975 27.959 213.068 28.0928 213.152 28.2404C213.706 29.0878 214.428 29.7867 215.267 30.3065C216.52 31.1093 218.035 31.5045 219.588 31.3807C219.796 31.4253 219.995 31.4484 220.203 31.4707C220.518 31.5145 220.818 31.5245 221.126 31.5245C221.918 31.5245 222.694 31.4138 223.456 31.2431C227.762 30.2404 229.538 29.4146 231.006 31.6967C232.959 33.6498 229.176 37.7804 229.107 43.2221C229.107 44.5885 229.192 45.8426 229.322 46.9813C229.469 48.2693 229.676 49.3965 229.891 50.3777C229.884 50.38 229.884 50.3846 229.884 50.3861C229.576 51.4703 229.369 52.5652 229.238 53.6725C228.853 56.8674 229.161 60.1068 230.107 63.1671C230.622 64.8495 231.352 66.4666 232.244 68.0152C233.021 75.7267 233.867 87.7172 234.705 90.4177C235.758 93.7809 236.858 96.2415 236.896 99.8054C236.942 104.6 237.419 108.906 236.373 113.503C236.143 114.51 235.966 114.33 235.02 114.806C233.029 115.8 231.845 116.847 231.837 118.234C231.829 119.294 232.66 121.301 233.867 121.381C237.235 121.605 238.65 121.569 241.641 121.56C242.917 121.557 243.67 121.366 244.616 120.42C246.508 118.528 246.108 114.88 246.154 112.343C246.216 108.574 246.677 104.65 247.046 100.851C247.315 97.9946 247.807 89.6226 248.292 85.0483C251.806 87.069 258.503 90.8852 258.503 90.8852C259.157 91.1674 259.818 91.4265 260.479 91.6749C260.548 91.7079 260.602 91.7318 260.671 91.7533C259.864 93.8086 259.433 96.017 259.433 98.3076C259.433 105.578 263.778 111.619 270.306 115.208L270.044 115.244L262.363 114.725C255.673 114.442 252.605 120.855 257.157 121.577H260.764H296.172C296.857 121.577 297.51 121.464 298.118 121.264L298.126 121.268C298.156 121.254 298.202 121.244 298.233 121.221C298.379 121.175 298.525 121.12 298.664 121.051C298.825 120.995 298.979 120.917 299.14 120.827C300.417 120.183 301.34 119.178 301.986 117.891C301.986 117.89 301.986 117.887 301.986 117.884V117.885C306.73 121.127 312.604 122.186 318.248 122.446C328.213 122.898 338.125 123.191 348.082 122.762C349.082 122.718 350.081 122.672 351.089 122.617C345.237 118.586 338.794 117.784 332.496 117.309Z" fill="#1E1C1A"/>
<path d="M29.1729 218.882C32.4715 218.882 35.2242 216.13 35.2242 212.828C35.2242 209.526 32.4715 206.775 29.1729 206.775H23.6674V218.882H29.1729ZM23.6674 183.111V192.1H29.6265C31.8333 192.1 33.6633 189.807 33.6633 187.606C33.6633 185.405 31.8333 183.111 29.6265 183.111H23.6674ZM51.733 215.488C51.733 220.532 49.9875 224.751 46.412 228.329C42.9288 231.813 38.7075 233.556 33.6633 233.556H1.92996C0.645863 233.556 0 232.913 0 231.629V225.027C0 224.017 0.369052 223.376 1.19949 223.101L7.15862 220.992V181.92L1.19949 179.81C0.369052 179.535 0 178.892 0 177.884V171.28C0 169.996 0.645863 169.355 1.92996 169.355H33.0251C37.5156 169.355 41.3679 170.914 44.4897 174.123C47.6961 177.333 49.257 181.094 49.257 185.588C49.257 191.183 46.412 196.318 41.737 199.346C47.6961 202.281 51.733 208.517 51.733 215.488Z" fill="#1E1C1A"/>
<path d="M87.3251 183.108C82.3733 183.108 78.2442 184.852 75.0378 188.429C71.8237 192.005 70.2705 196.315 70.2705 201.453C70.2705 206.588 71.8237 210.899 75.0378 214.476C78.2442 218.054 82.3733 219.795 87.3251 219.795C92.277 219.795 96.3138 218.054 99.5279 214.476C102.734 210.899 104.387 206.588 104.387 201.453C104.387 196.315 102.734 192.005 99.5279 188.429C96.3138 184.852 92.277 183.108 87.3251 183.108ZM63.5731 177.698C70.0859 171.185 78.0596 167.884 87.3251 167.884C96.5906 167.884 104.572 171.185 111.085 177.698C117.598 184.21 120.896 192.189 120.896 201.453C120.896 210.717 117.597 218.603 110.992 225.207C104.48 231.719 96.5906 235.021 87.3251 235.021C78.0596 235.021 70.1781 231.719 63.5731 225.207C57.0604 218.603 53.7617 210.717 53.7617 201.453C53.7617 192.189 57.0604 184.21 63.5731 177.698Z" fill="#1E1C1A"/>
<path d="M206.536 169.355C207.82 169.355 208.458 169.996 208.458 171.28V177.884C208.458 178.985 208.097 179.627 207.266 179.81L204.245 180.452L189.935 231.722C189.474 233.189 189.02 233.556 187.551 233.556H180.393C178.932 233.556 178.655 233.189 178.009 231.722L164.807 198.612L151.597 231.722C150.958 233.189 150.682 233.556 149.213 233.556H142.239C140.686 233.556 140.317 233.281 139.855 231.722L125.645 180.727L121.786 179.81C120.963 179.627 120.594 178.985 120.594 177.884V171.28C120.594 169.996 121.24 169.355 122.524 169.355H144.169C145.453 169.355 146.091 169.996 146.091 171.28V177.884C146.091 178.985 145.73 179.627 144.899 179.81L141.508 180.543L147.014 201.547L159.393 171.188C160.032 169.63 160.308 169.355 161.777 169.355H167.829C169.297 169.355 169.574 169.63 170.212 171.188L182.692 201.547L188.097 180.727L184.16 179.81C183.33 179.627 182.961 178.985 182.961 177.884V171.28C182.961 169.996 183.607 169.355 184.891 169.355H206.536Z" fill="#1E1C1A"/>
<path d="M262.568 212.644C263.852 212.644 264.49 213.287 264.49 214.571V231.629C264.49 232.913 263.852 233.556 262.568 233.556H215.61C214.326 233.556 213.68 232.913 213.68 231.629V225.027C213.68 224.017 214.049 223.376 214.872 223.101L220.838 220.992V181.92L214.872 179.81C214.049 179.535 213.68 178.892 213.68 177.884V171.28C213.68 169.996 214.326 169.355 215.61 169.355H241.93C243.214 169.355 243.852 169.996 243.852 171.28V177.884C243.852 178.892 243.491 179.535 242.66 179.81L237.347 181.643V219.798H251.926L254.04 213.837C254.309 213.012 254.955 212.644 255.963 212.644H262.568Z" fill="#1E1C1A"/>
<path d="M374.915 169.355C376.199 169.355 376.837 169.996 376.837 171.28V177.884C376.837 178.985 376.468 179.627 375.645 179.81L372.616 180.452L358.314 231.722C357.853 233.189 357.391 233.556 355.923 233.556H348.772C347.303 233.556 347.026 233.189 346.388 231.722L333.178 198.612L319.976 231.722C319.33 233.189 319.053 233.556 317.584 233.556H310.618C309.057 233.556 308.695 233.281 308.234 231.722L294.017 180.727L290.164 179.81C289.342 179.627 288.973 178.985 288.973 177.884V171.28C288.973 169.996 289.611 169.355 290.903 169.355H312.548C313.824 169.355 314.47 169.996 314.47 171.28V177.884C314.47 178.985 314.101 179.627 313.278 179.81L309.887 180.543L315.385 201.547L327.765 171.188C328.411 169.63 328.687 169.355 330.156 169.355H336.207C337.676 169.355 337.953 169.63 338.591 171.188L351.063 201.547L356.476 180.727L352.532 179.81C351.709 179.627 351.34 178.985 351.34 177.884V171.28C351.34 169.996 351.986 169.355 353.27 169.355H374.915Z" fill="#1E1C1A"/>
<path d="M410.154 183.109C405.198 183.109 401.068 184.852 397.866 188.429C394.648 192.005 393.089 196.316 393.089 201.453C393.089 206.589 394.648 210.899 397.866 214.476C401.068 218.054 405.198 219.796 410.154 219.796C415.101 219.796 419.138 218.054 422.348 214.476C425.558 210.899 427.21 206.589 427.21 201.453C427.21 196.316 425.558 192.005 422.348 188.429C419.138 184.852 415.101 183.109 410.154 183.109ZM386.388 177.698C392.902 171.185 400.881 167.884 410.154 167.884C419.418 167.884 427.389 171.185 433.903 177.698C440.417 184.21 443.713 192.189 443.713 201.453C443.713 210.717 440.417 218.604 433.81 225.208C427.296 231.719 419.418 235.021 410.154 235.021C400.881 235.021 392.996 231.719 386.388 225.208C379.882 218.604 376.578 210.717 376.578 201.453C376.578 192.189 379.882 184.21 386.388 177.698Z" fill="#1E1C1A"/>
<path d="M529.354 169.352C530.637 169.352 531.278 169.992 531.278 171.277V177.881C531.278 178.981 530.912 179.623 530.087 179.808L527.055 180.449L512.754 231.719C512.296 233.186 511.829 233.553 510.363 233.553H503.208C501.742 233.553 501.468 233.186 500.826 231.719L487.616 198.609L474.414 231.719C473.773 233.186 473.498 233.553 472.032 233.553H465.06C463.494 233.553 463.128 233.278 462.678 231.719L448.46 180.724L444.603 179.808C443.779 179.623 443.412 178.981 443.412 177.881V171.277C443.412 169.992 444.062 169.352 445.345 169.352H466.993C468.275 169.352 468.908 169.992 468.908 171.277V177.881C468.908 178.981 468.542 179.623 467.717 179.808L464.327 180.54L469.824 201.544L482.21 171.184C482.852 169.627 483.126 169.352 484.601 169.352H490.648C492.114 169.352 492.397 169.627 493.03 171.184L505.507 201.544L510.921 180.724L506.973 179.808C506.149 179.623 505.782 178.981 505.782 177.881V171.277C505.782 169.992 506.424 169.352 507.715 169.352H529.354Z" fill="#1E1C1A"/>
<path d="M93.3693 265.248V267.767C93.3693 268.152 93.231 268.397 92.9157 268.502L90.7089 269.271V288.27C90.7089 288.794 90.5013 289.004 89.9784 289.004H87.2795C86.8951 289.004 86.7951 288.759 86.3337 288.27L75.7688 276.689V284.246L77.9756 285.016C78.2909 285.121 78.4292 285.365 78.4292 285.751V288.27C78.4292 288.794 78.1832 289.004 77.6987 289.004H67.9334C67.4413 289.004 67.1953 288.794 67.1953 288.27V285.751C67.1953 285.365 67.3414 285.121 67.6567 285.016L69.825 284.246V269.271L67.6567 268.502C67.3414 268.397 67.1953 268.152 67.1953 267.767V265.248C67.1953 264.723 67.4413 264.513 67.9334 264.513H73.2544C73.6389 264.513 73.7388 264.758 74.2002 265.248L84.7652 277.179V269.271L82.5583 268.502C82.2431 268.397 82.1046 268.152 82.1046 267.767V265.248C82.1046 264.723 82.3507 264.513 82.8351 264.513H92.6312C93.1233 264.513 93.3693 264.723 93.3693 265.248Z" fill="#1E1C1A"/>
<path d="M100.837 285.227C101.291 285.122 101.676 284.912 102.06 284.633V283.863C99.538 282.778 98.8075 283.652 98.8075 284.423C98.8075 285.158 99.7841 285.508 100.837 285.227ZM109.757 285.752V288.271C109.757 288.795 109.511 289.005 109.019 289.005H103.49C102.967 289.005 102.621 288.691 102.375 288.201L102.168 287.781C101.114 288.691 99.8225 289.391 98.277 289.391C95.4474 289.391 93.1406 287.431 93.1406 284.633C93.1406 281.798 95.4781 278.37 102.06 280.224V279.279C102.06 278.439 101.606 276.83 99.192 276.83C98.9767 276.83 98.7691 276.83 98.5615 276.865L98.1386 278.23C98.0387 278.544 97.7926 278.685 97.4081 278.685H94.886C94.3631 278.685 94.1555 278.439 94.1555 277.949L94.1863 274.206C94.1863 273.786 94.2248 273.542 94.6092 273.402C96.3547 272.771 98.4231 272.351 100.207 272.351C105.105 272.351 107.373 274.836 107.373 277.495V284.527L109.303 285.017C109.619 285.088 109.757 285.367 109.757 285.752Z" fill="#1E1C1A"/>
<path d="M124.247 288.511C122.532 289.175 120.602 289.56 118.926 289.56C114.274 289.56 112.875 286.725 112.875 284.066V277.593H111.16C110.637 277.593 110.422 277.384 110.422 276.859V273.64C110.422 273.115 110.637 272.906 111.16 272.906H112.875V269.267C112.875 268.742 113.082 268.533 113.605 268.533H118.088C118.611 268.533 118.819 268.742 118.819 269.267V272.906H122.286C122.809 272.906 123.017 273.115 123.017 273.64V276.859C123.017 277.384 122.809 277.593 122.286 277.593H118.819V282.038C118.819 282.878 118.788 284.312 120.779 284.242C121.302 284.207 121.902 284.066 122.532 283.857C123.017 283.682 123.301 283.752 123.47 284.242L124.632 287.566C124.801 288.056 124.662 288.335 124.247 288.511Z" fill="#1E1C1A"/>
<path d="M146.347 285.746V288.265C146.347 288.79 146.101 289 145.616 289H139.842C139.319 289 139.142 288.72 139.034 288.196L138.896 287.53C137.358 288.825 135.328 289.56 133.475 289.56C130.361 289.56 127.354 287.53 127.354 283.822V277.384L125.424 276.895C125.109 276.824 124.971 276.545 124.971 276.16V273.64C124.971 273.115 125.217 272.906 125.709 272.906H132.214C132.737 272.906 132.914 273.115 132.952 273.64L133.298 278.119V281.618C133.298 283.402 134.244 284.312 135.605 284.312C136.451 284.312 137.22 283.962 138.019 283.437V277.384L136.097 276.895C135.782 276.824 135.643 276.545 135.643 276.16V273.64C135.643 273.115 135.889 272.906 136.374 272.906H142.887C143.409 272.906 143.586 273.115 143.617 273.64L143.971 278.119V284.522L145.893 285.011C146.208 285.082 146.347 285.361 146.347 285.746Z" fill="#1E1C1A"/>
<path d="M164.077 273.68V278.578C164.077 279.068 163.869 279.313 163.346 279.313H160.824C160.44 279.313 160.194 279.173 160.094 278.858L159.709 277.598C159.256 277.633 158.794 277.773 158.341 277.948C157.572 278.228 156.911 278.684 156.457 279.103V284.456L159.74 285.016C160.055 285.086 160.194 285.365 160.194 285.751V288.27C160.194 288.794 159.955 289.004 159.463 289.004H148.898C148.406 289.004 148.16 288.794 148.16 288.27V285.751C148.16 285.365 148.299 285.086 148.614 285.016L150.505 284.526V277.389L148.614 276.899C148.299 276.828 148.16 276.549 148.16 276.164V273.645C148.16 273.12 148.406 272.91 148.898 272.91H154.634C155.157 272.91 155.334 273.19 155.442 273.716L155.649 274.694C155.649 274.694 157.01 273.33 158.902 272.735C160.724 272.175 162.47 272.525 163.454 272.91C163.908 273.085 164.077 273.225 164.077 273.68Z" fill="#1E1C1A"/>
<path d="M172.482 285.227C172.936 285.122 173.32 284.912 173.705 284.633V283.863C171.19 282.778 170.452 283.652 170.452 284.423C170.452 285.158 171.429 285.508 172.482 285.227ZM181.402 285.752V288.271C181.402 288.795 181.155 289.005 180.671 289.005H175.143C174.62 289.005 174.266 288.691 174.02 288.201L173.812 287.781C172.759 288.691 171.467 289.391 169.929 289.391C167.092 289.391 164.785 287.431 164.785 284.633C164.785 281.798 167.13 278.37 173.705 280.224V279.279C173.705 278.439 173.251 276.83 170.837 276.83C170.629 276.83 170.421 276.83 170.206 276.865L169.791 278.23C169.683 278.544 169.437 278.685 169.053 278.685H166.531C166.008 278.685 165.8 278.439 165.8 277.949L165.831 274.206C165.831 273.786 165.869 273.542 166.254 273.402C168.007 272.771 170.068 272.351 171.851 272.351C176.75 272.351 179.026 274.836 179.026 277.495V284.527L180.948 285.017C181.263 285.088 181.402 285.367 181.402 285.752Z" fill="#1E1C1A"/>
<path d="M191.851 284.456V288.27C191.851 288.794 191.643 289.004 191.12 289.004C185.377 289.004 183.07 286.87 183.07 281.587V268.991L181.178 268.502C180.863 268.432 180.725 268.152 180.725 267.767V265.248C180.725 264.723 180.971 264.513 181.463 264.513H187.937C188.46 264.513 188.56 264.723 188.668 265.248L189.021 267.102V281.587C189.021 282.916 189.575 283.721 191.12 283.721C191.643 283.721 191.851 283.931 191.851 284.456Z" fill="#1E1C1A"/>
<path d="M202.086 281.093C202.086 280.603 202.294 280.358 202.824 280.358H205.338C205.723 280.358 205.831 280.533 206.007 281.023L206.776 283.192C207.684 283.892 208.422 284.312 209.852 284.312C211.29 284.312 212.651 283.752 212.866 282.422C213.458 278.574 202.44 278.504 202.37 270.982C202.332 267.063 205.515 263.949 210.836 263.949C212.966 263.949 215.557 264.474 217.764 265.874C218.149 266.119 218.287 266.398 218.287 266.713V271.611C218.287 272.101 218.079 272.346 217.549 272.346H215.035C214.65 272.346 214.504 272.171 214.366 271.681L213.804 270.002C212.935 269.512 211.851 269.197 210.905 269.197C209.083 269.197 208.283 270.353 208.491 271.262C209.152 274.165 219.125 275.11 219.125 282.108C219.125 286.725 214.819 289.56 210.098 289.56C206.884 289.56 204.47 288.44 202.54 286.761C202.263 286.516 202.124 286.341 202.086 286.131V281.093Z" fill="#1E1C1A"/>
<path d="M242.021 285.746V288.265C242.021 288.79 241.774 289 241.282 289H235.508C234.985 289 234.808 288.72 234.708 288.196L234.57 287.53C233.024 288.825 230.994 289.56 229.141 289.56C226.027 289.56 223.02 287.53 223.02 283.822V277.384L221.098 276.895C220.783 276.824 220.645 276.545 220.645 276.16V273.64C220.645 273.115 220.883 272.906 221.375 272.906H227.888C228.411 272.906 228.58 273.115 228.618 273.64L228.972 278.119V281.618C228.972 283.402 229.91 284.312 231.279 284.312C232.117 284.312 232.886 283.962 233.693 283.437V277.384L231.771 276.895C231.455 276.824 231.309 276.545 231.309 276.16V273.64C231.309 273.115 231.556 272.906 232.048 272.906H238.553C239.083 272.906 239.252 273.115 239.291 273.64L239.637 278.119V284.522L241.567 285.011C241.882 285.082 242.021 285.361 242.021 285.746Z" fill="#1E1C1A"/>
<path d="M257.949 280.955C257.949 279.066 256.411 277.596 254.381 277.596C253.443 277.596 252.635 277.912 252.113 278.156V283.964C252.428 284.104 253.297 284.488 254.312 284.488C256.411 284.488 257.949 282.845 257.949 280.955ZM263.554 281.165C263.408 285.749 259.909 289.527 255.365 289.387C253.858 289.352 252.666 288.897 252.113 288.652V291.452L255.05 292.011C255.365 292.081 255.504 292.361 255.504 292.746V295.265C255.504 295.79 255.258 296 254.765 296H244.516C244.031 296 243.785 295.79 243.785 295.265V292.746C243.785 292.361 243.924 292.081 244.239 292.011L246.161 291.522V277.387L244.239 276.897C243.924 276.826 243.785 276.547 243.785 276.162V273.643C243.785 273.118 244.031 272.908 244.516 272.908H250.29C250.813 272.908 250.99 273.188 251.098 273.714L251.167 274.028C252.251 273.433 253.335 272.943 254.596 272.733C259.494 271.928 263.723 275.917 263.554 281.165Z" fill="#1E1C1A"/>
<path d="M271.444 278.924H276.342C276.165 277.664 275.081 276.895 273.897 276.895C272.705 276.895 271.621 277.664 271.444 278.924ZM281.693 280.149C281.732 280.708 281.732 280.883 281.663 281.373C281.594 281.897 281.417 282.108 280.894 282.108H271.028C271.128 283.472 272.213 284.486 274.104 284.486C275.327 284.486 276.588 284.066 277.564 283.717C278.026 283.542 278.341 283.717 278.51 284.102L279.948 287.216C280.125 287.6 279.948 287.95 279.564 288.161C278.51 288.72 276.657 289.56 274.212 289.56C268.999 289.56 265.5 285.711 265.5 280.953C265.5 276.195 268.999 272.346 273.789 272.346C278.303 272.346 281.417 275.775 281.693 280.149Z" fill="#1E1C1A"/>
<path d="M298.798 273.68V278.578C298.798 279.068 298.59 279.313 298.067 279.313H295.545C295.161 279.313 294.914 279.173 294.815 278.858L294.43 277.598C293.969 277.633 293.515 277.773 293.061 277.948C292.292 278.228 291.631 278.684 291.17 279.103V284.456L294.461 285.016C294.776 285.086 294.914 285.365 294.914 285.751V288.27C294.914 288.794 294.668 289.004 294.184 289.004H283.619C283.127 289.004 282.881 288.794 282.881 288.27V285.751C282.881 285.365 283.019 285.086 283.335 285.016L285.226 284.526V277.389L283.335 276.899C283.019 276.828 282.881 276.549 282.881 276.164V273.645C282.881 273.12 283.127 272.91 283.619 272.91H289.355C289.878 272.91 290.055 273.19 290.155 273.716L290.37 274.694C290.37 274.694 291.731 273.33 293.623 272.735C295.445 272.175 297.19 272.525 298.167 272.91C298.628 273.085 298.798 273.225 298.798 273.68Z" fill="#1E1C1A"/>
<path d="M317.468 275.499H319.914C321.559 275.499 322.643 274.415 322.643 272.805C322.643 271.196 321.559 270.111 319.914 270.111H317.468V275.499ZM317.468 281.097V284.14L321.144 285.016C321.459 285.086 321.598 285.365 321.598 285.751V288.27C321.598 288.794 321.352 289.004 320.859 289.004H309.18C308.687 289.004 308.441 288.794 308.441 288.27V285.751C308.441 285.365 308.58 285.121 308.895 285.016L311.171 284.211V269.307L308.895 268.502C308.58 268.397 308.441 268.152 308.441 267.767V265.248C308.441 264.723 308.687 264.513 309.18 264.513H320.652C325.619 264.513 328.941 267.837 328.941 272.805C328.941 277.773 325.619 281.097 320.652 281.097H317.468Z" fill="#1E1C1A"/>
<path d="M345.542 273.68V278.578C345.542 279.068 345.334 279.313 344.803 279.313H342.289C341.905 279.313 341.659 279.173 341.551 278.858L341.166 277.598C340.713 277.633 340.259 277.773 339.805 277.948C339.037 278.228 338.368 278.684 337.914 279.103V284.456L341.205 285.016C341.52 285.086 341.659 285.365 341.659 285.751V288.27C341.659 288.794 341.413 289.004 340.92 289.004H330.355C329.871 289.004 329.625 288.794 329.625 288.27V285.751C329.625 285.365 329.763 285.086 330.079 285.016L331.97 284.526V277.389L330.079 276.899C329.763 276.828 329.625 276.549 329.625 276.164V273.645C329.625 273.12 329.871 272.91 330.355 272.91H336.099C336.622 272.91 336.791 273.19 336.899 273.716L337.107 274.694C337.107 274.694 338.475 273.33 340.367 272.735C342.181 272.175 343.935 272.525 344.911 272.91C345.365 273.085 345.542 273.225 345.542 273.68Z" fill="#1E1C1A"/>
<path d="M352.916 278.924H357.814C357.638 277.664 356.553 276.895 355.361 276.895C354.177 276.895 353.093 277.664 352.916 278.924ZM363.166 280.149C363.204 280.708 363.204 280.883 363.135 281.373C363.066 281.897 362.889 282.108 362.366 282.108H352.493C352.601 283.472 353.685 284.486 355.577 284.486C356.799 284.486 358.06 284.066 359.037 283.717C359.491 283.542 359.806 283.717 359.983 284.102L361.421 287.216C361.59 287.6 361.421 287.95 361.036 288.161C359.983 288.72 358.13 289.56 355.684 289.56C350.463 289.56 346.965 285.711 346.965 280.953C346.965 276.195 350.463 272.346 355.262 272.346C359.775 272.346 362.889 275.775 363.166 280.149Z" fill="#1E1C1A"/>
<path d="M396.408 285.751V288.27C396.408 288.794 396.162 289.004 395.67 289.004H388.811C388.288 289.004 388.081 288.794 388.081 288.27V280.292C388.081 278.508 386.927 277.598 385.559 277.598C384.72 277.598 383.951 277.948 383.359 278.473V284.526L385.282 285.016C385.597 285.086 385.735 285.365 385.735 285.751V288.27C385.735 288.794 385.489 289.004 385.005 289.004H378.146C377.616 289.004 377.408 288.794 377.408 288.27V280.292C377.408 278.508 376.462 277.598 375.101 277.598C374.263 277.598 373.494 277.948 372.687 278.473V284.526L374.609 285.016C374.924 285.086 375.063 285.365 375.063 285.751V288.27C375.063 288.794 374.817 289.004 374.332 289.004H365.128C364.636 289.004 364.39 288.794 364.39 288.27V285.751C364.39 285.365 364.536 285.086 364.852 285.016L366.735 284.526V277.389L364.813 276.899C364.498 276.828 364.359 276.549 364.359 276.164V273.645C364.359 273.12 364.605 272.91 365.09 272.91H370.864C371.387 272.91 371.564 273.19 371.672 273.716L371.81 274.38C373.348 273.085 375.378 272.35 377.231 272.35C379.092 272.35 380.907 273.085 382.098 274.45L382.168 274.38C384.059 273.085 386.051 272.35 387.904 272.35C391.018 272.35 394.024 274.38 394.024 278.088V284.526L395.954 285.016C396.27 285.086 396.408 285.365 396.408 285.751Z" fill="#1E1C1A"/>
<path d="M399.782 267.032C399.782 265.354 401.174 263.953 402.897 263.953C404.604 263.953 406.003 265.354 406.003 267.032C406.003 268.747 404.604 270.146 402.897 270.146C401.174 270.146 399.782 268.747 399.782 267.032ZM408.248 285.751V288.27C408.248 288.794 408.002 289.004 407.51 289.004H398.275C397.783 289.004 397.537 288.794 397.537 288.27V285.751C397.537 285.365 397.676 285.086 397.991 285.016L399.921 284.526V277.389L398.029 276.899C397.714 276.828 397.576 276.549 397.576 276.164V273.645C397.576 273.12 397.822 272.91 398.306 272.91H404.78C405.303 272.91 405.48 273.12 405.518 273.645L405.865 278.123V284.526L407.795 285.016C408.102 285.086 408.248 285.365 408.248 285.751Z" fill="#1E1C1A"/>
<path d="M430.273 285.753V288.272C430.273 288.796 430.027 289.006 429.533 289.006H423.766C423.234 289.006 423.065 288.726 422.965 288.202L422.826 287.537C421.284 288.832 419.256 289.567 417.398 289.567C414.291 289.567 411.277 287.537 411.277 283.829V277.391L409.349 276.901C409.033 276.831 408.895 276.551 408.895 276.166V273.647C408.895 273.122 409.141 272.913 409.627 272.913H416.142C416.666 272.913 416.843 273.122 416.874 273.647L417.221 278.126V281.625C417.221 283.409 418.169 284.318 419.534 284.318C420.366 284.318 421.145 283.969 421.947 283.444V277.391L420.027 276.901C419.711 276.831 419.572 276.551 419.572 276.166V273.647C419.572 273.122 419.819 272.913 420.297 272.913H426.812C427.336 272.913 427.513 273.122 427.544 273.647L427.899 278.126V284.528L429.818 285.018C430.134 285.089 430.273 285.368 430.273 285.753Z" fill="#1E1C1A"/>
<path d="M464.086 285.751V288.27C464.086 288.794 463.84 289.004 463.349 289.004H456.493C455.963 289.004 455.757 288.794 455.757 288.27V280.292C455.757 278.508 454.609 277.598 453.239 277.598C452.4 277.598 451.632 277.948 451.038 278.473V284.526L452.962 285.016C453.279 285.086 453.413 285.365 453.413 285.751V288.27C453.413 288.794 453.168 289.004 452.685 289.004H445.821C445.298 289.004 445.084 288.794 445.084 288.27V280.292C445.084 278.508 444.142 277.598 442.781 277.598C441.941 277.598 441.173 277.948 440.366 278.473V284.526L442.29 285.016C442.599 285.086 442.741 285.365 442.741 285.751V288.27C442.741 288.794 442.496 289.004 442.013 289.004H432.805C432.314 289.004 432.077 288.794 432.077 288.27V285.751C432.077 285.365 432.211 285.086 432.528 285.016L434.412 284.526V277.389L432.488 276.899C432.172 276.828 432.037 276.549 432.037 276.164V273.645C432.037 273.12 432.283 272.91 432.773 272.91H438.545C439.075 272.91 439.242 273.19 439.352 273.716L439.487 274.38C441.023 273.085 443.058 272.35 444.91 272.35C446.771 272.35 448.584 273.085 449.779 274.45L449.843 274.38C451.735 273.085 453.73 272.35 455.583 272.35C458.694 272.35 461.71 274.38 461.71 278.088V284.526L463.634 285.016C463.951 285.086 464.086 285.365 464.086 285.751Z" fill="#1E1C1A"/>
</svg>
