<svg width="561" height="122" fill="none" xmlns="http://www.w3.org/2000/svg"><path d="M29.166 50.995c3.306 0 6.059-2.752 6.059-6.054 0-3.302-2.753-6.054-6.06-6.054h-5.497v12.108h5.498zm-5.498-35.771v8.989h5.96c2.198 0 4.036-2.293 4.036-4.495 0-2.2-1.838-4.494-4.037-4.494h-5.96zM51.734 47.6c0 5.045-1.745 9.264-5.321 12.84-3.483 3.486-7.705 5.229-12.749 5.229H1.93C.646 65.67 0 65.027 0 63.743V57.14c0-1.01.37-1.65 1.192-1.926l5.967-2.11V14.032l-5.967-2.108C.369 11.648 0 11.005 0 9.997V3.392c0-1.284.646-1.925 1.93-1.925h31.088c4.498 0 8.35 1.56 11.465 4.768 3.214 3.21 4.775 6.972 4.775 11.466 0 5.594-2.845 10.73-7.52 13.757 5.96 2.936 9.996 9.172 9.996 16.143zm35.6-32.371c-4.952 0-9.082 1.743-12.288 5.32-3.214 3.576-4.775 7.887-4.775 13.024 0 5.136 1.56 9.447 4.775 13.024 3.206 3.578 7.336 5.32 12.287 5.32 4.952 0 8.99-1.742 12.204-5.32 3.206-3.577 4.859-7.888 4.859-13.024 0-5.137-1.653-9.448-4.86-13.024-3.214-3.577-7.25-5.32-12.203-5.32zM63.58 9.818C70.094 3.305 78.068.005 87.333.005c9.266 0 17.24 3.3 23.753 9.813 6.513 6.513 9.819 14.491 9.819 23.755s-3.306 17.151-9.911 23.756c-6.506 6.511-14.395 9.813-23.66 9.813-9.266 0-17.148-3.302-23.753-9.813-6.513-6.605-9.82-14.492-9.82-23.756s3.307-17.242 9.82-23.755zm142.958-8.351c1.284 0 1.922.641 1.922 1.925v6.605c0 1.1-.361 1.742-1.192 1.926l-3.022.641-14.31 51.271c-.461 1.468-.915 1.835-2.383 1.835h-7.159c-1.469 0-1.738-.367-2.384-1.835l-13.202-33.11-13.211 33.11c-.646 1.468-.915 1.835-2.383 1.835h-6.975c-1.561 0-1.922-.275-2.383-1.835L125.638 12.84l-3.852-.917c-.823-.184-1.192-.826-1.192-1.926V3.392c0-1.284.646-1.925 1.93-1.925h21.645c1.284 0 1.923.641 1.923 1.925v6.605c0 1.1-.362 1.742-1.192 1.926l-3.391.733 5.505 21.004 12.38-30.36c.639-1.558.915-1.833 2.384-1.833h6.052c1.468 0 1.745.275 2.383 1.833l12.48 30.36 5.406-20.82-3.945-.917c-.823-.184-1.192-.826-1.192-1.926V3.392c0-1.284.646-1.925 1.93-1.925h21.646zm56.031 43.29c1.284 0 1.922.643 1.922 1.927v17.059c0 1.284-.638 1.927-1.922 1.927h-46.967c-1.284 0-1.922-.643-1.922-1.927V57.14c0-1.01.369-1.65 1.192-1.926l5.959-2.11V14.032l-5.959-2.108c-.823-.275-1.192-.918-1.192-1.926V3.392c0-1.284.638-1.925 1.922-1.925h26.328c1.284 0 1.923.641 1.923 1.925v6.605c0 1.008-.362 1.65-1.192 1.926l-5.321 1.834V51.91h14.587l2.106-5.961c.277-.825.923-1.193 1.93-1.193h6.606zm112.348-43.29c1.284 0 1.93.641 1.93 1.925v6.605c0 1.1-.369 1.742-1.192 1.926l-3.03.641-14.31 51.271c-.453 1.468-.915 1.835-2.383 1.835h-7.151c-1.469 0-1.746-.367-2.384-1.835l-13.21-33.11-13.203 33.11c-.646 1.468-.923 1.835-2.391 1.835h-6.967c-1.561 0-1.93-.275-2.384-1.835L294.025 12.84l-3.853-.917c-.822-.184-1.192-.826-1.192-1.926V3.392c0-1.284.639-1.925 1.923-1.925h21.645c1.284 0 1.93.641 1.93 1.925v6.605c0 1.1-.369 1.742-1.192 1.926l-3.398.733 5.505 21.004 12.38-30.36c.646-1.558.923-1.833 2.392-1.833h6.051c1.469 0 1.738.275 2.384 1.833l12.472 30.36 5.413-20.82-3.944-.917c-.823-.184-1.192-.826-1.192-1.926V3.392c0-1.284.638-1.925 1.922-1.925h21.646zm35.232 13.758c-4.963 0-9.084 1.742-12.294 5.32-3.21 3.576-4.768 7.887-4.768 13.024 0 5.136 1.558 9.446 4.768 13.024 3.21 3.577 7.331 5.32 12.294 5.32 4.947 0 8.99-1.743 12.192-5.32 3.218-3.578 4.862-7.889 4.862-13.024 0-5.137-1.644-9.448-4.862-13.024-3.202-3.578-7.245-5.32-12.192-5.32zm-23.762-5.411C392.9 3.3 400.885 0 410.149 0c9.255 0 17.241 3.3 23.754 9.814 6.513 6.512 9.808 14.49 9.808 23.755 0 9.264-3.295 17.151-9.902 23.755-6.513 6.512-14.405 9.814-23.66 9.814-9.264 0-17.156-3.302-23.762-9.814-6.513-6.604-9.809-14.491-9.809-23.755s3.296-17.243 9.809-23.755zm142.961-8.341c1.282 0 1.932.641 1.932 1.926v6.604c0 1.1-.366 1.743-1.191 1.926l-3.031.641-14.3 51.272c-.466 1.467-.924 1.834-2.39 1.834h-7.154c-1.465 0-1.749-.367-2.382-1.834l-13.208-33.11-13.208 33.11c-.642 1.467-.925 1.834-2.39 1.834h-6.963c-1.565 0-1.932-.275-2.39-1.834l-14.216-50.996-3.848-.917c-.824-.183-1.199-.826-1.199-1.926V3.399c0-1.285.641-1.926 1.924-1.926h21.645c1.291 0 1.932.641 1.932 1.926v6.604c0 1.1-.367 1.743-1.191 1.926l-3.39.733 5.497 21.004 12.384-30.359c.641-1.558.916-1.834 2.39-1.834h6.046c1.474 0 1.749.276 2.39 1.834l12.468 30.36 5.413-20.82-3.948-.918c-.816-.183-1.191-.826-1.191-1.926V3.399c0-1.285.642-1.926 1.924-1.926h21.645zM137.704 97.368v2.519c0 .384-.138.63-.454.734l-2.207.771v18.998c0 .524-.207.735-.73.735h-2.691c-.385 0-.492-.245-.946-.735l-10.565-11.581v7.557l2.199.77c.315.105.454.35.454.735v2.519c0 .524-.246.735-.731.735h-9.765c-.485 0-.731-.211-.731-.735v-2.519c0-.385.138-.63.454-.735l2.168-.77v-14.974l-2.168-.771c-.316-.104-.454-.35-.454-.734v-2.519c0-.525.246-.735.731-.735h5.321c.384 0 .492.245.945.735l10.566 11.931v-7.907l-2.207-.771c-.316-.104-.454-.35-.454-.734v-2.519c0-.525.246-.735.738-.735h9.796c.485 0 .731.21.731.735zm7.516 19.975c.454-.104.839-.314 1.223-.594v-.77c-2.514-1.085-3.252-.21-3.252.56 0 .735.976 1.085 2.029.804zm8.92.525v2.519c0 .525-.246.736-.73.736h-5.529c-.531 0-.877-.316-1.123-.805l-.207-.42c-1.054.909-2.345 1.61-3.883 1.61-2.838 0-5.145-1.96-5.145-4.759 0-2.834 2.346-6.263 8.92-4.408v-.945c0-.84-.454-2.45-2.868-2.45-.208 0-.423 0-.631.035l-.415 1.365c-.107.314-.354.455-.738.455h-2.522c-.523 0-.731-.245-.731-.735l.031-3.743c0-.42.039-.665.423-.805 1.753-.631 3.814-1.051 5.598-1.051 4.898 0 7.174 2.486 7.174 5.145v7.032l1.922.489c.316.071.454.35.454.735zm14.488 2.765c-1.714.664-3.637 1.049-5.321 1.049-4.652 0-6.051-2.834-6.051-5.494v-6.472h-1.715c-.523 0-.73-.21-.73-.735v-3.219c0-.525.207-.734.73-.734h1.715v-3.639c0-.525.207-.735.738-.735h4.475c.523 0 .738.21.738.735v3.639h3.461c.522 0 .738.209.738.734v3.219c0 .525-.216.735-.738.735h-3.461v4.444c0 .839-.038 2.273 1.953 2.203.531-.034 1.123-.175 1.754-.384.492-.175.769-.105.945.384l1.154 3.324c.177.49.031.77-.385.946zm22.115-2.765v2.519c0 .525-.246.735-.738.735h-5.774c-.523 0-.7-.28-.8-.805l-.146-.665c-1.538 1.295-3.568 2.03-5.421 2.03-3.114 0-6.121-2.03-6.121-5.738v-6.438l-1.922-.49c-.316-.07-.462-.35-.462-.735v-2.519c0-.525.246-.734.739-.734h6.505c.53 0 .699.209.738.734l.346 4.478v3.5c0 1.784.946 2.693 2.314 2.693.839 0 1.608-.35 2.415-.874v-6.053l-1.93-.49c-.315-.07-.454-.35-.454-.735v-2.519c0-.525.246-.734.738-.734h6.506c.522 0 .699.209.738.734l.346 4.478v6.403l1.922.49c.315.071.461.35.461.735zm17.682-12.068v4.898c0 .49-.216.735-.739.735h-2.514c-.384 0-.63-.14-.738-.455l-.385-1.259c-.453.035-.907.174-1.361.349a5.73 5.73 0 00-1.891 1.155v5.354l3.291.559c.307.071.454.35.454.735v2.519c0 .524-.247.735-.739.735h-10.565c-.492 0-.738-.211-.738-.735v-2.519c0-.385.146-.664.461-.735l1.884-.49v-7.137l-1.884-.49c-.315-.07-.461-.35-.461-.735v-2.519c0-.525.246-.735.738-.735h5.736c.523 0 .7.28.808.805l.207.979s1.369-1.364 3.253-1.959c1.822-.56 3.568-.21 4.552.175.454.175.631.315.631.77zm8.45 11.543c.453-.104.838-.314 1.23-.594v-.77c-2.522-1.085-3.26-.21-3.26.56 0 .735.984 1.085 2.03.804zm8.927.525v2.519c0 .525-.246.736-.738.736h-5.529c-.523 0-.876-.316-1.122-.805l-.208-.42c-1.046.909-2.345 1.61-3.883 1.61-2.83 0-5.144-1.96-5.144-4.759 0-2.834 2.345-6.263 8.927-4.408v-.945c0-.84-.461-2.45-2.876-2.45-.207 0-.415 0-.623.035l-.422 1.365c-.108.314-.354.455-.739.455h-2.514c-.531 0-.738-.245-.738-.735l.038-3.743c0-.42.031-.665.415-.805 1.754-.631 3.814-1.051 5.598-1.051 4.898 0 7.174 2.486 7.174 5.145v7.032l1.923.489c.315.071.461.35.461.735zm10.385-1.291v3.813c0 .524-.207.735-.73.735-5.737 0-8.051-2.135-8.051-7.418v-12.596l-1.884-.49c-.315-.069-.454-.35-.454-.734v-2.519c0-.525.239-.735.731-.735h6.474c.523 0 .631.21.731.735l.353 1.854v14.485c0 1.33.562 2.134 2.1 2.134.523 0 .73.211.73.736zm29.366-8.226v3.359c0 .525-.207.735-.738.735h-1.499v1.785c0 4.758-3.784 7.452-8.505 7.452-4.79 0-8.504-2.764-8.504-7.452 0-2.765 1.33-4.549 3.222-5.738-1.469-1.225-2.484-3.29-2.523-5.703 0-4.34 3.291-6.719 7.136-6.719 3.852 0 6.09 2.38 6.859 3.534.284.42.384.7 0 1.05l-2.76 2.729c-.385.35-.669.35-1.085-.175-.561-.665-1.368-1.33-2.345-1.33-.946 0-1.715.63-1.715 1.75 0 1.434 1.261 2.309 2.484 2.625.523.139.738.279.738.734v3.079c0 .524-.284.63-.738.735-1.538.384-3.222 1.189-3.222 2.798 0 1.47 1.369 2.275 2.907 2.275 1.684 0 3.045-.98 3.045-2.975v-4.548c0-.525.207-.734.73-.734h5.775c.531 0 .738.209.738.734zm23.576 4.866c0-1.259-1.054-2.309-2.307-2.309h-2.099v4.618h2.099c1.253 0 2.307-1.049 2.307-2.309zm-4.406-7.907h2.268c.846 0 1.546-.874 1.546-1.714s-.7-1.715-1.546-1.715h-2.268v3.429zm10.703 8.922a6.886 6.886 0 01-6.889 6.893h-12.111c-.492 0-.731-.211-.731-.735v-2.519c0-.385.139-.63.454-.735l2.276-.805v-14.905l-2.276-.805c-.315-.104-.454-.35-.454-.734v-2.519c0-.525.239-.735.731-.735h11.864c3.43 0 6.19 2.764 6.19 6.193 0 2.204-1.153 4.129-2.868 5.249a6.843 6.843 0 013.814 6.157zm9.513 3.111c.462-.104.846-.314 1.23-.594v-.77c-2.522-1.085-3.26-.21-3.26.56 0 .735.984 1.085 2.03.804zm8.928.525v2.519c0 .525-.247.736-.739.736H307.6c-.523 0-.877-.316-1.115-.805l-.215-.42c-1.046.909-2.346 1.61-3.884 1.61-2.829 0-5.144-1.96-5.144-4.759 0-2.834 2.345-6.263 8.927-4.408v-.945c0-.84-.461-2.45-2.868-2.45-.215 0-.423 0-.63.035l-.423 1.365c-.108.314-.346.455-.738.455h-2.515c-.523 0-.738-.245-.738-.735l.039-3.743c0-.42.03-.665.415-.805 1.753-.631 3.814-1.051 5.605-1.051 4.899 0 7.167 2.486 7.167 5.145v7.032l1.93.489c.307.071.454.35.454.735zm10.392-1.291v3.813c0 .524-.215.735-.738.735-5.736 0-8.051-2.135-8.051-7.418v-12.596l-1.883-.49c-.316-.069-.454-.35-.454-.734v-2.519c0-.525.238-.735.73-.735h6.475c.523 0 .63.21.73.735l.354 1.854v14.485c0 1.33.561 2.134 2.099 2.134.523 0 .738.211.738.736zm9.737.766c.454-.104.846-.314 1.23-.594v-.77c-2.522-1.085-3.26-.21-3.26.56 0 .735.984 1.085 2.03.804zm8.927.525v2.519c0 .525-.246.736-.738.736h-5.529c-.522 0-.876-.316-1.115-.805l-.215-.42c-1.046.909-2.345 1.61-3.883 1.61-2.83 0-5.144-1.96-5.144-4.759 0-2.834 2.345-6.263 8.927-4.408v-.945c0-.84-.461-2.45-2.868-2.45-.215 0-.423 0-.63.035l-.423 1.365c-.108.314-.354.455-.739.455h-2.514c-.523 0-.738-.245-.738-.735l.038-3.743c0-.42.031-.665.416-.805 1.753-.631 3.813-1.051 5.597-1.051 4.898 0 7.175 2.486 7.175 5.145v7.032l1.922.489c.315.071.461.35.461.735zm22.508.003v2.519c0 .524-.246.735-.73.735h-6.859c-.523 0-.738-.211-.738-.735v-7.978c0-1.784-.8-2.693-2.515-2.693-.838 0-1.545.349-2.207.874v6.053l1.923.49c.315.071.453.35.453.735v2.519c0 .524-.238.735-.73.735h-9.235c-.492 0-.738-.211-.738-.735v-2.519c0-.385.138-.664.453-.735l1.93-.49v-7.137l-1.93-.49c-.315-.07-.453-.35-.453-.735v-2.519c0-.525.246-.735.738-.735h5.767c.53 0 .7.28.807.805l.139.665c1.538-1.295 3.568-2.03 5.428-2.03 3.115 0 6.121 2.03 6.121 5.738v6.438l1.922.49c.316.071.454.35.454.735zm9.413-13.404c1.884 0 3.668.595 5.105 1.54a.456.456 0 01.247.42v4.478c0 .49-.208.736-.739.736h-2.514c-.385 0-.631-.14-.738-.456l-.385-1.364a2.294 2.294 0 00-.73-.105c-1.892 0-3.43 1.469-3.43 3.359s1.538 3.358 3.568 3.358c.769 0 1.469-.21 2.03-.419.454-.176.8-.14.977.174l1.753 2.975c.238.385.315.734-.039.979-1.537 1.085-3.36 1.54-5.105 1.54-4.937 0-8.782-3.849-8.782-8.607 0-4.759 3.845-8.608 8.782-8.608zm12.908 6.578h4.898c-.176-1.259-1.261-2.029-2.452-2.029-1.192 0-2.277.77-2.446 2.029zm10.25 1.225c.031.559.031.735-.038 1.225-.069.524-.246.735-.769.735h-9.866c.108 1.364 1.192 2.378 3.076 2.378 1.23 0 2.492-.42 3.468-.77.454-.174.769 0 .946.385l1.43 3.115c.177.384 0 .734-.384.945-1.046.559-2.899 1.399-5.352 1.399-5.214 0-8.712-3.849-8.712-8.607 0-4.759 3.498-8.608 8.297-8.608 4.506 0 7.62 3.43 7.904 7.803zm13.394 3.603v-5.808c-.307-.14-1.184-.525-2.199-.525-2.099 0-3.637 1.644-3.637 3.534s1.538 3.358 3.568 3.358c.938 0 1.746-.314 2.268-.559zm8.328 1.994v2.519c0 .525-.238.735-.73.735h-5.775c-.523 0-.7-.28-.808-.805l-.069-.314c-1.084.594-2.168 1.084-3.429 1.294-4.898.805-9.127-3.184-8.951-8.432.139-4.584 3.637-8.363 8.182-8.223a8.672 8.672 0 013.252.736v-4.27l-1.883-.489c-.316-.07-.454-.35-.454-.735v-2.519c0-.525.238-.735.73-.735h6.475c.523 0 .63.21.73.735l.354 1.82v17.458l1.922.49c.316.071.454.35.454.735zM539.549 3.205h3.627v8.684h1.923V3.205h3.593V1.471h-9.143v1.734zm19.743-1.733h-1.863l-3.044 7.621-3.054-7.621h-1.862l-.748 10.417h1.888l.459-6.549 2.67 6.549h1.284l2.671-6.549.459 6.549h1.888l-.748-10.417z" fill="#1E1C1A"/></svg>