<?xml version="1.0" encoding="utf-8"?><svg viewBox="0 0 843 967" xmlns="http://www.w3.org/2000/svg" xmlns:xlink="http://www.w3.org/1999/xlink"><style>:root>svg{display:none}:root>svg:target{display:block}</style><svg fill="none" viewBox="0 0 16 42" id="arrow-down" xmlns="http://www.w3.org/2000/svg"><path d="M9 1a1 1 0 0 0-2 0h2zM7.293 41.707a1 1 0 0 0 1.414 0l6.364-6.364a1 1 0 0 0-1.414-1.414L8 39.586l-5.657-5.657A1 1 0 0 0 .93 35.343l6.364 6.364zM7 1v40h2V1H7z" fill="#17161D"/></svg><svg fill="none" viewBox="0 0 16 15" id="arrow-left-right" xmlns="http://www.w3.org/2000/svg"><path d="m8.828 12.484-1.61 1.61-6.78-6.828L7.218.484l1.61 1.61-4.125 4.125h10.453V8.39H4.766l4.062 4.093z" fill="#fff"/></svg><svg fill="none" viewBox="0 0 561 122" id="bowl-wow-natural-balanced" xmlns="http://www.w3.org/2000/svg"><path d="M29.166 50.995c3.306 0 6.059-2.752 6.059-6.054 0-3.302-2.753-6.054-6.06-6.054h-5.497v12.108h5.498zm-5.498-35.771v8.989h5.96c2.198 0 4.036-2.293 4.036-4.495 0-2.2-1.838-4.494-4.037-4.494h-5.96zM51.734 47.6c0 5.045-1.745 9.264-5.321 12.84-3.483 3.486-7.705 5.229-12.749 5.229H1.93C.646 65.67 0 65.027 0 63.743V57.14c0-1.01.37-1.65 1.192-1.926l5.967-2.11V14.032l-5.967-2.108C.369 11.648 0 11.005 0 9.997V3.392c0-1.284.646-1.925 1.93-1.925h31.088c4.498 0 8.35 1.56 11.465 4.768 3.214 3.21 4.775 6.972 4.775 11.466 0 5.594-2.845 10.73-7.52 13.757 5.96 2.936 9.996 9.172 9.996 16.143zm35.6-32.371c-4.952 0-9.082 1.743-12.288 5.32-3.214 3.576-4.775 7.887-4.775 13.024 0 5.136 1.56 9.447 4.775 13.024 3.206 3.578 7.336 5.32 12.287 5.32 4.952 0 8.99-1.742 12.204-5.32 3.206-3.577 4.859-7.888 4.859-13.024 0-5.137-1.653-9.448-4.86-13.024-3.214-3.577-7.25-5.32-12.203-5.32zM63.58 9.818C70.094 3.305 78.068.005 87.333.005c9.266 0 17.24 3.3 23.753 9.813 6.513 6.513 9.819 14.491 9.819 23.755s-3.306 17.151-9.911 23.756c-6.506 6.511-14.395 9.813-23.66 9.813-9.266 0-17.148-3.302-23.753-9.813-6.513-6.605-9.82-14.492-9.82-23.756s3.307-17.242 9.82-23.755zm142.958-8.351c1.284 0 1.922.641 1.922 1.925v6.605c0 1.1-.361 1.742-1.192 1.926l-3.022.641-14.31 51.271c-.461 1.468-.915 1.835-2.383 1.835h-7.159c-1.469 0-1.738-.367-2.384-1.835l-13.202-33.11-13.211 33.11c-.646 1.468-.915 1.835-2.383 1.835h-6.975c-1.561 0-1.922-.275-2.383-1.835L125.638 12.84l-3.852-.917c-.823-.184-1.192-.826-1.192-1.926V3.392c0-1.284.646-1.925 1.93-1.925h21.645c1.284 0 1.923.641 1.923 1.925v6.605c0 1.1-.362 1.742-1.192 1.926l-3.391.733 5.505 21.004 12.38-30.36c.639-1.558.915-1.833 2.384-1.833h6.052c1.468 0 1.745.275 2.383 1.833l12.48 30.36 5.406-20.82-3.945-.917c-.823-.184-1.192-.826-1.192-1.926V3.392c0-1.284.646-1.925 1.93-1.925h21.646zm56.031 43.29c1.284 0 1.922.643 1.922 1.927v17.059c0 1.284-.638 1.927-1.922 1.927h-46.967c-1.284 0-1.922-.643-1.922-1.927V57.14c0-1.01.369-1.65 1.192-1.926l5.959-2.11V14.032l-5.959-2.108c-.823-.275-1.192-.918-1.192-1.926V3.392c0-1.284.638-1.925 1.922-1.925h26.328c1.284 0 1.923.641 1.923 1.925v6.605c0 1.008-.362 1.65-1.192 1.926l-5.321 1.834V51.91h14.587l2.106-5.961c.277-.825.923-1.193 1.93-1.193h6.606zm112.348-43.29c1.284 0 1.93.641 1.93 1.925v6.605c0 1.1-.369 1.742-1.192 1.926l-3.03.641-14.31 51.271c-.453 1.468-.915 1.835-2.383 1.835h-7.151c-1.469 0-1.746-.367-2.384-1.835l-13.21-33.11-13.203 33.11c-.646 1.468-.923 1.835-2.391 1.835h-6.967c-1.561 0-1.93-.275-2.384-1.835L294.025 12.84l-3.853-.917c-.822-.184-1.192-.826-1.192-1.926V3.392c0-1.284.639-1.925 1.923-1.925h21.645c1.284 0 1.93.641 1.93 1.925v6.605c0 1.1-.369 1.742-1.192 1.926l-3.398.733 5.505 21.004 12.38-30.36c.646-1.558.923-1.833 2.392-1.833h6.051c1.469 0 1.738.275 2.384 1.833l12.472 30.36 5.413-20.82-3.944-.917c-.823-.184-1.192-.826-1.192-1.926V3.392c0-1.284.638-1.925 1.922-1.925h21.646zm35.232 13.758c-4.963 0-9.084 1.742-12.294 5.32-3.21 3.576-4.768 7.887-4.768 13.024 0 5.136 1.558 9.446 4.768 13.024 3.21 3.577 7.331 5.32 12.294 5.32 4.947 0 8.99-1.743 12.192-5.32 3.218-3.578 4.862-7.889 4.862-13.024 0-5.137-1.644-9.448-4.862-13.024-3.202-3.578-7.245-5.32-12.192-5.32zm-23.762-5.411C392.9 3.3 400.885 0 410.149 0c9.255 0 17.241 3.3 23.754 9.814 6.513 6.512 9.808 14.49 9.808 23.755 0 9.264-3.295 17.151-9.902 23.755-6.513 6.512-14.405 9.814-23.66 9.814-9.264 0-17.156-3.302-23.762-9.814-6.513-6.604-9.809-14.491-9.809-23.755s3.296-17.243 9.809-23.755zm142.961-8.341c1.282 0 1.932.641 1.932 1.926v6.604c0 1.1-.366 1.743-1.191 1.926l-3.031.641-14.3 51.272c-.466 1.467-.924 1.834-2.39 1.834h-7.154c-1.465 0-1.749-.367-2.382-1.834l-13.208-33.11-13.208 33.11c-.642 1.467-.925 1.834-2.39 1.834h-6.963c-1.565 0-1.932-.275-2.39-1.834l-14.216-50.996-3.848-.917c-.824-.183-1.199-.826-1.199-1.926V3.399c0-1.285.641-1.926 1.924-1.926h21.645c1.291 0 1.932.641 1.932 1.926v6.604c0 1.1-.367 1.743-1.191 1.926l-3.39.733 5.497 21.004 12.384-30.359c.641-1.558.916-1.834 2.39-1.834h6.046c1.474 0 1.749.276 2.39 1.834l12.468 30.36 5.413-20.82-3.948-.918c-.816-.183-1.191-.826-1.191-1.926V3.399c0-1.285.642-1.926 1.924-1.926h21.645zM137.704 97.368v2.519c0 .384-.138.63-.454.734l-2.207.771v18.998c0 .524-.207.735-.73.735h-2.691c-.385 0-.492-.245-.946-.735l-10.565-11.581v7.557l2.199.77c.315.105.454.35.454.735v2.519c0 .524-.246.735-.731.735h-9.765c-.485 0-.731-.211-.731-.735v-2.519c0-.385.138-.63.454-.735l2.168-.77v-14.974l-2.168-.771c-.316-.104-.454-.35-.454-.734v-2.519c0-.525.246-.735.731-.735h5.321c.384 0 .492.245.945.735l10.566 11.931v-7.907l-2.207-.771c-.316-.104-.454-.35-.454-.734v-2.519c0-.525.246-.735.738-.735h9.796c.485 0 .731.21.731.735zm7.516 19.975c.454-.104.839-.314 1.223-.594v-.77c-2.514-1.085-3.252-.21-3.252.56 0 .735.976 1.085 2.029.804zm8.92.525v2.519c0 .525-.246.736-.73.736h-5.529c-.531 0-.877-.316-1.123-.805l-.207-.42c-1.054.909-2.345 1.61-3.883 1.61-2.838 0-5.145-1.96-5.145-4.759 0-2.834 2.346-6.263 8.92-4.408v-.945c0-.84-.454-2.45-2.868-2.45-.208 0-.423 0-.631.035l-.415 1.365c-.107.314-.354.455-.738.455h-2.522c-.523 0-.731-.245-.731-.735l.031-3.743c0-.42.039-.665.423-.805 1.753-.631 3.814-1.051 5.598-1.051 4.898 0 7.174 2.486 7.174 5.145v7.032l1.922.489c.316.071.454.35.454.735zm14.488 2.765c-1.714.664-3.637 1.049-5.321 1.049-4.652 0-6.051-2.834-6.051-5.494v-6.472h-1.715c-.523 0-.73-.21-.73-.735v-3.219c0-.525.207-.734.73-.734h1.715v-3.639c0-.525.207-.735.738-.735h4.475c.523 0 .738.21.738.735v3.639h3.461c.522 0 .738.209.738.734v3.219c0 .525-.216.735-.738.735h-3.461v4.444c0 .839-.038 2.273 1.953 2.203.531-.034 1.123-.175 1.754-.384.492-.175.769-.105.945.384l1.154 3.324c.177.49.031.77-.385.946zm22.115-2.765v2.519c0 .525-.246.735-.738.735h-5.774c-.523 0-.7-.28-.8-.805l-.146-.665c-1.538 1.295-3.568 2.03-5.421 2.03-3.114 0-6.121-2.03-6.121-5.738v-6.438l-1.922-.49c-.316-.07-.462-.35-.462-.735v-2.519c0-.525.246-.734.739-.734h6.505c.53 0 .699.209.738.734l.346 4.478v3.5c0 1.784.946 2.693 2.314 2.693.839 0 1.608-.35 2.415-.874v-6.053l-1.93-.49c-.315-.07-.454-.35-.454-.735v-2.519c0-.525.246-.734.738-.734h6.506c.522 0 .699.209.738.734l.346 4.478v6.403l1.922.49c.315.071.461.35.461.735zm17.682-12.068v4.898c0 .49-.216.735-.739.735h-2.514c-.384 0-.63-.14-.738-.455l-.385-1.259c-.453.035-.907.174-1.361.349a5.73 5.73 0 0 0-1.891 1.155v5.354l3.291.559c.307.071.454.35.454.735v2.519c0 .524-.247.735-.739.735h-10.565c-.492 0-.738-.211-.738-.735v-2.519c0-.385.146-.664.461-.735l1.884-.49v-7.137l-1.884-.49c-.315-.07-.461-.35-.461-.735v-2.519c0-.525.246-.735.738-.735h5.736c.523 0 .7.28.808.805l.207.979s1.369-1.364 3.253-1.959c1.822-.56 3.568-.21 4.552.175.454.175.631.315.631.77zm8.45 11.543c.453-.104.838-.314 1.23-.594v-.77c-2.522-1.085-3.26-.21-3.26.56 0 .735.984 1.085 2.03.804zm8.927.525v2.519c0 .525-.246.736-.738.736h-5.529c-.523 0-.876-.316-1.122-.805l-.208-.42c-1.046.909-2.345 1.61-3.883 1.61-2.83 0-5.144-1.96-5.144-4.759 0-2.834 2.345-6.263 8.927-4.408v-.945c0-.84-.461-2.45-2.876-2.45-.207 0-.415 0-.623.035l-.422 1.365c-.108.314-.354.455-.739.455h-2.514c-.531 0-.738-.245-.738-.735l.038-3.743c0-.42.031-.665.415-.805 1.754-.631 3.814-1.051 5.598-1.051 4.898 0 7.174 2.486 7.174 5.145v7.032l1.923.489c.315.071.461.35.461.735zm10.385-1.291v3.813c0 .524-.207.735-.73.735-5.737 0-8.051-2.135-8.051-7.418v-12.596l-1.884-.49c-.315-.069-.454-.35-.454-.734v-2.519c0-.525.239-.735.731-.735h6.474c.523 0 .631.21.731.735l.353 1.854v14.485c0 1.33.562 2.134 2.1 2.134.523 0 .73.211.73.736zm29.366-8.226v3.359c0 .525-.207.735-.738.735h-1.499v1.785c0 4.758-3.784 7.452-8.505 7.452-4.79 0-8.504-2.764-8.504-7.452 0-2.765 1.33-4.549 3.222-5.738-1.469-1.225-2.484-3.29-2.523-5.703 0-4.34 3.291-6.719 7.136-6.719 3.852 0 6.09 2.38 6.859 3.534.284.42.384.7 0 1.05l-2.76 2.729c-.385.35-.669.35-1.085-.175-.561-.665-1.368-1.33-2.345-1.33-.946 0-1.715.63-1.715 1.75 0 1.434 1.261 2.309 2.484 2.625.523.139.738.279.738.734v3.079c0 .524-.284.63-.738.735-1.538.384-3.222 1.189-3.222 2.798 0 1.47 1.369 2.275 2.907 2.275 1.684 0 3.045-.98 3.045-2.975v-4.548c0-.525.207-.734.73-.734h5.775c.531 0 .738.209.738.734zm23.576 4.866c0-1.259-1.054-2.309-2.307-2.309h-2.099v4.618h2.099c1.253 0 2.307-1.049 2.307-2.309zm-4.406-7.907h2.268c.846 0 1.546-.874 1.546-1.714s-.7-1.715-1.546-1.715h-2.268v3.429zm10.703 8.922a6.886 6.886 0 0 1-6.889 6.893h-12.111c-.492 0-.731-.211-.731-.735v-2.519c0-.385.139-.63.454-.735l2.276-.805v-14.905l-2.276-.805c-.315-.104-.454-.35-.454-.734v-2.519c0-.525.239-.735.731-.735h11.864c3.43 0 6.19 2.764 6.19 6.193 0 2.204-1.153 4.129-2.868 5.249a6.843 6.843 0 0 1 3.814 6.157zm9.513 3.111c.462-.104.846-.314 1.23-.594v-.77c-2.522-1.085-3.26-.21-3.26.56 0 .735.984 1.085 2.03.804zm8.928.525v2.519c0 .525-.247.736-.739.736H307.6c-.523 0-.877-.316-1.115-.805l-.215-.42c-1.046.909-2.346 1.61-3.884 1.61-2.829 0-5.144-1.96-5.144-4.759 0-2.834 2.345-6.263 8.927-4.408v-.945c0-.84-.461-2.45-2.868-2.45-.215 0-.423 0-.63.035l-.423 1.365c-.108.314-.346.455-.738.455h-2.515c-.523 0-.738-.245-.738-.735l.039-3.743c0-.42.03-.665.415-.805 1.753-.631 3.814-1.051 5.605-1.051 4.899 0 7.167 2.486 7.167 5.145v7.032l1.93.489c.307.071.454.35.454.735zm10.392-1.291v3.813c0 .524-.215.735-.738.735-5.736 0-8.051-2.135-8.051-7.418v-12.596l-1.883-.49c-.316-.069-.454-.35-.454-.734v-2.519c0-.525.238-.735.73-.735h6.475c.523 0 .63.21.73.735l.354 1.854v14.485c0 1.33.561 2.134 2.099 2.134.523 0 .738.211.738.736zm9.737.766c.454-.104.846-.314 1.23-.594v-.77c-2.522-1.085-3.26-.21-3.26.56 0 .735.984 1.085 2.03.804zm8.927.525v2.519c0 .525-.246.736-.738.736h-5.529c-.522 0-.876-.316-1.115-.805l-.215-.42c-1.046.909-2.345 1.61-3.883 1.61-2.83 0-5.144-1.96-5.144-4.759 0-2.834 2.345-6.263 8.927-4.408v-.945c0-.84-.461-2.45-2.868-2.45-.215 0-.423 0-.63.035l-.423 1.365c-.108.314-.354.455-.739.455h-2.514c-.523 0-.738-.245-.738-.735l.038-3.743c0-.42.031-.665.416-.805 1.753-.631 3.813-1.051 5.597-1.051 4.898 0 7.175 2.486 7.175 5.145v7.032l1.922.489c.315.071.461.35.461.735zm22.508.003v2.519c0 .524-.246.735-.73.735h-6.859c-.523 0-.738-.211-.738-.735v-7.978c0-1.784-.8-2.693-2.515-2.693-.838 0-1.545.349-2.207.874v6.053l1.923.49c.315.071.453.35.453.735v2.519c0 .524-.238.735-.73.735h-9.235c-.492 0-.738-.211-.738-.735v-2.519c0-.385.138-.664.453-.735l1.93-.49v-7.137l-1.93-.49c-.315-.07-.453-.35-.453-.735v-2.519c0-.525.246-.735.738-.735h5.767c.53 0 .7.28.807.805l.139.665c1.538-1.295 3.568-2.03 5.428-2.03 3.115 0 6.121 2.03 6.121 5.738v6.438l1.922.49c.316.071.454.35.454.735zm9.413-13.404c1.884 0 3.668.595 5.105 1.54a.456.456 0 0 1 .247.42v4.478c0 .49-.208.736-.739.736h-2.514c-.385 0-.631-.14-.738-.456l-.385-1.364a2.294 2.294 0 0 0-.73-.105c-1.892 0-3.43 1.469-3.43 3.359s1.538 3.358 3.568 3.358c.769 0 1.469-.21 2.03-.419.454-.176.8-.14.977.174l1.753 2.975c.238.385.315.734-.039.979-1.537 1.085-3.36 1.54-5.105 1.54-4.937 0-8.782-3.849-8.782-8.607 0-4.759 3.845-8.608 8.782-8.608zm12.908 6.578h4.898c-.176-1.259-1.261-2.029-2.452-2.029-1.192 0-2.277.77-2.446 2.029zm10.25 1.225c.031.559.031.735-.038 1.225-.069.524-.246.735-.769.735h-9.866c.108 1.364 1.192 2.378 3.076 2.378 1.23 0 2.492-.42 3.468-.77.454-.174.769 0 .946.385l1.43 3.115c.177.384 0 .734-.384.945-1.046.559-2.899 1.399-5.352 1.399-5.214 0-8.712-3.849-8.712-8.607 0-4.759 3.498-8.608 8.297-8.608 4.506 0 7.62 3.43 7.904 7.803zm13.394 3.603v-5.808c-.307-.14-1.184-.525-2.199-.525-2.099 0-3.637 1.644-3.637 3.534s1.538 3.358 3.568 3.358c.938 0 1.746-.314 2.268-.559zm8.328 1.994v2.519c0 .525-.238.735-.73.735h-5.775c-.523 0-.7-.28-.808-.805l-.069-.314c-1.084.594-2.168 1.084-3.429 1.294-4.898.805-9.127-3.184-8.951-8.432.139-4.584 3.637-8.363 8.182-8.223a8.672 8.672 0 0 1 3.252.736v-4.27l-1.883-.489c-.316-.07-.454-.35-.454-.735v-2.519c0-.525.238-.735.73-.735h6.475c.523 0 .63.21.73.735l.354 1.82v17.458l1.922.49c.316.071.454.35.454.735zM539.549 3.205h3.627v8.684h1.923V3.205h3.593V1.471h-9.143v1.734zm19.743-1.733h-1.863l-3.044 7.621-3.054-7.621h-1.862l-.748 10.417h1.888l.459-6.549 2.67 6.549h1.284l2.671-6.549.459 6.549h1.888l-.748-10.417z" fill="#1E1C1A"/></svg><svg fill="none" viewBox="0 0 170 37" id="bowl-wow-natural-balanced--white" xmlns="http://www.w3.org/2000/svg"><path d="M45.78 29.276c.164 0 .205.083.205.207v.79c0 .124-.04.207-.123.207l-.658.25v5.854c0 .167-.083.208-.206.208h-.822a.41.41 0 0 1-.124-.041c0-.042-.123-.125-.164-.166l-3.209-3.572v2.326l.658.249a.229.229 0 0 1 .124.207v.79c0 .166-.082.207-.206.207h-2.961c-.165 0-.206-.083-.206-.208v-.789c0-.124.041-.207.123-.207l.658-.25V30.73l-.658-.249a.229.229 0 0 1-.123-.207v-.79c0-.166.082-.207.206-.207h1.604c.04 0 .123.041.123.041.041 0 .123.125.165.166l3.208 3.655v-2.45l-.658-.25a.229.229 0 0 1-.124-.207v-.789c0-.166.083-.208.206-.208h2.962v.042zm5.1 6.312c.081.041.123.083.123.207v.79c0 .165-.083.207-.206.207h-1.686c-.124 0-.247-.083-.33-.25l-.082-.124c-.37.332-.781.498-1.193.498-.452 0-.822-.124-1.11-.415-.288-.29-.453-.623-.453-1.038 0-.914.7-1.869 2.715-1.37v-.291c0-.374-.206-.748-.864-.748h-.205l-.124.416a.226.226 0 0 1-.205.124h-.782c-.164 0-.206-.083-.206-.207v-1.163c0-.125.041-.208.124-.25.576-.207 1.151-.331 1.686-.331 1.399 0 2.18.706 2.18 1.578v2.159l.617.208zm-2.592.041c.123-.041.247-.083.37-.166v-.25c-.74-.331-.987-.082-.987.167 0 .25.288.332.617.25zm7.24.748c.04.125 0 .25-.124.29-.534.209-1.07.333-1.604.333-.658 0-1.11-.166-1.398-.498-.288-.333-.412-.748-.412-1.205v-1.993h-.534c-.165 0-.206-.083-.206-.207V32.1c0-.166.082-.208.206-.208h.534v-1.12c0-.167.083-.208.206-.208h1.357c.165 0 .206.082.206.207v1.121h1.07c.164 0 .205.083.205.208v.997c0 .166-.082.207-.206.207H53.76v1.37c0 .208 0 .25.082.457.083.166.247.25.535.25.165 0 .33-.042.535-.125.123-.042.247 0 .288.124l.329.997zm6.5-.789c.082.041.123.083.123.208v.789c0 .166-.082.207-.206.207h-1.768c-.124 0-.206-.083-.247-.249l-.041-.208c-.494.416-1.029.623-1.645.623-.494 0-.947-.166-1.317-.456-.37-.333-.534-.748-.534-1.288v-1.993l-.576-.166c-.083-.042-.124-.083-.124-.208v-.789c0-.166.083-.207.206-.207h1.974c.124 0 .206.083.206.207l.123 1.37v1.08c0 .54.288.83.7.83.205 0 .452-.082.74-.248v-1.87l-.576-.166c-.082-.042-.123-.083-.123-.208v-.789c0-.166.082-.207.206-.207h1.974c.123 0 .206.083.206.207l.123 1.37v1.952l.576.208zm5.511-3.488v1.495c0 .166-.082.208-.206.208h-.781c-.124 0-.206-.042-.206-.125l-.123-.373c-.124 0-.247.041-.412.124a1.725 1.725 0 0 0-.575.374v1.66l.987.167c.082.041.123.083.123.208v.789c0 .166-.082.207-.206.207h-3.208c-.164 0-.205-.083-.205-.207v-.79c0-.124.04-.207.123-.207l.576-.166v-2.201l-.576-.166c-.082-.042-.123-.083-.123-.208V32.1c0-.166.082-.207.205-.207h1.769c.123 0 .206.083.247.249l.082.29c.288-.29.617-.498.987-.623a2.3 2.3 0 0 1 1.399.042c.082.042.123.125.123.25zm5.182 3.488c.082.041.123.083.123.207v.79c0 .165-.082.207-.205.207h-1.687c-.123 0-.246-.083-.329-.25l-.082-.124c-.37.332-.781.498-1.193.498-.452 0-.823-.124-1.11-.415-.288-.29-.453-.623-.453-1.038 0-.914.7-1.869 2.715-1.37v-.291c0-.374-.206-.748-.864-.748h-.206l-.123.416a.226.226 0 0 1-.206.124h-.781c-.165 0-.206-.083-.206-.207v-1.163c0-.125.041-.208.124-.25.576-.207 1.151-.331 1.686-.331 1.398 0 2.18.706 2.18 1.578v2.159l.617.208zm-2.591.041c.123-.041.246-.083.37-.166v-.25c-.74-.331-.987-.082-.987.167 0 .25.288.332.617.25zm5.881-.207v1.163c0 .166-.082.208-.205.208-1.769 0-2.468-.665-2.468-2.284v-3.862l-.576-.166c-.082-.042-.123-.083-.123-.208v-.789c0-.166.082-.208.205-.208h1.975c.164 0 .205.042.205.208l.124.581v4.444c0 .456.205.664.658.664.123 0 .206.083.206.25zm8.722-2.782c.164 0 .206.083.206.207v1.038c0 .166-.083.208-.206.208h-.453v.54c0 .706-.246 1.287-.74 1.661-.494.415-1.11.623-1.851.623-.74 0-1.357-.208-1.851-.623-.493-.415-.74-.997-.74-1.661 0-.748.329-1.329.987-1.786-.494-.415-.74-.996-.782-1.744 0-.623.206-1.121.617-1.495.412-.373.946-.54 1.563-.54.494 0 .946.125 1.317.374.37.208.617.457.781.748.082.124.082.249 0 .332l-.823.83c-.123.083-.205.083-.329-.041-.205-.25-.452-.416-.699-.416a.521.521 0 0 0-.535.54c0 .416.33.706.74.79.165.04.206.082.206.207v.955c0 .166-.082.208-.205.208-.658.166-.987.456-.987.872 0 .415.37.706.904.706.535 0 .947-.333.947-.914v-1.412c0-.166.082-.207.205-.207h1.728zm9.337 2.034c0 .582-.206 1.08-.617 1.495a2.01 2.01 0 0 1-1.481.623H88.27c-.164 0-.206-.083-.206-.208v-.789c0-.124.042-.207.124-.207l.7-.25v-4.567l-.7-.25a.229.229 0 0 1-.124-.207v-.789c0-.166.083-.208.206-.208h3.62c.534 0 .987.166 1.316.54.37.374.535.83.535 1.33 0 .663-.33 1.245-.864 1.619.7.332 1.193 1.08 1.193 1.868zm-3.25-3.779v1.039h.7c.246 0 .452-.25.452-.54 0-.25-.206-.54-.452-.54h-.7v.041zm.617 4.195c.37 0 .7-.333.7-.706a.724.724 0 0 0-.7-.706h-.658v1.412h.658zm8.103.498c.082.041.123.083.123.207v.79c0 .165-.082.207-.206.207h-1.686c-.124 0-.247-.083-.33-.25l-.082-.124c-.37.332-.781.498-1.192.498-.453 0-.823-.124-1.111-.415-.288-.29-.453-.623-.453-1.038 0-.914.7-1.869 2.715-1.37v-.291c0-.374-.205-.748-.864-.748h-.205l-.124.416a.226.226 0 0 1-.205.124h-.782c-.164 0-.205-.083-.205-.207v-1.163c0-.125.04-.208.123-.25.576-.207 1.152-.331 1.686-.331 1.399 0 2.18.706 2.18 1.578v2.159l.617.208zm-2.592.041c.123-.041.247-.083.37-.166v-.25c-.74-.331-.987-.082-.987.167 0 .25.288.332.617.25zm5.923-.207v1.163c0 .166-.082.208-.206.208-1.768 0-2.468-.665-2.468-2.284v-3.862l-.576-.166c-.082-.042-.123-.083-.123-.208v-.789c0-.166.082-.208.206-.208h1.974c.165 0 .206.042.206.208l.123.581v4.444c0 .456.206.664.658.664.124 0 .206.083.206.25zm5.553.166c.082.041.124.083.124.207v.79c0 .165-.083.207-.206.207h-1.687c-.123 0-.246-.083-.329-.25l-.082-.124c-.37.332-.781.498-1.193.498-.452 0-.822-.124-1.11-.415-.288-.29-.453-.623-.453-1.038 0-.914.7-1.869 2.715-1.37v-.291c0-.374-.206-.748-.864-.748h-.205l-.124.416a.225.225 0 0 1-.205.124h-.782c-.165 0-.206-.083-.206-.207v-1.163c0-.125.041-.208.124-.25.576-.207 1.151-.331 1.686-.331 1.399 0 2.18.706 2.18 1.578v2.159l.617.208zm-2.591.041c.123-.041.247-.083.37-.166v-.25c-.74-.331-.987-.082-.987.167 0 .25.288.332.617.25zm9.419-.041c.083.042.124.083.124.208v.789c0 .166-.083.207-.206.207h-2.098c-.164 0-.205-.083-.205-.207v-2.45c0-.54-.247-.83-.782-.83a1.09 1.09 0 0 0-.658.248v1.869l.576.166c.082.042.123.083.123.208v.789c0 .166-.082.207-.205.207h-2.797c-.165 0-.206-.083-.206-.207v-.79c0-.124.041-.207.123-.207l.576-.166V33.22l-.576-.166c-.082-.042-.123-.083-.123-.208v-.789c0-.166.082-.207.206-.207h1.768c.124 0 .206.083.247.249l.041.207c.494-.415 1.029-.622 1.646-.622.493 0 .946.166 1.316.456.37.333.534.748.534 1.288v1.993l.576.166zm4.567-3.447c.041.042.082.084.082.125v1.37c0 .166-.082.208-.206.208h-.781c-.124 0-.206-.041-.206-.125l-.123-.415c-.083-.041-.124-.041-.206-.041-.576 0-1.028.456-1.028 1.038 0 .581.493 1.038 1.069 1.038.165 0 .411-.042.617-.125.165-.041.247-.041.288.042l.535.913c.082.125.082.25 0 .291-.453.332-.946.457-1.563.457-.741 0-1.358-.25-1.892-.79-.535-.497-.782-1.12-.782-1.868 0-.747.247-1.37.782-1.868.534-.499 1.151-.79 1.892-.79.534.084 1.069.25 1.522.54zm4.771.249c.452.457.699 1.039.74 1.703v.374c-.041.166-.082.208-.246.208h-3.003c.041.415.37.747.946.747.247 0 .617-.083 1.069-.25.124-.04.247 0 .288.125l.453.956c.041.124.041.207-.124.29a3.339 3.339 0 0 1-1.645.415c-.781 0-1.398-.249-1.933-.747-.494-.498-.74-1.121-.74-1.869 0-.747.246-1.37.699-1.868.493-.499 1.069-.79 1.81-.79.699 0 1.275.208 1.686.707zm-.864 1.33c-.082-.831-1.398-.831-1.481 0h1.481zm8.103 1.868c.082.042.124.083.124.208v.789c0 .166-.083.208-.206.208h-1.769c-.123 0-.205-.083-.247-.25l-.041-.083a4.8 4.8 0 0 1-1.028.416 2.194 2.194 0 0 1-1.933-.582c-.535-.54-.823-1.204-.782-1.993.041-.706.247-1.329.741-1.827.493-.498 1.069-.748 1.768-.706.329 0 .658.083.987.208v-1.33l-.575-.165c-.083-.042-.124-.083-.124-.208v-.789c0-.166.083-.208.206-.208h1.974c.165 0 .206.042.206.208l.123.54v5.357l.576.207zm-2.386-.415v-1.785a1.396 1.396 0 0 0-.658-.167c-.617 0-1.11.499-1.11 1.08 0 .581.493 1.038 1.069 1.038.206.042.453-.041.699-.166zM15.836 15.199c0 1.578-.535 2.865-1.645 3.945-1.07 1.08-2.345 1.62-3.908 1.62H.576c-.411 0-.576-.209-.576-.582v-2.035c0-.332.123-.498.37-.581l1.81-.665V4.817L.37 4.153C.123 4.07 0 3.862 0 3.57V1.536c0-.415.206-.58.576-.58h9.501c1.358 0 2.55.497 3.497 1.453.987.996 1.44 2.159 1.44 3.53 0 1.743-.864 3.321-2.304 4.235 1.892.955 3.126 2.865 3.126 5.025zM7.239 5.19v2.782h1.81c.658 0 1.234-.706 1.234-1.37 0-.665-.576-1.37-1.234-1.37H7.24V5.19zm1.687 11.046c1.028 0 1.85-.83 1.85-1.869a1.852 1.852 0 0 0-1.85-1.869H7.239v3.738h1.687zM19.456 3.53C21.43 1.535 23.898.497 26.736.497s5.265 1.038 7.28 3.031c1.975 1.994 3.003 4.485 3.003 7.35 0 2.866-1.028 5.316-3.044 7.35-1.974 1.994-4.4 3.032-7.239 3.032-2.838 0-5.265-1.038-7.28-3.031-1.975-2.035-3.003-4.485-3.003-7.35 0-2.866.987-5.316 3.003-7.35zm7.24 1.66c-1.523 0-2.798.54-3.744 1.662-.987 1.12-1.44 2.45-1.44 4.028 0 1.578.494 2.906 1.44 4.028.987 1.12 2.262 1.66 3.743 1.66 1.522 0 2.756-.54 3.743-1.66.987-1.121 1.48-2.45 1.48-4.028 0-1.578-.493-2.907-1.48-4.028-.987-1.122-2.221-1.661-3.743-1.661zM63.18.955c.412 0 .576.208.576.581v2.035c0 .333-.123.54-.37.582l-.946.207-4.32 15.863c-.122.457-.287.582-.74.582H55.2c-.452 0-.534-.125-.74-.582l-4.03-10.215-4.032 10.215c-.206.457-.288.582-.74.582h-2.14c-.493 0-.575-.083-.74-.582l-4.36-15.738-1.192-.29c-.247-.042-.37-.25-.37-.582V1.536c0-.415.205-.58.575-.58h6.623c.411 0 .575.207.575.58v2.035c0 .333-.123.54-.37.582l-1.028.207 1.686 6.478 3.785-9.385c.205-.498.288-.58.74-.58h1.85c.453 0 .536.082.741.58l3.826 9.385 1.645-6.436-1.193-.29c-.247-.042-.37-.25-.37-.582V1.536c0-.415.206-.58.576-.58h2.18v.04c.04-.04.123-.04.205-.04h4.278zm17.151 13.372c.412 0 .576.207.576.58v5.275c0 .415-.205.581-.576.581H65.976c-.411 0-.576-.208-.576-.581v-2.035c0-.332.124-.498.37-.581l1.81-.665V4.817l-1.81-.664c-.246-.083-.37-.291-.37-.582V1.536c0-.415.206-.58.576-.58h8.062c.412 0 .576.207.576.58v2.035c0 .332-.123.499-.37.582l-1.645.581v11.794h4.483l.658-1.828c.082-.249.288-.373.576-.373h2.015zM114.676.955c.412 0 .576.208.576.581v2.035c0 .333-.123.54-.37.582l-.946.207-4.319 15.863c-.123.457-.288.582-.74.582h-2.18c-.453 0-.535-.125-.741-.582l-4.031-10.215-4.03 10.215c-.206.457-.289.582-.741.582h-2.139c-.494 0-.576-.083-.74-.582l-4.36-15.738-1.193-.29c-.247-.042-.37-.25-.37-.582V1.536c0-.415.205-.58.575-.58h6.664c.411 0 .576.207.576.58v2.035c0 .333-.124.54-.37.582l-1.029.207 1.687 6.478 3.784-9.385c.205-.498.288-.58.74-.58h1.851c.453 0 .535.082.741.58l3.825 9.385 1.645-6.436-1.193-.29c-.247-.042-.37-.25-.37-.582V1.536c0-.415.206-.58.576-.58h2.18v.04c.041-.04.123-.04.206-.04h4.236zm3.538 2.575c1.974-1.994 4.442-3.032 7.28-3.032s5.265 1.038 7.28 3.031c1.975 1.994 3.003 4.485 3.003 7.35 0 2.866-1.028 5.316-3.044 7.35-1.974 1.994-4.401 3.032-7.239 3.032s-5.265-1.038-7.28-3.031c-1.975-2.035-3.003-4.485-3.003-7.35 0-2.866.987-5.316 3.003-7.35zm7.239 1.66c-1.522 0-2.797.54-3.743 1.662-.987 1.12-1.44 2.45-1.44 4.028 0 1.578.494 2.906 1.44 4.028.987 1.12 2.262 1.66 3.743 1.66 1.481 0 2.756-.54 3.743-1.66.987-1.121 1.481-2.45 1.481-4.028 0-1.578-.494-2.907-1.481-4.028-.987-1.122-2.221-1.661-3.743-1.661zM161.938.955c.411 0 .576.208.576.581v2.035c0 .333-.123.54-.37.582l-.946.207-4.36 15.863c-.124.457-.288.582-.741.582h-2.18c-.452 0-.534-.125-.74-.582l-4.031-10.215-4.031 10.215c-.206.457-.288.582-.74.582h-2.139c-.494 0-.576-.083-.741-.582l-4.36-15.738-1.193-.29c-.246-.042-.37-.25-.37-.582V1.536c0-.415.206-.58.576-.58h6.622c.412 0 .576.207.576.58v2.035c0 .333-.123.54-.37.582l-1.028.207 1.686 6.478 3.784-9.385c.206-.498.288-.58.741-.58h1.851c.452 0 .534.082.74.58l3.825 9.385 1.646-6.436-1.193-.29c-.247-.042-.37-.25-.37-.582V1.536c0-.415.205-.58.576-.58h2.18v.04c.041-.04.123-.04.205-.04h4.319zm4.402-.623h.658V1.87h.329V.332h.658V0h-1.645v.332zM169.835 0h-.329l-.534 1.37-.535-1.37h-.329l-.124 1.869h.329l.083-1.163.493 1.163h.206l.494-1.163.082 1.163H170L169.835 0z" fill="#fff"/></svg><svg fill="none" viewBox="0 0 624 256" id="bowl-wow-super-premium-blueprint" xmlns="http://www.w3.org/2000/svg"><path d="M56.613 113.588c3.344 0 6.13-2.788 6.13-6.132 0-3.346-2.786-6.132-6.13-6.132h-5.575v12.264h5.575Zm-5.575-36.234v9.105h6.039c2.23 0 4.089-2.322 4.089-4.553 0-2.229-1.859-4.552-4.09-4.552h-6.038Zm28.43 32.796c0 5.11-1.766 9.384-5.389 13.007-3.53 3.53-7.804 5.295-12.913 5.295H29.02c-1.3 0-1.952-.65-1.952-1.951v-6.688c0-1.023.372-1.673 1.21-1.952l6.038-2.136V76.146l-6.039-2.135c-.837-.28-1.209-.93-1.209-1.952v-6.69c0-1.3.651-1.95 1.952-1.95h31.495c4.552 0 8.454 1.58 11.613 4.83 3.252 3.252 4.831 7.062 4.831 11.614 0 5.667-2.88 10.87-7.618 13.935 6.039 2.973 10.126 9.291 10.126 16.352ZM115.509 77.354c-5.016 0-9.198 1.765-12.45 5.39-3.25 3.622-4.83 7.988-4.83 13.191 0 5.202 1.58 9.569 4.83 13.193 3.252 3.624 7.434 5.388 12.45 5.388 5.017 0 9.105-1.764 12.357-5.388 3.252-3.624 4.923-7.991 4.923-13.193 0-5.203-1.671-9.569-4.923-13.192-3.252-3.624-7.34-5.389-12.357-5.389Zm-24.063-5.48c6.597-6.598 14.679-9.942 24.063-9.942 9.384 0 17.466 3.344 24.063 9.941 6.597 6.597 9.941 14.68 9.941 24.062 0 9.384-3.344 17.373-10.034 24.063-6.597 6.596-14.586 9.941-23.97 9.941-9.384 0-17.373-3.345-24.063-9.941-6.595-6.69-9.94-14.679-9.94-24.063 0-9.383 3.345-17.465 9.94-24.062ZM236.281 63.419c1.302 0 1.951.65 1.951 1.95v6.69c0 1.114-.371 1.766-1.207 1.952l-3.067.65-14.492 51.933c-.465 1.487-.93 1.858-2.416 1.858h-7.247c-1.487 0-1.766-.371-2.415-1.858L194.01 93.056l-13.379 33.538c-.651 1.487-.929 1.858-2.416 1.858h-7.061c-1.58 0-1.95-.279-2.414-1.858l-14.4-51.655-3.903-.928c-.836-.186-1.208-.838-1.208-1.952v-6.69c0-1.3.65-1.95 1.951-1.95h21.926c1.3 0 1.951.65 1.951 1.95v6.69c0 1.114-.372 1.766-1.209 1.952l-3.436.742 5.573 21.276 12.542-30.753c.651-1.579.93-1.857 2.416-1.857h6.132c1.487 0 1.766.278 2.416 1.857l12.635 30.753 5.481-21.09-3.994-.928c-.837-.186-1.209-.838-1.209-1.952v-6.69c0-1.3.651-1.95 1.952-1.95h21.925ZM293.037 107.27c1.301 0 1.951.65 1.951 1.951v17.28c0 1.301-.65 1.951-1.951 1.951h-47.568c-1.3 0-1.949-.65-1.949-1.951v-6.688c0-1.023.37-1.673 1.207-1.952l6.038-2.136V76.146l-6.038-2.135c-.837-.28-1.207-.93-1.207-1.952v-6.69c0-1.3.649-1.95 1.949-1.95h26.664c1.301 0 1.951.65 1.951 1.95v6.69c0 1.022-.371 1.673-1.207 1.952l-5.389 1.857v38.648h14.772l2.137-6.039c.279-.835.929-1.207 1.952-1.207h6.688ZM406.835 63.419c1.302 0 1.952.65 1.952 1.95v6.69c0 1.114-.372 1.766-1.208 1.952l-3.066.65-14.492 51.933c-.465 1.487-.93 1.858-2.417 1.858h-7.246c-1.487 0-1.766-.371-2.416-1.858l-13.378-33.538-13.379 33.538c-.65 1.487-.93 1.858-2.416 1.858h-7.06c-1.58 0-1.951-.279-2.416-1.858l-14.4-51.655-3.902-.928c-.835-.186-1.208-.838-1.208-1.952v-6.69c0-1.3.65-1.95 1.952-1.95h21.925c1.301 0 1.952.65 1.952 1.95v6.69c0 1.114-.373 1.766-1.209 1.952l-3.437.742 5.574 21.276 12.542-30.753c.651-1.579.93-1.857 2.416-1.857h6.132c1.486 0 1.766.278 2.415 1.857l12.636 30.753 5.481-21.09-3.995-.928c-.836-.186-1.209-.838-1.209-1.952v-6.69c0-1.3.652-1.95 1.952-1.95h21.925ZM442.506 77.354c-5.018 0-9.199 1.765-12.449 5.39-3.252 3.622-4.832 7.988-4.832 13.191 0 5.202 1.58 9.569 4.832 13.193 3.25 3.624 7.431 5.388 12.449 5.388 5.016 0 9.104-1.764 12.356-5.388 3.252-3.624 4.925-7.991 4.925-13.193 0-5.203-1.673-9.569-4.925-13.192-3.252-3.624-7.34-5.389-12.356-5.389Zm-24.064-5.48c6.597-6.598 14.68-9.942 24.064-9.942 9.383 0 17.465 3.344 24.062 9.941 6.596 6.597 9.941 14.68 9.941 24.062 0 9.384-3.345 17.373-10.034 24.063-6.596 6.596-14.586 9.941-23.969 9.941-9.384 0-17.374-3.345-24.064-9.941-6.596-6.69-9.94-14.679-9.94-24.063 0-9.383 3.344-17.465 9.94-24.062ZM563.274 63.419c1.301 0 1.952.65 1.952 1.95v6.69c0 1.114-.372 1.766-1.208 1.952l-3.065.65-14.494 51.933c-.465 1.487-.93 1.858-2.416 1.858h-7.247c-1.486 0-1.765-.371-2.414-1.858l-13.379-33.538-13.378 33.538c-.651 1.487-.93 1.858-2.417 1.858h-7.06c-1.579 0-1.952-.279-2.415-1.858l-14.402-51.655-3.901-.928c-.836-.186-1.207-.838-1.207-1.952v-6.69c0-1.3.65-1.95 1.951-1.95h21.925c1.301 0 1.951.65 1.951 1.95v6.69c0 1.114-.371 1.766-1.208 1.952l-3.437.742 5.574 21.276 12.543-30.753c.65-1.579.928-1.857 2.415-1.857h6.132c1.487 0 1.765.278 2.415 1.857L539.12 96.03l5.481-21.09-3.994-.928c-.838-.186-1.209-.838-1.209-1.952v-6.69c0-1.3.65-1.95 1.951-1.95h21.925ZM121.631 160.556v2.552c0 .39-.142.637-.461.744l-2.233.78v19.244c0 .531-.213.744-.744.744h-2.729c-.39 0-.495-.248-.957-.744l-10.703-11.73v7.654l2.233.78c.319.106.461.354.461.745v2.551c0 .531-.248.744-.744.744h-9.889c-.496 0-.744-.213-.744-.744v-2.551c0-.391.142-.639.461-.745l2.197-.78v-15.168l-2.197-.78c-.32-.107-.46-.354-.46-.744v-2.552c0-.531.247-.745.743-.745h5.387c.39 0 .497.249.957.745l10.703 12.085v-8.009l-2.232-.78c-.319-.107-.461-.354-.461-.744v-2.552c0-.531.248-.745.744-.745h9.923c.497 0 .745.214.745.745ZM129.213 180.792c.461-.107.85-.318 1.24-.602v-.78c-2.551-1.099-3.296-.213-3.296.567 0 .744.992 1.099 2.056.815Zm9.037.532v2.552c0 .531-.248.744-.744.744h-5.6c-.531 0-.886-.319-1.134-.816l-.213-.425c-1.063.922-2.374 1.631-3.933 1.631-2.871 0-5.21-1.986-5.21-4.82 0-2.871 2.375-6.344 9.037-4.466v-.957c0-.85-.461-2.481-2.906-2.481-.212 0-.425 0-.638.036l-.425 1.381c-.106.32-.354.462-.744.462h-2.552c-.532 0-.744-.248-.744-.745l.035-3.792c0-.425.035-.673.425-.815 1.772-.638 3.864-1.063 5.671-1.063 4.962 0 7.265 2.516 7.265 5.21v7.123l1.95.496c.318.071.46.355.46.745ZM152.923 184.124c-1.737.673-3.686 1.064-5.388 1.064-4.713 0-6.13-2.872-6.13-5.566v-6.556h-1.737c-.532 0-.744-.212-.744-.744v-3.26c0-.532.212-.745.744-.745h1.737v-3.686c0-.532.212-.744.743-.744h4.537c.532 0 .744.212.744.744v3.686h3.509c.531 0 .744.213.744.745v3.26c0 .532-.213.744-.744.744h-3.509v4.501c0 .85-.035 2.303 1.985 2.233.532-.035 1.134-.178 1.772-.389.496-.178.779-.107.957.389l1.169 3.367c.178.496.036.78-.389.957ZM175.321 181.324v2.552c0 .531-.249.744-.745.744h-5.847c-.532 0-.709-.284-.816-.816l-.141-.673c-1.56 1.312-3.615 2.057-5.494 2.057-3.154 0-6.201-2.057-6.201-5.813v-6.521l-1.95-.496c-.318-.072-.461-.355-.461-.745v-2.551c0-.532.248-.745.745-.745h6.591c.532 0 .709.213.745.745l.354 4.536v3.544c0 1.807.958 2.728 2.339 2.728.851 0 1.63-.354 2.446-.885v-6.131l-1.95-.496c-.318-.072-.461-.355-.461-.745v-2.551c0-.532.249-.745.745-.745h6.592c.532 0 .708.213.744.745l.355 4.536v6.485l1.948.497c.32.071.462.354.462.744ZM193.252 169.097v4.962c0 .496-.212.745-.744.745h-2.552c-.39 0-.637-.143-.744-.461l-.39-1.277c-.46.036-.922.178-1.382.355a5.861 5.861 0 0 0-1.914 1.169v5.423l3.332.567c.318.071.461.354.461.745v2.551c0 .531-.249.744-.745.744h-10.703c-.496 0-.744-.213-.744-.744v-2.551c0-.391.142-.674.46-.745l1.914-.496v-7.23l-1.914-.496c-.318-.072-.46-.354-.46-.744v-2.552c0-.532.248-.745.744-.745h5.813c.531 0 .708.285.814.816l.213.992s1.382-1.382 3.296-1.985c1.843-.567 3.615-.213 4.607.177.461.178.638.32.638.78ZM201.792 180.792c.46-.107.849-.318 1.24-.602v-.78c-2.552-1.099-3.297-.213-3.297.567 0 .744.993 1.099 2.057.815Zm9.037.532v2.552c0 .531-.249.744-.745.744h-5.599c-.532 0-.886-.319-1.135-.816l-.212-.425c-1.064.922-2.375 1.631-3.934 1.631-2.871 0-5.21-1.986-5.21-4.82 0-2.871 2.375-6.344 9.038-4.466v-.957c0-.85-.461-2.481-2.906-2.481-.213 0-.426 0-.638.036l-.426 1.381c-.106.32-.354.462-.744.462h-2.552c-.531 0-.744-.248-.744-.745l.035-3.792c0-.425.036-.673.426-.815 1.772-.638 3.863-1.063 5.671-1.063 4.961 0 7.264 2.516 7.264 5.21v7.123l1.95.496c.318.071.461.355.461.745ZM221.39 180.013v3.863c0 .531-.213.744-.745.744-5.812 0-8.151-2.161-8.151-7.513v-12.759l-1.914-.496c-.319-.071-.461-.354-.461-.744v-2.552c0-.531.249-.745.745-.745h6.556c.532 0 .638.214.744.745l.355 1.878v14.673c0 1.347.567 2.161 2.126 2.161.532 0 .745.213.745.745ZM231.771 176.61c0-.496.213-.744.744-.744h2.553c.389 0 .496.177.673.674l.779 2.196c.923.71 1.666 1.134 3.119 1.134 1.453 0 2.835-.566 3.048-1.914.603-3.897-10.561-3.968-10.632-11.589-.035-3.968 3.19-7.123 8.576-7.123 2.162 0 4.785.532 7.018 1.95.389.248.531.53.531.851v4.961c0 .496-.212.744-.744.744h-2.551c-.39 0-.532-.178-.674-.673l-.567-1.701c-.886-.497-1.985-.816-2.941-.816-1.844 0-2.658 1.17-2.446 2.092.673 2.941 10.774 3.898 10.774 10.986 0 4.678-4.359 7.55-9.144 7.55-3.26 0-5.706-1.135-7.654-2.836-.285-.248-.426-.426-.462-.638v-5.104ZM272.209 181.324v2.552c0 .531-.248.744-.744.744h-5.848c-.531 0-.708-.284-.815-.816l-.142-.673c-1.559 1.312-3.615 2.057-5.493 2.057-3.154 0-6.202-2.057-6.202-5.813v-6.521l-1.949-.496c-.319-.072-.461-.355-.461-.745v-2.551c0-.532.248-.745.744-.745h6.593c.531 0 .708.213.744.745l.354 4.536v3.544c0 1.807.956 2.728 2.339 2.728.85 0 1.63-.354 2.446-.885v-6.131l-1.95-.496c-.318-.072-.461-.355-.461-.745v-2.551c0-.532.248-.745.745-.745h6.591c.532 0 .71.213.745.745l.354 4.536v6.485l1.949.497c.319.071.461.354.461.744ZM288.371 176.468c0-1.914-1.56-3.402-3.615-3.402-.956 0-1.772.319-2.303.568v5.882c.318.142 1.205.532 2.232.532 2.126 0 3.686-1.665 3.686-3.58Zm5.671.213c-.142 4.643-3.686 8.471-8.294 8.329a8.841 8.841 0 0 1-3.295-.745v2.836l2.977.567c.318.071.46.354.46.744v2.552c0 .531-.248.744-.744.744h-10.384c-.496 0-.744-.213-.744-.744v-2.552c0-.39.141-.673.461-.744l1.948-.496v-14.318l-1.948-.496c-.32-.072-.461-.354-.461-.745v-2.551c0-.532.248-.745.744-.745h5.847c.532 0 .71.284.816.816l.071.318c1.099-.602 2.197-1.099 3.473-1.311 4.961-.815 9.25 3.225 9.073 8.541ZM302.013 174.413h4.961c-.176-1.276-1.275-2.055-2.481-2.055-1.204 0-2.303.779-2.48 2.055Zm10.384 1.24c.035.567.035.744-.036 1.241-.071.531-.247.744-.779.744h-9.994c.106 1.382 1.205 2.41 3.118 2.41 1.241 0 2.516-.426 3.509-.78.461-.178.78 0 .957.39l1.453 3.155c.177.389 0 .744-.389.956-1.064.567-2.943 1.419-5.423 1.419-5.282 0-8.825-3.9-8.825-8.72 0-4.819 3.543-8.718 8.4-8.718 4.571 0 7.726 3.474 8.009 7.903ZM329.729 169.097v4.962c0 .496-.213.745-.745.745h-2.551c-.39 0-.638-.143-.745-.461l-.39-1.277c-.46.036-.921.178-1.382.355a5.861 5.861 0 0 0-1.914 1.169v5.423l3.331.567c.321.071.462.354.462.745v2.551c0 .531-.248.744-.745.744h-10.703c-.496 0-.743-.213-.743-.744v-2.551c0-.391.141-.674.46-.745l1.914-.496v-7.23l-1.914-.496c-.319-.072-.46-.354-.46-.744v-2.552c0-.532.247-.745.743-.745h5.813c.531 0 .708.285.815.816l.212.992s1.383-1.382 3.297-1.985c1.843-.567 3.614-.213 4.607.177.46.178.638.32.638.78ZM348.649 170.941h2.48c1.666 0 2.765-1.1 2.765-2.73s-1.099-2.729-2.765-2.729h-2.48v5.459Zm0 5.67v3.083l3.721.886c.319.071.461.354.461.745v2.551c0 .531-.248.744-.744.744H340.25c-.496 0-.744-.213-.744-.744v-2.551c0-.391.141-.639.459-.745l2.304-.815v-15.098l-2.304-.815c-.318-.107-.459-.354-.459-.744v-2.552c0-.531.248-.745.744-.745h11.624c5.032 0 8.4 3.368 8.4 8.4 0 5.033-3.368 8.4-8.4 8.4h-3.225ZM377.072 169.097v4.962c0 .496-.212.745-.744.745h-2.551c-.39 0-.639-.143-.745-.461l-.389-1.277c-.461.036-.922.178-1.383.355a5.861 5.861 0 0 0-1.914 1.169v5.423l3.331.567c.32.071.461.354.461.745v2.551c0 .531-.247.744-.744.744h-10.703c-.496 0-.744-.213-.744-.744v-2.551c0-.391.142-.674.461-.745l1.913-.496v-7.23l-1.913-.496c-.319-.072-.461-.354-.461-.744v-2.552c0-.532.248-.745.744-.745h5.813c.531 0 .708.285.815.816l.212.992s1.383-1.382 3.296-1.985c1.843-.567 3.614-.213 4.608.177.461.178.637.32.637.78ZM384.549 174.413h4.961c-.177-1.276-1.275-2.055-2.481-2.055-1.205 0-2.303.779-2.48 2.055Zm10.384 1.24c.035.567.035.744-.036 1.241-.071.531-.248.744-.78.744h-9.993c.106 1.382 1.205 2.41 3.118 2.41 1.24 0 2.516-.426 3.509-.78.46-.178.78 0 .957.39l1.452 3.155c.178.389 0 .744-.389.956-1.063.567-2.942 1.419-5.423 1.419-5.281 0-8.825-3.9-8.825-8.72 0-4.819 3.544-8.718 8.401-8.718 4.571 0 7.725 3.474 8.009 7.903ZM428.602 181.325v2.551c0 .531-.249.744-.745.744h-6.946c-.531 0-.745-.213-.745-.744v-8.081c0-1.807-1.169-2.729-2.551-2.729-.851 0-1.63.355-2.232.887v6.131l1.949.496c.319.071.46.354.46.745v2.551c0 .531-.248.744-.744.744h-6.946c-.531 0-.745-.213-.745-.744v-8.081c0-1.807-.956-2.729-2.339-2.729-.85 0-1.629.355-2.445.887v6.131l1.95.496c.318.071.459.354.459.745v2.551c0 .531-.247.744-.744.744h-9.32c-.497 0-.744-.213-.744-.744v-2.551c0-.391.141-.674.46-.745l1.914-.496v-7.23l-1.95-.496c-.318-.072-.459-.354-.459-.744v-2.552c0-.532.247-.745.743-.745h5.848c.532 0 .709.285.815.816l.142.673c1.559-1.311 3.615-2.056 5.493-2.056 1.879 0 3.721.745 4.927 2.127l.071-.071c1.913-1.311 3.934-2.056 5.812-2.056 3.153 0 6.202 2.056 6.202 5.813v6.521l1.949.496c.319.071.461.354.461.745ZM432.002 162.364c0-1.702 1.418-3.119 3.155-3.119 1.737 0 3.154 1.417 3.154 3.119a3.16 3.16 0 0 1-3.154 3.154 3.162 3.162 0 0 1-3.155-3.154Zm8.577 18.961v2.551c0 .531-.248.744-.744.744h-9.356c-.496 0-.745-.213-.745-.744v-2.551c0-.391.142-.674.461-.745l1.949-.496v-7.23l-1.913-.496c-.319-.072-.462-.354-.462-.744v-2.552c0-.532.249-.745.745-.745h6.557c.531 0 .708.213.743.745l.355 4.536v6.486l1.949.496c.32.071.461.354.461.745ZM462.906 181.324v2.552c0 .531-.248.744-.745.744h-5.848c-.531 0-.709-.284-.815-.816l-.141-.673c-1.56 1.312-3.615 2.057-5.494 2.057-3.154 0-6.202-2.057-6.202-5.813v-6.521l-1.949-.496c-.319-.072-.46-.355-.46-.745v-2.551c0-.532.248-.745.744-.745h6.592c.531 0 .709.213.744.745l.354 4.536v3.544c0 1.807.957 2.728 2.339 2.728.851 0 1.631-.354 2.445-.885v-6.131l-1.948-.496c-.32-.072-.461-.355-.461-.745v-2.551c0-.532.248-.745.744-.745h6.592c.532 0 .709.213.744.745l.355 4.536v6.485l1.949.497c.319.071.461.354.461.744ZM497.176 181.325v2.551c0 .531-.249.744-.745.744h-6.946c-.531 0-.744-.213-.744-.744v-8.081c0-1.807-1.169-2.729-2.552-2.729-.851 0-1.63.355-2.232.887v6.131l1.949.496c.319.071.46.354.46.745v2.551c0 .531-.248.744-.744.744h-6.946c-.531 0-.745-.213-.745-.744v-8.081c0-1.807-.956-2.729-2.339-2.729-.849 0-1.629.355-2.445.887v6.131l1.95.496c.319.071.46.354.46.745v2.551c0 .531-.248.744-.744.744h-9.32c-.497 0-.745-.213-.745-.744v-2.551c0-.391.142-.674.46-.745l1.914-.496v-7.23l-1.95-.496c-.318-.072-.459-.354-.459-.744v-2.552c0-.532.248-.745.744-.745h5.847c.532 0 .709.285.815.816l.142.673c1.559-1.311 3.616-2.056 5.493-2.056 1.879 0 3.721.745 4.927 2.127l.071-.071c1.914-1.311 3.934-2.056 5.812-2.056 3.154 0 6.202 2.056 6.202 5.813v6.521l1.949.496c.319.071.461.354.461.745ZM573.564 65.175h3.678v8.796h1.948v-8.796h3.637v-1.757h-9.263v1.757ZM593.568 63.418h-1.887l-3.089 7.721-3.089-7.72h-1.886l-.756 10.552h1.908l.468-6.633 2.704 6.633h1.302l2.704-6.633.469 6.633h1.907l-.755-10.553Z" fill="#1E1C1A"/><path d="M310.922.364v3.077" stroke="#17161D" stroke-opacity=".25" stroke-width="1.333" stroke-miterlimit="10"/><path d="M310.922 9.52v240.117" stroke="#17161D" stroke-opacity=".25" stroke-width="1.333" stroke-miterlimit="10" stroke-dasharray="15.81 15.81"/><path d="M310.922 252.675v3.077M569.202 129.288H26.387V62.796h542.815v66.492ZM497.349 209.436H95.369v-79.771h401.98v79.771Z" stroke="#17161D" stroke-opacity=".25" stroke-width="1.333" stroke-miterlimit="10"/><path d="M596.931 129.665H26.547V60.844H596.93v68.821Z" stroke="#17161D" stroke-opacity=".25" stroke-width="1.333" stroke-miterlimit="10"/><path d="M596.93 73.878h-27.633V62.929h27.633v10.949Z" stroke="#17161D" stroke-opacity=".25" stroke-width="1.333" stroke-miterlimit="10"/><path d="M573.468 129.144h-4.171v-68.3h4.171v68.3ZM597.011 209.683H26.391v-80.395h570.62v80.395Z" stroke="#17161D" stroke-opacity=".25" stroke-width="1.333" stroke-miterlimit="10"/><path d="M596.931 184.931H26.547v-25.548H596.93v25.548Z" stroke="#17161D" stroke-opacity=".25" stroke-width="1.333" stroke-miterlimit="10"/><path d="M52.724 33.608c.499 0 .748.25.748.748v2.562c0 .39-.143.64-.463.747l-2.242.783V57.77c0 .499-.25.748-.747.748h-2.74c-.178 0-.356-.107-.463-.142-.035-.107-.356-.462-.498-.606L35.572 45.992v7.686l2.242.783c.32.107.463.357.463.747v2.562c0 .499-.25.748-.748.748h-9.928c-.499 0-.747-.25-.747-.748v-2.562c0-.39.142-.64.462-.747l2.206-.783v-15.23l-2.206-.783c-.32-.107-.462-.356-.462-.747v-2.563c0-.497.248-.747.747-.747h5.409c.177 0 .391.071.427.179.106.035.39.426.534.569L44.717 46.49v-8.042l-2.241-.783c-.32-.107-.463-.356-.463-.747v-2.563c0-.497.25-.747.747-.747h9.964Z" fill="#17161D" fill-opacity=".4"/><path d="M623 209.683H1v-175.9h622v175.9Z" stroke="#17161D" stroke-opacity=".25" stroke-width="1.333" stroke-miterlimit="10"/><path d="M1.195 155.798c0-.499.25-.747.747-.747h2.563c.39 0 .64.142.747.462l.783 2.242h19.322c.499 0 .748.249.748.747v2.74c0 .178-.107.356-.142.463-.107.035-.463.356-.606.498L13.58 172.95h7.686l.783-2.242c.107-.32.357-.463.747-.463h2.562c.499 0 .748.25.748.748v9.928c0 .499-.25.747-.748.747h-2.562c-.39 0-.64-.142-.747-.462L21.265 179H6.035l-.783 2.206c-.107.32-.356.462-.747.462H1.942c-.497 0-.747-.248-.747-.747v-5.409c0-.177.071-.391.179-.427.035-.106.426-.391.568-.534l12.135-10.746H6.035l-.783 2.241c-.107.321-.356.463-.747.463H1.942c-.497 0-.747-.249-.747-.747v-9.964ZM622.347 156.374c0 .499-.25.748-.747.748h-2.562c-.392 0-.64-.143-.748-.463l-.783-2.242h-19.322c-.499 0-.747-.249-.747-.747v-2.74c0-.178.106-.356.141-.463.107-.035.463-.356.606-.498l11.778-10.747h-7.686l-.783 2.242c-.107.32-.356.463-.747.463h-2.562c-.499 0-.747-.25-.747-.747v-9.929c0-.499.248-.747.747-.747h2.562c.391 0 .64.142.747.462l.783 2.206h15.23l.783-2.206c.108-.32.356-.462.748-.462h2.562c.497 0 .747.248.747.747v5.409c0 .177-.071.391-.179.427-.035.106-.426.391-.568.534l-12.135 10.746h8.042l.783-2.241c.108-.321.356-.463.748-.463h2.562c.497 0 .747.249.747.747v9.964ZM586.009 183.81c.498 0 .748.249.748.747v2.562c0 .391-.143.64-.463.747l-2.242.783v19.323c0 .498-.249.747-.747.747h-2.74c-.178 0-.356-.106-.463-.142-.036-.107-.356-.463-.498-.605l-10.747-11.779v7.686l2.242.783c.32.108.463.357.463.748v2.562c0 .498-.249.747-.747.747h-9.929c-.499 0-.747-.249-.747-.747v-2.562c0-.391.142-.64.462-.748l2.206-.783v-15.23l-2.206-.783c-.32-.107-.462-.356-.462-.747v-2.562c0-.498.248-.747.747-.747h5.409c.178 0 .391.07.427.178.106.035.391.426.534.569l10.746 12.135v-8.043l-2.241-.783c-.321-.107-.463-.356-.463-.747v-2.562c0-.498.249-.747.747-.747h9.964Z" fill="#17161D" fill-opacity=".4"/></svg><svg fill="none" viewBox="0 0 560 293" id="bowl-wow-super-premium-cat" xmlns="http://www.w3.org/2000/svg"><path d="M539.473 168.08h3.631v8.684h1.923v-8.684h3.59v-1.734h-9.144v1.734ZM559.216 166.346h-1.862l-3.05 7.622-3.049-7.622h-1.863l-.746 10.418h1.884l.463-6.549 2.669 6.549h1.285l2.669-6.549.463 6.549h1.883l-.746-10.418ZM29.169 215.878c3.3 0 6.052-2.752 6.052-6.054 0-3.302-2.752-6.054-6.052-6.054h-5.505v12.108h5.505Zm-5.505-35.772v8.989h5.962c2.202 0 4.037-2.293 4.037-4.494 0-2.201-1.835-4.495-4.037-4.495h-5.962Zm28.067 32.377c0 5.045-1.743 9.265-5.32 12.843-3.485 3.484-7.704 5.227-12.748 5.227H1.927c-1.284 0-1.927-.643-1.927-1.927v-6.603c0-1.01.367-1.651 1.193-1.926l5.962-2.109v-39.074l-5.962-2.109C.367 176.53 0 175.887 0 174.879v-6.605c0-1.284.643-1.925 1.927-1.925H33.02c4.495 0 8.346 1.559 11.465 4.768 3.21 3.21 4.77 6.972 4.77 11.466 0 5.595-2.844 10.73-7.521 13.758 5.962 2.935 9.997 9.172 9.997 16.142ZM87.324 180.1c-4.953 0-9.08 1.743-12.292 5.32-3.209 3.576-4.768 7.887-4.768 13.024 0 5.136 1.56 9.447 4.768 13.024 3.211 3.578 7.34 5.32 12.292 5.32 4.953 0 8.988-1.742 12.198-5.32 3.212-3.577 4.861-7.888 4.861-13.024 0-5.137-1.649-9.448-4.86-13.024-3.21-3.577-7.246-5.32-12.2-5.32Zm-23.756-5.411c6.512-6.513 14.492-9.815 23.756-9.815 9.263 0 17.243 3.302 23.756 9.815 6.512 6.512 9.813 14.491 9.813 23.755 0 9.265-3.301 17.152-9.905 23.756-6.513 6.512-14.4 9.814-23.664 9.814-9.264 0-17.152-3.302-23.756-9.814-6.512-6.604-9.814-14.491-9.814-23.756 0-9.264 3.302-17.243 9.814-23.755ZM206.522 166.349c1.285 0 1.926.641 1.926 1.925v6.605c0 1.1-.367 1.742-1.192 1.926l-3.027.641-14.308 51.272c-.458 1.467-.917 1.835-2.385 1.835h-7.155c-1.467 0-1.742-.368-2.383-1.835l-13.209-33.111-13.207 33.111c-.643 1.467-.918 1.835-2.385 1.835h-6.971c-1.559 0-1.925-.275-2.385-1.835l-14.216-50.996-3.853-.917c-.825-.184-1.192-.826-1.192-1.926v-6.605c0-1.284.641-1.925 1.926-1.925h21.646c1.284 0 1.926.641 1.926 1.925v6.605c0 1.1-.366 1.742-1.192 1.926l-3.394.733 5.504 21.004 12.381-30.36c.642-1.558.919-1.833 2.386-1.833h6.054c1.467 0 1.742.275 2.383 1.833l12.475 30.36 5.411-20.82-3.943-.917c-.827-.184-1.193-.826-1.193-1.926v-6.605c0-1.284.642-1.925 1.926-1.925h21.646ZM262.563 209.64c1.283 0 1.926.643 1.926 1.927v17.059c0 1.284-.643 1.927-1.926 1.927h-46.962c-1.284 0-1.925-.643-1.925-1.927v-6.603c0-1.01.366-1.651 1.192-1.926l5.962-2.109v-39.074l-5.962-2.109c-.826-.275-1.192-.918-1.192-1.926v-6.605c0-1.284.641-1.925 1.925-1.925h26.324c1.284 0 1.927.641 1.927 1.925v6.605c0 1.008-.368 1.651-1.193 1.926l-5.32 1.833v38.156h14.584l2.11-5.962c.275-.825.916-1.192 1.926-1.192h6.604ZM374.946 166.349c1.284 0 1.926.641 1.926 1.925v6.605c0 1.1-.367 1.742-1.192 1.926l-3.027.641-14.308 51.272c-.459 1.467-.918 1.835-2.386 1.835h-7.154c-1.467 0-1.742-.368-2.384-1.835l-13.208-33.111-13.207 33.111c-.643 1.467-.918 1.835-2.386 1.835h-6.971c-1.559 0-1.925-.275-2.384-1.835l-14.216-50.996-3.853-.917c-.825-.184-1.192-.826-1.192-1.926v-6.605c0-1.284.641-1.925 1.926-1.925h21.646c1.284 0 1.926.641 1.926 1.925v6.605c0 1.1-.367 1.742-1.193 1.926l-3.393.733 5.503 21.004 12.381-30.36c.643-1.558.919-1.833 2.387-1.833h6.053c1.468 0 1.743.275 2.384 1.833l12.475 30.36 5.411-20.82-3.943-.917c-.827-.184-1.194-.826-1.194-1.926v-6.605c0-1.284.642-1.925 1.927-1.925h21.646ZM410.14 180.1c-4.953 0-9.08 1.743-12.29 5.32-3.21 3.576-4.77 7.887-4.77 13.024 0 5.136 1.56 9.447 4.77 13.024 3.21 3.578 7.337 5.32 12.29 5.32 4.954 0 8.989-1.742 12.2-5.32 3.21-3.577 4.861-7.888 4.861-13.024 0-5.137-1.651-9.448-4.861-13.024-3.211-3.577-7.246-5.32-12.2-5.32Zm-23.756-5.411c6.513-6.513 14.492-9.815 23.756-9.815 9.265 0 17.243 3.302 23.756 9.815 6.512 6.512 9.814 14.491 9.814 23.755 0 9.265-3.302 17.152-9.906 23.756-6.512 6.512-14.399 9.814-23.664 9.814-9.264 0-17.151-3.302-23.756-9.814-6.511-6.604-9.814-14.491-9.814-23.756 0-9.264 3.303-17.243 9.814-23.755ZM529.375 166.349c1.284 0 1.927.641 1.927 1.925v6.605c0 1.1-.367 1.742-1.192 1.926l-3.027.641-14.308 51.272c-.459 1.467-.918 1.835-2.386 1.835h-7.153c-1.468 0-1.744-.368-2.385-1.835l-13.207-33.111-13.209 33.111c-.642 1.467-.918 1.835-2.385 1.835h-6.97c-1.56 0-1.927-.275-2.385-1.835l-14.217-50.996-3.852-.917c-.825-.184-1.192-.826-1.192-1.926v-6.605c0-1.284.642-1.925 1.927-1.925h21.645c1.284 0 1.927.641 1.927 1.925v6.605c0 1.1-.368 1.742-1.194 1.926l-3.392.733 5.502 21.004 12.383-30.36c.642-1.558.917-1.833 2.384-1.833h6.054c1.468 0 1.743.275 2.385 1.833l12.474 30.36 5.411-20.82-3.943-.917c-.826-.184-1.194-.826-1.194-1.926v-6.605c0-1.284.643-1.925 1.927-1.925h21.645ZM93.377 262.246v2.52c0 .384-.14.629-.456.734l-2.203.769v19c0 .524-.21.734-.735.734H87.29c-.385 0-.49-.245-.945-.734l-10.567-11.582v7.558l2.205.77c.315.105.455.349.455.735v2.519c0 .524-.245.734-.735.734H67.94c-.49 0-.735-.21-.735-.734v-2.519c0-.386.14-.63.455-.735l2.17-.77v-14.976l-2.17-.769c-.315-.105-.455-.35-.455-.734v-2.52c0-.525.245-.735.735-.735h5.319c.384 0 .49.245.944.735l10.567 11.931v-7.908l-2.205-.769c-.315-.105-.455-.35-.455-.734v-2.52c0-.525.245-.735.735-.735h9.797c.49 0 .735.21.735.735ZM100.824 282.226c.455-.105.84-.315 1.224-.595v-.769c-2.519-1.085-3.253-.211-3.253.56 0 .735.98 1.084 2.029.804Zm8.922.525v2.519c0 .524-.245.734-.735.734h-5.528c-.525 0-.875-.314-1.119-.804l-.21-.42c-1.05.91-2.345 1.61-3.884 1.61-2.834 0-5.143-1.96-5.143-4.759 0-2.834 2.344-6.263 8.921-4.409v-.944c0-.84-.454-2.45-2.869-2.45-.21 0-.42 0-.63.036l-.42 1.364c-.104.315-.35.456-.734.456h-2.519c-.525 0-.735-.246-.735-.736l.035-3.744c0-.419.035-.664.42-.804 1.75-.631 3.814-1.05 5.598-1.05 4.899 0 7.173 2.485 7.173 5.144v7.032l1.924.49c.315.071.455.35.455.735ZM124.227 285.512c-1.714.664-3.639 1.049-5.318 1.049-4.653 0-6.054-2.835-6.054-5.494v-6.473h-1.714c-.525 0-.735-.209-.735-.734v-3.219c0-.525.21-.735.735-.735h1.714v-3.639c0-.524.21-.734.735-.734h4.479c.525 0 .735.21.735.734v3.639h3.463c.525 0 .735.21.735.735v3.219c0 .525-.21.734-.735.734h-3.463v4.445c0 .839-.035 2.273 1.958 2.203.526-.034 1.121-.175 1.751-.384.489-.176.769-.106.944.384l1.155 3.325c.174.489.034.769-.385.945ZM146.34 282.747v2.519c0 .525-.244.735-.734.735h-5.773c-.525 0-.7-.28-.805-.805l-.14-.665c-1.54 1.295-3.569 2.03-5.423 2.03-3.114 0-6.123-2.03-6.123-5.739v-6.437l-1.925-.49c-.314-.071-.454-.35-.454-.735v-2.519c0-.525.244-.735.735-.735h6.508c.524 0 .699.21.734.735l.35 4.478v3.5c0 1.783.945 2.693 2.309 2.693.84 0 1.609-.35 2.415-.874v-6.053l-1.925-.49c-.315-.071-.455-.35-.455-.735v-2.519c0-.525.245-.735.735-.735h6.508c.525 0 .7.21.734.735l.35 4.478v6.403l1.925.49c.315.071.454.35.454.735ZM164.059 270.679v4.898c0 .49-.211.735-.735.735h-2.519c-.385 0-.63-.141-.735-.455l-.385-1.261c-.455.036-.909.176-1.365.35a5.816 5.816 0 0 0-1.889 1.156v5.353l3.289.56c.315.07.455.349.455.735v2.519c0 .524-.244.734-.735.734h-10.566c-.49 0-.735-.21-.735-.734v-2.519c0-.386.14-.665.455-.735l1.889-.49v-7.138l-1.889-.49c-.315-.07-.455-.35-.455-.735v-2.519c0-.525.245-.734.735-.734h5.738c.525 0 .699.28.804.805l.21.979s1.365-1.364 3.254-1.959c1.82-.56 3.569-.21 4.548.175.456.175.631.314.631.77ZM172.478 282.226c.455-.105.84-.315 1.225-.595v-.769c-2.519-1.085-3.254-.211-3.254.56 0 .735.98 1.084 2.029.804Zm8.923.525v2.519c0 .524-.246.734-.735.734h-5.529c-.525 0-.875-.314-1.119-.804l-.21-.42c-1.05.91-2.345 1.61-3.884 1.61-2.834 0-5.143-1.96-5.143-4.759 0-2.834 2.344-6.263 8.922-4.409v-.944c0-.84-.455-2.45-2.869-2.45-.21 0-.419 0-.63.036l-.42 1.364c-.105.315-.349.456-.734.456h-2.519c-.526 0-.736-.246-.736-.736l.035-3.744c0-.419.035-.664.421-.804 1.749-.631 3.813-1.05 5.598-1.05 4.898 0 7.172 2.485 7.172 5.144v7.032l1.924.49c.316.071.456.35.456.735ZM191.856 281.455v3.814c0 .524-.21.734-.734.734-5.738 0-8.048-2.134-8.048-7.417V265.99l-1.889-.49c-.315-.069-.455-.35-.455-.734v-2.52c0-.525.245-.735.735-.735h6.473c.525 0 .63.21.735.735l.35 1.854v14.486c0 1.329.56 2.134 2.099 2.134.524 0 .734.21.734.735ZM202.08 278.094c0-.49.21-.736.734-.736h2.52c.385 0 .489.176.664.666l.77 2.169c.91.699 1.644 1.119 3.079 1.119 1.435 0 2.799-.56 3.009-1.889.595-3.849-10.427-3.919-10.497-11.441-.034-3.919 3.15-7.033 8.468-7.033 2.134 0 4.724.525 6.928 1.925.385.245.525.524.525.839v4.898c0 .49-.21.735-.736.735h-2.519c-.384 0-.524-.175-.665-.665l-.56-1.679c-.874-.49-1.958-.805-2.903-.805-1.819 0-2.625 1.156-2.415 2.065.665 2.903 10.637 3.848 10.637 10.847 0 4.617-4.304 7.452-9.027 7.452-3.219 0-5.634-1.12-7.557-2.799-.28-.245-.42-.42-.455-.63v-5.038ZM242.028 282.747v2.519c0 .525-.245.735-.734.735h-5.774c-.524 0-.699-.28-.804-.805l-.141-.665c-1.539 1.295-3.568 2.03-5.422 2.03-3.115 0-6.123-2.03-6.123-5.739v-6.437l-1.925-.49c-.315-.071-.455-.35-.455-.735v-2.519c0-.525.245-.735.735-.735h6.508c.525 0 .7.21.734.735l.35 4.478v3.5c0 1.783.945 2.693 2.309 2.693.84 0 1.61-.35 2.415-.874v-6.053l-1.925-.49c-.314-.071-.454-.35-.454-.735v-2.519c0-.525.244-.735.734-.735h6.509c.524 0 .699.21.734.735l.35 4.478v6.403l1.924.49c.316.071.455.35.455.735ZM257.975 277.955c0-1.89-1.54-3.36-3.569-3.36-.945 0-1.749.316-2.274.561v5.808c.315.139 1.189.524 2.204.524 2.099 0 3.639-1.643 3.639-3.533Zm5.598.21c-.14 4.583-3.639 8.362-8.187 8.222a8.711 8.711 0 0 1-3.254-.735v2.799l2.939.56c.315.07.455.35.455.735v2.519c0 .525-.246.735-.735.735h-10.252c-.49 0-.734-.21-.734-.735v-2.519c0-.385.14-.665.454-.735l1.925-.49v-14.135l-1.925-.49c-.314-.07-.454-.35-.454-.735v-2.519c0-.525.244-.735.734-.735h5.773c.525 0 .7.28.805.806l.07.314c1.085-.595 2.17-1.085 3.429-1.295 4.898-.805 9.132 3.185 8.957 8.433ZM271.44 275.924h4.899c-.175-1.259-1.26-2.029-2.45-2.029-1.189 0-2.274.77-2.449 2.029Zm10.252 1.225c.034.559.034.735-.035 1.225-.07.524-.245.735-.77.735h-9.867c.105 1.364 1.19 2.378 3.079 2.378 1.225 0 2.485-.42 3.464-.77.455-.174.77 0 .945.385l1.434 3.115c.176.384 0 .734-.384.945-1.05.559-2.905 1.399-5.354 1.399-5.213 0-8.712-3.849-8.712-8.607 0-4.759 3.499-8.608 8.293-8.608 4.513 0 7.627 3.43 7.907 7.803ZM298.8 270.679v4.898c0 .49-.209.735-.735.735h-2.518c-.385 0-.63-.141-.735-.455l-.385-1.261c-.455.036-.91.176-1.364.35a5.827 5.827 0 0 0-1.891 1.156v5.353l3.29.56c.315.07.455.349.455.735v2.519c0 .524-.245.734-.735.734h-10.567c-.489 0-.734-.21-.734-.734v-2.519c0-.386.14-.665.454-.735l1.89-.49v-7.138l-1.89-.49c-.314-.07-.454-.35-.454-.735v-2.519c0-.525.245-.734.734-.734h5.739c.524 0 .699.28.804.805l.211.979s1.364-1.364 3.253-1.959c1.82-.56 3.569-.21 4.549.175.455.175.629.314.629.77ZM317.499 272.498h2.449c1.645 0 2.73-1.085 2.73-2.694 0-1.61-1.085-2.695-2.73-2.695h-2.449v5.389Zm0 5.598v3.043l3.674.876c.316.07.455.349.455.735v2.519c0 .524-.245.734-.734.734h-11.687c-.49 0-.734-.21-.734-.734v-2.519c0-.386.14-.63.454-.735l2.275-.805v-14.905l-2.275-.805c-.314-.105-.454-.35-.454-.734v-2.52c0-.525.244-.735.734-.735h11.477c4.968 0 8.292 3.324 8.292 8.293 0 4.968-3.324 8.292-8.292 8.292h-3.185ZM345.524 270.679v4.898c0 .49-.211.735-.736.735h-2.518c-.386 0-.63-.141-.735-.455l-.385-1.261c-.455.036-.91.176-1.365.35a5.795 5.795 0 0 0-1.889 1.156v5.353l3.289.56c.315.07.455.349.455.735v2.519c0 .524-.245.734-.735.734h-10.567c-.489 0-.734-.21-.734-.734v-2.519c0-.386.139-.665.454-.735l1.889-.49v-7.138l-1.889-.49c-.315-.07-.454-.35-.454-.735v-2.519c0-.525.245-.734.734-.734h5.739c.524 0 .699.28.804.805l.211.979s1.364-1.364 3.253-1.959c1.819-.56 3.569-.21 4.548.175.456.175.631.314.631.77ZM352.919 275.924h4.898c-.175-1.259-1.259-2.029-2.449-2.029s-2.274.77-2.449 2.029Zm10.251 1.225c.035.559.035.735-.035 1.225-.07.524-.245.735-.77.735h-9.866c.104 1.364 1.189 2.378 3.079 2.378 1.225 0 2.484-.42 3.464-.77.454-.174.769 0 .945.385l1.434 3.115c.174.384 0 .734-.385.945-1.049.559-2.905 1.399-5.353 1.399-5.214 0-8.712-3.849-8.712-8.607 0-4.759 3.498-8.608 8.292-8.608 4.513 0 7.627 3.43 7.907 7.803ZM396.409 282.75v2.519c0 .524-.246.734-.735.734h-6.857c-.526 0-.736-.21-.736-.734v-7.978c0-1.784-1.154-2.695-2.519-2.695-.84 0-1.609.35-2.204.875v6.054l1.925.49c.314.07.454.349.454.735v2.519c0 .524-.245.734-.734.734h-6.858c-.525 0-.735-.21-.735-.734v-7.978c0-1.784-.945-2.695-2.309-2.695-.84 0-1.61.35-2.415.875v6.054l1.925.49c.314.07.454.349.454.735v2.519c0 .524-.244.734-.734.734h-9.202c-.49 0-.735-.21-.735-.734v-2.519c0-.386.141-.665.455-.735l1.89-.49v-7.138l-1.925-.49c-.315-.07-.455-.35-.455-.735v-2.519c0-.525.245-.734.735-.734h5.773c.525 0 .7.28.805.805l.139.664c1.54-1.294 3.57-2.03 5.424-2.03 1.854 0 3.674.736 4.863 2.1l.07-.07c1.89-1.294 3.884-2.03 5.738-2.03 3.114 0 6.123 2.03 6.123 5.739v6.438l1.925.49c.314.07.455.349.455.735ZM399.749 264.03c0-1.678 1.399-3.079 3.114-3.079 1.714 0 3.114 1.401 3.114 3.079a3.12 3.12 0 0 1-3.114 3.114 3.12 3.12 0 0 1-3.114-3.114Zm8.467 18.72v2.519c0 .524-.245.734-.734.734h-9.238c-.49 0-.734-.21-.734-.734v-2.519c0-.386.14-.665.454-.735l1.925-.49v-7.138l-1.889-.49c-.316-.07-.456-.35-.456-.735v-2.519c0-.525.245-.734.736-.734h6.472c.524 0 .699.209.735.734l.35 4.479v6.403l1.924.49c.315.07.455.349.455.735ZM430.253 282.747v2.519c0 .525-.245.735-.735.735h-5.773c-.525 0-.7-.28-.804-.805l-.141-.665c-1.54 1.295-3.568 2.03-5.423 2.03-3.114 0-6.123-2.03-6.123-5.739v-6.437l-1.924-.49c-.315-.071-.455-.35-.455-.735v-2.519c0-.525.245-.735.734-.735h6.509c.525 0 .699.21.734.735l.35 4.478v3.5c0 1.783.945 2.693 2.309 2.693.841 0 1.61-.35 2.415-.874v-6.053l-1.924-.49c-.316-.071-.456-.35-.456-.735v-2.519c0-.525.245-.735.735-.735h6.508c.525 0 .7.21.735.735l.349 4.478v6.403l1.925.49c.315.071.455.35.455.735ZM464.108 282.75v2.519c0 .524-.245.734-.735.734h-6.857c-.525 0-.735-.21-.735-.734v-7.978c0-1.784-1.155-2.695-2.52-2.695-.839 0-1.609.35-2.204.875v6.054l1.925.49c.314.07.454.349.454.735v2.519c0 .524-.245.734-.734.734h-6.858c-.525 0-.735-.21-.735-.734v-7.978c0-1.784-.945-2.695-2.309-2.695-.84 0-1.609.35-2.414.875v6.054l1.924.49c.315.07.455.349.455.735v2.519c0 .524-.245.734-.735.734h-9.202c-.49 0-.735-.21-.735-.734v-2.519c0-.386.141-.665.455-.735l1.89-.49v-7.138l-1.925-.49c-.314-.07-.454-.35-.454-.735v-2.519c0-.525.244-.734.734-.734h5.773c.525 0 .7.28.805.805l.14.664c1.539-1.294 3.569-2.03 5.423-2.03 1.855 0 3.674.736 4.863 2.1l.07-.07c1.89-1.294 3.884-2.03 5.738-2.03 3.115 0 6.124 2.03 6.124 5.739v6.438l1.924.49c.315.07.455.349.455.735ZM315.843 82.307c0 5.188-.559 9.65-1.678 13.384-1.118 3.734-2.549 6.853-4.293 9.358-1.744 2.504-3.69 4.439-5.837 5.802-2.146 1.365-4.226 2.248-6.238 2.651-.76 1.297-1.42 2.202-1.979 2.716-.559.515-.928.817-1.107.906-.268.224-.626.425-1.073.604-.447.178-.917.335-1.409.47-.537.178-1.096.312-1.677.402h-26.028c-.762 0-1.555-.055-2.383-.168a8.45 8.45 0 0 1-2.247-.603 4.457 4.457 0 0 1-1.677-1.242c-.447-.536-.671-1.23-.671-2.079 0-.895.548-1.577 1.644-2.046 1.096-.47 2.315-.817 3.656-1.04 1.52-.268 3.287-.448 5.3-.537a28.319 28.319 0 0 1-1.208-.805 51.732 51.732 0 0 1-1.341-.873c-.537-.357-1.119-.737-1.745-1.139-.626-.314-1.252-.884-1.877-1.711a20.915 20.915 0 0 1-1.779-2.818 29.916 29.916 0 0 1-1.509-3.32 33.796 33.796 0 0 1-1.073-3.221 6.767 6.767 0 0 1-.135-1.341c0-.716.056-1.553.168-2.515.112-.962.246-1.923.402-2.885.157-.962.291-1.867.404-2.717.11-.85.167-1.543.167-2.08 0-.626-.112-.939-.336-.939-.178 0-.424.201-.738.604-.492.581-1.062 1.576-1.71 2.986a119.727 119.727 0 0 0-2.08 4.83 137.522 137.522 0 0 0-2.18 5.735 243.749 243.749 0 0 0-1.945 5.669 85.113 85.113 0 0 0-1.409 4.662c-.358 1.341-.537 2.236-.537 2.683 0 .716-.146 1.443-.436 2.18a5.865 5.865 0 0 1-1.342 2.013c-.603.604-1.387 1.096-2.348 1.476-.961.38-2.135.57-3.522.57-2.817 0-4.919-.392-6.306-1.174-1.386-.782-2.079-2.023-2.079-3.723 0-.85.302-1.632.905-2.347a12.51 12.51 0 0 1 2.013-1.913 41.892 41.892 0 0 1 2.114-1.509c.67-.447 1.072-.85 1.207-1.208.088-.223.246-1.028.469-2.415.224-1.386.469-3.063.738-5.031.269-1.969.537-4.103.805-6.407.268-2.303.514-4.472.738-6.507a238.4 238.4 0 0 0 .537-5.366c.134-1.544.201-2.539.201-2.986 0-.448-.324-1.33-.973-2.65a84.898 84.898 0 0 0-2.448-4.562 567.94 567.94 0 0 0-3.187-5.5 295.66 295.66 0 0 1-3.187-5.568 84.578 84.578 0 0 1-2.448-4.696c-.648-1.364-.973-2.337-.973-2.918 0-.806.145-1.901.437-3.288.29-1.386.626-2.829 1.006-4.327a123.29 123.29 0 0 0 1.005-4.26c.292-1.34.437-2.325.437-2.952 0-.268-.022-.446-.068-.536-.222-.358-.737-.592-1.542-.705a19.658 19.658 0 0 0-2.683-.167c-.537 0-1.051.011-1.543.034-.492.022-.94.055-1.342.1-.491.045-.917.067-1.275.067a62.206 62.206 0 0 0-1.476-2.549c-.402-.626-.794-1.241-1.174-1.845-.38-.603-.659-.995-.839-1.174a10.036 10.036 0 0 1-.737-1.04 2.532 2.532 0 0 1-.402-1.375c0-.358.078-.681.234-.973.156-.29.459-.593.905-.905.493-.357 1.052-.906 1.678-1.644a37.116 37.116 0 0 0 1.811-2.314 51.49 51.49 0 0 0 1.946-3.02l3.622-4.896c.538-.491 1.208-.983 2.013-1.476.671-.402 1.509-.816 2.516-1.242 1.006-.424 2.202-.792 3.588-1.106a7.769 7.769 0 0 1-.167-1.241 26.64 26.64 0 0 1-.034-1.376c0-.626-.111-1.274-.335-1.945-.224-.67-.48-1.297-.772-1.878a84.016 84.016 0 0 0-.771-1.51c-.224-.424-.335-.703-.335-.838 0-.089.021-.134.067-.134 1.386 0 2.705.414 3.958 1.241 1.252.827 2.403 1.8 3.454 2.918 1.051 1.118 1.935 2.225 2.65 3.32a63.616 63.616 0 0 1 1.543 2.449 18.31 18.31 0 0 1 5.334 3.757 31.22 31.22 0 0 1 4.125 5.199 45.12 45.12 0 0 1 3.153 5.87 176.29 176.29 0 0 1 2.448 5.77 179.83 179.83 0 0 0 2.046 4.896c.626 1.432 1.254 2.505 1.88 3.22.536.627 1.498 1.163 2.884 1.61a87.95 87.95 0 0 0 4.93 1.41c1.901.491 3.981 1.095 6.24 1.81a43.537 43.537 0 0 1 6.775 2.818c2.258 1.163 4.45 2.617 6.574 4.36 2.124 1.744 4.003 3.891 5.635 6.44 1.632 2.55 2.941 5.58 3.924 9.09.984 3.511 1.476 7.637 1.476 12.378 0 5.009-.134 9.347-.402 13.014-.269 3.667-.694 6.865-1.274 9.594.804-.805 1.565-1.8 2.28-2.986.715-1.185 1.364-2.582 1.946-4.193.581-1.61 1.039-3.454 1.375-5.534.336-2.08.503-4.439.503-7.078 0-4.248-.324-8.128-.972-11.639-.649-3.51-1.521-6.72-2.617-9.627-1.096-2.906-2.337-5.535-3.723-7.882-1.387-2.348-2.84-4.473-4.36-6.373a62.375 62.375 0 0 0-4.563-5.132 163.907 163.907 0 0 0-4.226-4.092 116.248 116.248 0 0 1-4.024-3.959c-1.119-1.161-1.946-2.37-2.483-3.622-.805-1.788-1.375-3.533-1.71-5.232-.337-1.7-.503-3.31-.503-4.83 0-1.7.178-3.22.536-4.562.358-1.342.827-2.46 1.409-3.354a5.001 5.001 0 0 1 1.609-1.376 4.08 4.08 0 0 1 1.946-.503c.761 0 1.499.246 2.214.738 1.297.895 1.946 2.057 1.946 3.489 0 .805-.246 1.565-.738 2.281-.135.223-.257.604-.369 1.14-.112.537-.168 1.208-.168 2.013 0 .895.101 1.934.302 3.12.201 1.184.593 2.448 1.174 3.79.269.402.861 1.073 1.777 2.012.918.94 1.868 1.855 2.852 2.75a380.377 380.377 0 0 1 4.528 4.462c1.677 1.676 3.377 3.6 5.098 5.768 1.722 2.17 3.387 4.607 4.998 7.313 1.61 2.705 3.052 5.724 4.326 9.057 1.275 3.33 2.293 7.01 3.054 11.035.76 4.025 1.14 8.43 1.14 13.215Z" fill="#1E1C1A"/></svg><svg fill="none" viewBox="0 0 561 296" id="bowl-wow-super-premium-dog" xmlns="http://www.w3.org/2000/svg"><path d="M539.547 171.077h3.627v8.683h1.924v-8.683h3.593v-1.735h-9.144v1.735ZM559.293 169.342h-1.854l-3.054 7.622-3.045-7.622h-1.871l-.748 10.418h1.888l.459-6.55 2.679 6.55h1.285l2.662-6.55.468 6.55h1.88l-.749-10.418Z" fill="#1E1C1A"/><path fill-rule="evenodd" clip-rule="evenodd" d="M332.496 117.309c-1.791-.134-3.568-.252-5.321-.404h-.007c-1.315-.312-2.676-.426-3.891-.445a39.7 39.7 0 0 1-2.538-.448c-3.952-.858-6.681-.431-10.226-2.461-2.453-1.413-4.545-3.412-5.621-6.063-.838-2.034-2.453-9.326-2.484-11.483-.038 0-.069.01-.107.01a6.03 6.03 0 0 0-.062-.64 22.66 22.66 0 0 0-1.169-5.174c0-.01-.007-.032-.007-.045-1.561-6.774-2.484-9.643-7.682-17.216l-8.466-12.216c-2.145-3.128-4.075-5.578-6.059-7.723-1.883-2.02-3.821-3.772-6.051-5.555-1.892-1.514-3.998-3.06-6.459-4.832l-6.167-8.344-.015-.023-1.646-4.064c-2.937-7.474-7.258-19.375-9.434-23.788-.016-.013-.016-.023-.023-.034-.316-.645-.592-1.119-.808-1.401-4.213-5.556-21.322-5.646-24.69 1.198a5.225 5.225 0 0 0-.461 1.332l-.454 1.501c-.453 1.638-2.53 3.556-4.029 4.382l-.792.45-.069.035-5.652 3.125-2.476 1.368a2.165 2.165 0 0 0-.945 2.744l1.376 2.133 2.484 3.884c.1.237.215.462.338.689.092.158.185.292.269.44a6.803 6.803 0 0 0 2.115 2.066 6.983 6.983 0 0 0 4.321 1.074c.208.044.407.067.615.09.315.044.615.053.923.053.792 0 1.568-.11 2.33-.28 4.306-1.004 6.082-1.83 7.55.453 1.953 1.953-1.83 6.083-1.899 11.525a33.06 33.06 0 0 0 .784 7.156c-.007.002-.007.007-.007.008a21.025 21.025 0 0 0-.646 3.286 22.902 22.902 0 0 0 .869 9.495c.515 1.683 1.245 3.3 2.137 4.848.777 7.712 1.623 19.702 2.461 22.403 1.053 3.363 2.153 5.823 2.191 9.387.046 4.795.523 9.101-.523 13.698-.23 1.007-.407.827-1.353 1.303-1.991.994-3.175 2.041-3.183 3.428-.008 1.06.823 3.067 2.03 3.147 3.368.224 4.783.188 7.774.179 1.276-.003 2.029-.194 2.975-1.14 1.892-1.892 1.492-5.54 1.538-8.077.062-3.769.523-7.693.892-11.492.269-2.856.761-11.228 1.246-15.803 3.514 2.021 10.211 5.837 10.211 5.837.654.282 1.315.541 1.976.79.069.033.123.057.192.078a17.881 17.881 0 0 0-1.238 6.555c0 7.27 4.345 13.311 10.873 16.9l-.262.036-7.681-.519c-6.69-.283-9.758 6.13-5.206 6.852h39.015c.685 0 1.338-.113 1.946-.313l.008.004c.03-.014.076-.024.107-.047a2.99 2.99 0 0 0 .431-.17c.161-.056.315-.134.476-.224 1.277-.644 2.2-1.649 2.846-2.936v-.007.001c4.744 3.242 10.618 4.301 16.262 4.561 9.965.452 19.877.745 29.834.316 1-.044 1.999-.09 3.007-.145-5.852-4.031-12.295-4.833-18.593-5.308Z" fill="#1E1C1A"/><path d="M29.173 218.882c3.299 0 6.051-2.752 6.051-6.054 0-3.302-2.752-6.053-6.051-6.053h-5.506v12.107h5.506Zm-5.506-35.771v8.989h5.96c2.206 0 4.036-2.293 4.036-4.494 0-2.201-1.83-4.495-4.036-4.495h-5.96Zm28.066 32.377c0 5.044-1.745 9.263-5.321 12.841-3.483 3.484-7.704 5.227-12.749 5.227H1.93c-1.284 0-1.93-.643-1.93-1.927v-6.602c0-1.01.37-1.651 1.2-1.926l5.959-2.109V181.92l-5.96-2.11C.37 179.535 0 178.892 0 177.884v-6.604c0-1.284.646-1.925 1.93-1.925h31.095c4.49 0 8.343 1.559 11.465 4.768 3.206 3.21 4.767 6.971 4.767 11.465 0 5.595-2.845 10.73-7.52 13.758 5.96 2.935 9.996 9.171 9.996 16.142ZM87.325 183.108c-4.952 0-9.08 1.744-12.287 5.321-3.214 3.576-4.767 7.886-4.767 13.024 0 5.135 1.553 9.446 4.767 13.023 3.206 3.578 7.335 5.319 12.287 5.319 4.952 0 8.989-1.741 12.203-5.319 3.206-3.577 4.859-7.888 4.859-13.023 0-5.138-1.653-9.448-4.86-13.024-3.213-3.577-7.25-5.321-12.202-5.321Zm-23.752-5.41c6.513-6.513 14.487-9.814 23.752-9.814 9.266 0 17.247 3.301 23.76 9.814 6.513 6.512 9.811 14.491 9.811 23.755s-3.299 17.15-9.904 23.754c-6.512 6.512-14.401 9.814-23.667 9.814-9.265 0-17.147-3.302-23.752-9.814-6.513-6.604-9.811-14.49-9.811-23.754 0-9.264 3.298-17.243 9.811-23.755ZM206.536 169.355c1.284 0 1.922.641 1.922 1.925v6.604c0 1.101-.361 1.743-1.192 1.926l-3.021.642-14.31 51.27c-.461 1.467-.915 1.834-2.384 1.834h-7.158c-1.461 0-1.738-.367-2.384-1.834l-13.202-33.11-13.21 33.11c-.639 1.467-.915 1.834-2.384 1.834h-6.974c-1.553 0-1.922-.275-2.384-1.834l-14.21-50.995-3.859-.917c-.823-.183-1.192-.825-1.192-1.926v-6.604c0-1.284.646-1.925 1.93-1.925h21.645c1.284 0 1.922.641 1.922 1.925v6.604c0 1.101-.361 1.743-1.192 1.926l-3.391.733 5.506 21.004 12.379-30.359c.639-1.558.915-1.833 2.384-1.833h6.052c1.468 0 1.745.275 2.383 1.833l12.48 30.359 5.405-20.82-3.937-.917c-.83-.183-1.199-.825-1.199-1.926v-6.604c0-1.284.646-1.925 1.93-1.925h21.645ZM262.568 212.644c1.284 0 1.922.643 1.922 1.927v17.058c0 1.284-.638 1.927-1.922 1.927H215.61c-1.284 0-1.93-.643-1.93-1.927v-6.602c0-1.01.369-1.651 1.192-1.926l5.966-2.109V181.92l-5.966-2.11c-.823-.275-1.192-.918-1.192-1.926v-6.604c0-1.284.646-1.925 1.93-1.925h26.32c1.284 0 1.922.641 1.922 1.925v6.604c0 1.008-.361 1.651-1.192 1.926l-5.313 1.833v38.155h14.579l2.114-5.961c.269-.825.915-1.193 1.923-1.193h6.605ZM374.915 169.355c1.284 0 1.922.641 1.922 1.925v6.604c0 1.101-.369 1.743-1.192 1.926l-3.029.642-14.302 51.27c-.461 1.467-.923 1.834-2.391 1.834h-7.151c-1.469 0-1.746-.367-2.384-1.834l-13.21-33.11-13.202 33.11c-.646 1.467-.923 1.834-2.392 1.834h-6.966c-1.561 0-1.923-.275-2.384-1.834l-14.217-50.995-3.853-.917c-.822-.183-1.191-.825-1.191-1.926v-6.604c0-1.284.638-1.925 1.93-1.925h21.645c1.276 0 1.922.641 1.922 1.925v6.604c0 1.101-.369 1.743-1.192 1.926l-3.391.733 5.498 21.004 12.38-30.359c.646-1.558.922-1.833 2.391-1.833h6.051c1.469 0 1.746.275 2.384 1.833l12.472 30.359 5.413-20.82-3.944-.917c-.823-.183-1.192-.825-1.192-1.926v-6.604c0-1.284.646-1.925 1.93-1.925h21.645ZM410.154 183.109c-4.956 0-9.086 1.743-12.288 5.32-3.218 3.576-4.777 7.887-4.777 13.024 0 5.136 1.559 9.446 4.777 13.023 3.202 3.578 7.332 5.32 12.288 5.32 4.947 0 8.984-1.742 12.194-5.32 3.21-3.577 4.862-7.887 4.862-13.023 0-5.137-1.652-9.448-4.862-13.024-3.21-3.577-7.247-5.32-12.194-5.32Zm-23.766-5.411c6.514-6.513 14.493-9.814 23.766-9.814 9.264 0 17.235 3.301 23.749 9.814 6.514 6.512 9.81 14.491 9.81 23.755s-3.296 17.151-9.903 23.755c-6.514 6.511-14.392 9.813-23.656 9.813-9.273 0-17.158-3.302-23.766-9.813-6.506-6.604-9.81-14.491-9.81-23.755s3.304-17.243 9.81-23.755ZM529.354 169.352c1.283 0 1.924.64 1.924 1.925v6.604c0 1.1-.366 1.742-1.191 1.927l-3.032.641-14.301 51.27c-.458 1.467-.925 1.834-2.391 1.834h-7.155c-1.466 0-1.74-.367-2.382-1.834l-13.21-33.11-13.202 33.11c-.641 1.467-.916 1.834-2.382 1.834h-6.972c-1.566 0-1.932-.275-2.382-1.834l-14.218-50.995-3.857-.916c-.824-.185-1.191-.827-1.191-1.927v-6.604c0-1.285.65-1.925 1.933-1.925h21.648c1.282 0 1.915.64 1.915 1.925v6.604c0 1.1-.366 1.742-1.191 1.927l-3.39.732 5.497 21.004 12.386-30.36c.642-1.557.916-1.832 2.391-1.832h6.047c1.466 0 1.749.275 2.382 1.832l12.477 30.36 5.414-20.82-3.948-.916c-.824-.185-1.191-.827-1.191-1.927v-6.604c0-1.285.642-1.925 1.933-1.925h21.639ZM93.37 265.248v2.519c0 .385-.139.63-.454.735l-2.207.769v18.999c0 .524-.208.734-.73.734h-2.7c-.384 0-.484-.245-.945-.734l-10.565-11.581v7.557l2.207.77c.315.105.453.349.453.735v2.519c0 .524-.246.734-.73.734h-9.766c-.492 0-.738-.21-.738-.734v-2.519c0-.386.146-.63.462-.735l2.168-.77v-14.975l-2.168-.769c-.316-.105-.462-.35-.462-.735v-2.519c0-.525.246-.735.738-.735h5.321c.385 0 .485.245.946.735l10.565 11.931v-7.908l-2.207-.769c-.315-.105-.453-.35-.453-.735v-2.519c0-.525.246-.735.73-.735h9.796c.492 0 .738.21.738.735ZM100.837 285.227c.454-.105.839-.315 1.223-.594v-.77c-2.522-1.085-3.252-.211-3.252.56 0 .735.976 1.085 2.029.804Zm8.92.525v2.519c0 .524-.246.734-.738.734h-5.529c-.523 0-.869-.314-1.115-.804l-.207-.42c-1.054.91-2.346 1.61-3.891 1.61-2.83 0-5.136-1.96-5.136-4.758 0-2.835 2.337-6.263 8.919-4.409v-.945c0-.84-.454-2.449-2.868-2.449-.215 0-.423 0-.63.035l-.423 1.365c-.1.314-.346.455-.73.455h-2.523c-.523 0-.73-.246-.73-.736l.03-3.743c0-.42.039-.664.423-.804 1.746-.631 3.814-1.051 5.598-1.051 4.898 0 7.166 2.485 7.166 5.144v7.032l1.93.49c.316.071.454.35.454.735ZM124.247 288.511c-1.715.664-3.645 1.049-5.321 1.049-4.652 0-6.051-2.835-6.051-5.494v-6.473h-1.715c-.523 0-.738-.209-.738-.734v-3.219c0-.525.215-.734.738-.734h1.715v-3.639c0-.525.207-.734.73-.734h4.483c.523 0 .731.209.731.734v3.639h3.467c.523 0 .731.209.731.734v3.219c0 .525-.208.734-.731.734h-3.467v4.445c0 .84-.031 2.274 1.96 2.204.523-.035 1.123-.176 1.753-.385.485-.175.769-.105.938.385l1.162 3.324c.169.49.03.769-.385.945ZM146.347 285.746v2.519c0 .525-.246.735-.731.735h-5.774c-.523 0-.7-.28-.808-.804l-.138-.666c-1.538 1.295-3.568 2.03-5.421 2.03-3.114 0-6.121-2.03-6.121-5.738v-6.438l-1.93-.489c-.315-.071-.453-.35-.453-.735v-2.52c0-.525.246-.734.738-.734h6.505c.523 0 .7.209.738.734l.346 4.479v3.499c0 1.784.946 2.694 2.307 2.694.846 0 1.615-.35 2.414-.875v-6.053l-1.922-.489c-.315-.071-.454-.35-.454-.735v-2.52c0-.525.246-.734.731-.734h6.513c.522 0 .699.209.73.734l.354 4.479v6.403l1.922.489c.315.071.454.35.454.735ZM164.077 273.68v4.898c0 .49-.208.735-.731.735h-2.522c-.384 0-.63-.14-.73-.455l-.385-1.26c-.453.035-.915.175-1.368.35-.769.28-1.43.736-1.884 1.155v5.353l3.283.56c.315.07.454.349.454.735v2.519c0 .524-.239.734-.731.734h-10.565c-.492 0-.738-.21-.738-.734v-2.519c0-.386.139-.665.454-.735l1.891-.49v-7.137l-1.891-.49c-.315-.071-.454-.35-.454-.735v-2.519c0-.525.246-.735.738-.735h5.736c.523 0 .7.28.808.806l.207.978s1.361-1.364 3.253-1.959c1.822-.56 3.568-.21 4.552.175.454.175.623.315.623.77ZM172.482 285.227c.454-.105.838-.315 1.223-.594v-.77c-2.515-1.085-3.253-.211-3.253.56 0 .735.977 1.085 2.03.804Zm8.92.525v2.519c0 .524-.247.734-.731.734h-5.528c-.523 0-.877-.314-1.123-.804l-.208-.42c-1.053.91-2.345 1.61-3.883 1.61-2.837 0-5.144-1.96-5.144-4.758 0-2.835 2.345-6.263 8.92-4.409v-.945c0-.84-.454-2.449-2.868-2.449-.208 0-.416 0-.631.035l-.415 1.365c-.108.314-.354.455-.738.455h-2.522c-.523 0-.731-.246-.731-.736l.031-3.743c0-.42.038-.664.423-.804 1.753-.631 3.814-1.051 5.597-1.051 4.899 0 7.175 2.485 7.175 5.144v7.032l1.922.49c.315.071.454.35.454.735ZM191.851 284.456v3.814c0 .524-.208.734-.731.734-5.743 0-8.05-2.134-8.05-7.417v-12.596l-1.892-.489c-.315-.07-.453-.35-.453-.735v-2.519c0-.525.246-.735.738-.735h6.474c.523 0 .623.21.731.735l.353 1.854v14.485c0 1.329.554 2.134 2.099 2.134.523 0 .731.21.731.735ZM202.086 281.093c0-.49.208-.735.738-.735h2.514c.385 0 .493.175.669.665l.769 2.169c.908.7 1.646 1.12 3.076 1.12 1.438 0 2.799-.56 3.014-1.89.592-3.848-10.426-3.918-10.496-11.44-.038-3.919 3.145-7.033 8.466-7.033 2.13 0 4.721.525 6.928 1.925.385.245.523.524.523.839v4.898c0 .49-.208.735-.738.735h-2.514c-.385 0-.531-.175-.669-.665l-.562-1.679c-.869-.49-1.953-.805-2.899-.805-1.822 0-2.622 1.156-2.414 2.065.661 2.903 10.634 3.848 10.634 10.846 0 4.617-4.306 7.452-9.027 7.452-3.214 0-5.628-1.12-7.558-2.799-.277-.245-.416-.42-.454-.63v-5.038ZM242.021 285.746v2.519c0 .525-.247.735-.739.735h-5.774c-.523 0-.7-.28-.8-.804l-.138-.666c-1.546 1.295-3.576 2.03-5.429 2.03-3.114 0-6.121-2.03-6.121-5.738v-6.438l-1.922-.489c-.315-.071-.453-.35-.453-.735v-2.52c0-.525.238-.734.73-.734h6.513c.523 0 .692.209.73.734l.354 4.479v3.499c0 1.784.938 2.694 2.307 2.694.838 0 1.607-.35 2.414-.875v-6.053l-1.922-.489c-.316-.071-.462-.35-.462-.735v-2.52c0-.525.247-.734.739-.734h6.505c.53 0 .699.209.738.734l.346 4.479v6.403l1.93.489c.315.071.454.35.454.735ZM257.949 280.955c0-1.889-1.538-3.359-3.568-3.359-.938 0-1.746.316-2.268.56v5.808c.315.14 1.184.524 2.199.524 2.099 0 3.637-1.643 3.637-3.533Zm5.605.21c-.146 4.584-3.645 8.362-8.189 8.222a8.656 8.656 0 0 1-3.252-.735v2.8l2.937.559c.315.07.454.35.454.735v2.519c0 .525-.246.735-.739.735h-10.249c-.485 0-.731-.21-.731-.735v-2.519c0-.385.139-.665.454-.735l1.922-.489v-14.135l-1.922-.49c-.315-.071-.454-.35-.454-.735v-2.519c0-.525.246-.735.731-.735h5.774c.523 0 .7.28.808.806l.069.314c1.084-.595 2.168-1.085 3.429-1.295 4.898-.805 9.127 3.184 8.958 8.432ZM271.444 278.924h4.898c-.177-1.26-1.261-2.029-2.445-2.029-1.192 0-2.276.769-2.453 2.029Zm10.249 1.225c.039.559.039.734-.03 1.224-.069.524-.246.735-.769.735h-9.866c.1 1.364 1.185 2.378 3.076 2.378 1.223 0 2.484-.42 3.46-.769.462-.175.777 0 .946.385l1.438 3.114c.177.384 0 .734-.384.945-1.054.559-2.907 1.399-5.352 1.399-5.213 0-8.712-3.849-8.712-8.607 0-4.758 3.499-8.607 8.289-8.607 4.514 0 7.628 3.429 7.904 7.803ZM298.798 273.68v4.898c0 .49-.208.735-.731.735h-2.522c-.384 0-.631-.14-.73-.455l-.385-1.26c-.461.035-.915.175-1.369.35-.769.28-1.43.736-1.891 1.155v5.353l3.291.56c.315.07.453.349.453.735v2.519c0 .524-.246.734-.73.734h-10.565c-.492 0-.738-.21-.738-.734v-2.519c0-.386.138-.665.454-.735l1.891-.49v-7.137l-1.891-.49c-.316-.071-.454-.35-.454-.735v-2.519c0-.525.246-.735.738-.735h5.736c.523 0 .7.28.8.806l.215.978s1.361-1.364 3.253-1.959c1.822-.56 3.567-.21 4.544.175.461.175.631.315.631.77ZM317.468 275.499h2.446c1.645 0 2.729-1.084 2.729-2.694 0-1.609-1.084-2.694-2.729-2.694h-2.446v5.388Zm0 5.598v3.043l3.676.876c.315.07.454.349.454.735v2.519c0 .524-.246.734-.739.734H309.18c-.493 0-.739-.21-.739-.734v-2.519c0-.386.139-.63.454-.735l2.276-.805v-14.904l-2.276-.805c-.315-.105-.454-.35-.454-.735v-2.519c0-.525.246-.735.739-.735h11.472c4.967 0 8.289 3.324 8.289 8.292s-3.322 8.292-8.289 8.292h-3.184ZM345.542 273.68v4.898c0 .49-.208.735-.739.735h-2.514c-.384 0-.63-.14-.738-.455l-.385-1.26c-.453.035-.907.175-1.361.35a5.826 5.826 0 0 0-1.891 1.155v5.353l3.291.56c.315.07.454.349.454.735v2.519c0 .524-.246.734-.739.734h-10.565c-.484 0-.73-.21-.73-.734v-2.519c0-.386.138-.665.454-.735l1.891-.49v-7.137l-1.891-.49c-.316-.071-.454-.35-.454-.735v-2.519c0-.525.246-.735.73-.735h5.744c.523 0 .692.28.8.806l.208.978s1.368-1.364 3.26-1.959c1.814-.56 3.568-.21 4.544.175.454.175.631.315.631.77ZM352.916 278.924h4.898c-.176-1.26-1.261-2.029-2.453-2.029-1.184 0-2.268.769-2.445 2.029Zm10.25 1.225c.038.559.038.734-.031 1.224-.069.524-.246.735-.769.735h-9.873c.108 1.364 1.192 2.378 3.084 2.378 1.222 0 2.483-.42 3.46-.769.454-.175.769 0 .946.385l1.438 3.114c.169.384 0 .734-.385.945-1.053.559-2.906 1.399-5.352 1.399-5.221 0-8.719-3.849-8.719-8.607 0-4.758 3.498-8.607 8.297-8.607 4.513 0 7.627 3.429 7.904 7.803ZM396.408 285.751v2.519c0 .524-.246.734-.738.734h-6.859c-.523 0-.73-.21-.73-.734v-7.978c0-1.784-1.154-2.694-2.522-2.694-.839 0-1.608.35-2.2.875v6.053l1.923.49c.315.07.453.349.453.735v2.519c0 .524-.246.734-.73.734h-6.859c-.53 0-.738-.21-.738-.734v-7.978c0-1.784-.946-2.694-2.307-2.694-.838 0-1.607.35-2.414.875v6.053l1.922.49c.315.07.454.349.454.735v2.519c0 .524-.246.734-.731.734h-9.204c-.492 0-.738-.21-.738-.734v-2.519c0-.386.146-.665.462-.735l1.883-.49v-7.137l-1.922-.49c-.315-.071-.454-.35-.454-.735v-2.519c0-.525.246-.735.731-.735h5.774c.523 0 .7.28.808.806l.138.664c1.538-1.295 3.568-2.03 5.421-2.03 1.861 0 3.676.735 4.867 2.1l.07-.07c1.891-1.295 3.883-2.03 5.736-2.03 3.114 0 6.12 2.03 6.12 5.738v6.438l1.93.49c.316.07.454.349.454.735ZM399.782 267.032c0-1.678 1.392-3.079 3.115-3.079 1.707 0 3.106 1.401 3.106 3.079a3.119 3.119 0 0 1-3.106 3.114 3.116 3.116 0 0 1-3.115-3.114Zm8.466 18.719v2.519c0 .524-.246.734-.738.734h-9.235c-.492 0-.738-.21-.738-.734v-2.519c0-.386.139-.665.454-.735l1.93-.49v-7.137l-1.892-.49c-.315-.071-.453-.35-.453-.735v-2.519c0-.525.246-.735.73-.735h6.474c.523 0 .7.21.738.735l.347 4.478v6.403l1.93.49c.307.07.453.349.453.735ZM430.273 285.753v2.519c0 .524-.246.734-.74.734h-5.767c-.532 0-.701-.28-.801-.804l-.139-.665c-1.542 1.295-3.57 2.03-5.428 2.03-3.107 0-6.121-2.03-6.121-5.738v-6.438l-1.928-.49c-.316-.07-.454-.35-.454-.735v-2.519c0-.525.246-.734.732-.734h6.515c.524 0 .701.209.732.734l.347 4.479v3.499c0 1.784.948 2.693 2.313 2.693.832 0 1.611-.349 2.413-.874v-6.053l-1.92-.49c-.316-.07-.455-.35-.455-.735v-2.519c0-.525.247-.734.725-.734h6.515c.524 0 .701.209.732.734l.355 4.479v6.402l1.919.49c.316.071.455.35.455.735ZM464.086 285.751v2.519c0 .524-.246.734-.737.734h-6.856c-.53 0-.736-.21-.736-.734v-7.978c0-1.784-1.148-2.694-2.518-2.694-.839 0-1.607.35-2.201.875v6.053l1.924.49c.317.07.451.349.451.735v2.519c0 .524-.245.734-.728.734h-6.864c-.523 0-.737-.21-.737-.734v-7.978c0-1.784-.942-2.694-2.303-2.694-.84 0-1.608.35-2.415.875v6.053l1.924.49c.309.07.451.349.451.735v2.519c0 .524-.245.734-.728.734h-9.208c-.491 0-.728-.21-.728-.734v-2.519c0-.386.134-.665.451-.735l1.884-.49v-7.137l-1.924-.49c-.316-.071-.451-.35-.451-.735v-2.519c0-.525.246-.735.736-.735h5.772c.53 0 .697.28.807.806l.135.664c1.536-1.295 3.571-2.03 5.423-2.03 1.861 0 3.674.735 4.869 2.1l.064-.07c1.892-1.295 3.887-2.03 5.74-2.03 3.111 0 6.127 2.03 6.127 5.738v6.438l1.924.49c.317.07.452.349.452.735Z" fill="#1E1C1A"/></svg><svg fill="none" viewBox="0 0 21 21" id="copy" xmlns="http://www.w3.org/2000/svg"><path fill-rule="evenodd" clip-rule="evenodd" d="M13.475 1.333h-10c-.92 0-1.666.746-1.666 1.667v11.667h1.666V3h10V1.333Zm2.5 3.334H6.81c-.921 0-1.667.747-1.667 1.667V18c0 .92.746 1.667 1.667 1.667h9.166c.92 0 1.667-.747 1.667-1.667V6.334c0-.92-.747-1.667-1.667-1.667ZM6.81 6.334h9.166V18H6.81V6.334Z" fill="#fff"/><mask id="ea" style="mask-type:luminance" maskUnits="userSpaceOnUse" x="1" y="1" width="17" height="19"><path fill-rule="evenodd" clip-rule="evenodd" d="M13.475 1.333h-10c-.92 0-1.666.746-1.666 1.667v11.667h1.666V3h10V1.333Zm2.5 3.334H6.81c-.921 0-1.667.747-1.667 1.667V18c0 .92.746 1.667 1.667 1.667h9.166c.92 0 1.667-.747 1.667-1.667V6.334c0-.92-.747-1.667-1.667-1.667ZM6.81 6.334h9.166V18H6.81V6.334Z" fill="#fff"/></mask><g mask="url(#ea)"><path fill="#fff" d="M.143.5h20v20h-20z"/></g></svg><svg fill="none" viewBox="0 0 20 20" id="copy--black" xmlns="http://www.w3.org/2000/svg"><path fill-rule="evenodd" clip-rule="evenodd" d="M13.333.833h-10c-.921 0-1.667.746-1.667 1.667v11.667h1.667V2.5h10V.833Zm2.5 3.334H6.666c-.92 0-1.667.747-1.667 1.667V17.5c0 .92.746 1.667 1.667 1.667h9.167c.92 0 1.666-.747 1.666-1.667V5.834c0-.92-.746-1.667-1.666-1.667ZM6.666 5.834h9.167V17.5H6.666V5.834Z" fill="#17161D"/><mask id="da" style="mask-type:luminance" maskUnits="userSpaceOnUse" x="1" y="0" width="17" height="20"><path fill-rule="evenodd" clip-rule="evenodd" d="M13.333.833h-10c-.921 0-1.667.746-1.667 1.667v11.667h1.667V2.5h10V.833Zm2.5 3.334H6.666c-.92 0-1.667.747-1.667 1.667V17.5c0 .92.746 1.667 1.667 1.667h9.167c.92 0 1.666-.747 1.666-1.667V5.834c0-.92-.746-1.667-1.666-1.667ZM6.666 5.834h9.167V17.5H6.666V5.834Z" fill="#fff"/></mask><g mask="url(#da)"><path fill="#17161D" d="M0 0h20v20H0z"/></g></svg><svg viewBox="0 0 18 18" id="download" xmlns="http://www.w3.org/2000/svg"><path fill-rule="evenodd" clip-rule="evenodd" d="M9 .035a.75.75 0 0 1 .75.75v10.063l3.723-3.68a.75.75 0 0 1 1.054 1.068l-5 4.941a.75.75 0 0 1-1.054 0l-5-4.941a.75.75 0 0 1 1.054-1.067l3.723 3.679V.785A.75.75 0 0 1 9 .035zM1 12.082a.75.75 0 0 1 .75.75v1.976c0 .323.13.634.363.864.234.231.553.363.887.363h12c.334 0 .653-.132.887-.363.233-.23.363-.541.363-.864v-1.976a.75.75 0 0 1 1.5 0v1.976c0 .726-.292 1.42-.809 1.931a2.762 2.762 0 0 1-1.941.796H3a2.762 2.762 0 0 1-1.941-.796 2.715 2.715 0 0 1-.809-1.93v-1.977a.75.75 0 0 1 .75-.75z" fill="inherit"/></svg><svg fill="none" viewBox="0 0 28 28" id="email" xmlns="http://www.w3.org/2000/svg"><path d="M24.5 5.25h-21A1.75 1.75 0 0 0 1.75 7v14a1.75 1.75 0 0 0 1.75 1.75h21A1.75 1.75 0 0 0 26.25 21V7a1.75 1.75 0 0 0-1.75-1.75zM22.575 7 14 12.932 5.425 7h17.15zM3.5 21V7.796l10.001 6.921a.875.875 0 0 0 .998 0L24.5 7.797V21h-21z" fill="#932C47"/></svg><svg fill="none" viewBox="0 0 843 967" id="fonts-background" xmlns="http://www.w3.org/2000/svg"><path d="M707.756 0H571.211L134 965h142.047l106.066-241.249h-61.93l37.245-110.294h73.181l208.175-473.509L843 604.44V297.573L707.756 0ZM430.609 613.457l-48.496 110.294H843V613.457H430.609Z" fill="#EAEAEA"/><path d="M185.168 660.74h146.469l-73.245-489.039-73.224 489.039ZM532 967H378.627l-26.255-174.634H165.818L139.563 967H0L154.759 0h222.482L532 967Z" fill="#000"/></svg><svg viewBox="0 0 320 512" id="ok" xmlns="http://www.w3.org/2000/svg"><path fill="inherit" d="M275.1 334c-27.4 17.4-65.1 24.3-90 26.9l20.9 20.6 76.3 76.3c27.9 28.6-17.5 73.3-45.7 45.7-19.1-19.4-47.1-47.4-76.3-76.6L84 503.4c-28.2 27.5-73.6-17.6-45.4-45.7 19.4-19.4 47.1-47.4 76.3-76.3l20.6-20.6c-24.6-2.6-62.9-9.1-90.6-26.9-32.6-21-46.9-33.3-34.3-59 7.4-14.6 27.7-26.9 54.6-5.7 0 0 36.3 28.9 94.9 28.9s94.9-28.9 94.9-28.9c26.9-21.1 47.1-8.9 54.6 5.7 12.4 25.7-1.9 38-34.5 59.1zM30.3 129.7C30.3 58 88.6 0 160 0s129.7 58 129.7 129.7c0 71.4-58.3 129.4-129.7 129.4s-129.7-58-129.7-129.4zm66 0c0 35.1 28.6 63.7 63.7 63.7s63.7-28.6 63.7-63.7c0-35.4-28.6-64-63.7-64s-63.7 28.6-63.7 64z"/></svg><svg fill="none" viewBox="0 0 28 28" id="phone" xmlns="http://www.w3.org/2000/svg"><path d="M22.75 25.375h-.15C5.407 24.386 2.966 9.879 2.625 5.451A2.625 2.625 0 0 1 5.25 2.625h4.61a1.75 1.75 0 0 1 1.628 1.103L12.819 7a1.75 1.75 0 0 1-.385 1.89l-1.864 1.881a8.19 8.19 0 0 0 6.632 6.65l1.9-1.881A1.75 1.75 0 0 1 21 15.181l3.299 1.322a1.75 1.75 0 0 1 1.076 1.627v4.62a2.625 2.625 0 0 1-2.625 2.625zm-17.5-21a.875.875 0 0 0-.875.945c.402 5.18 2.984 17.43 18.322 18.305a.875.875 0 0 0 .926-.82l.002-.055v-4.62l-3.299-1.321-2.511 2.493-.42-.052c-7.613-.954-8.645-8.566-8.645-8.645l-.053-.42 2.485-2.511L9.87 4.375H5.25z" fill="#932C47"/><path d="M23.625 11.375v-1.75h-4.013l5.763-5.763-1.237-1.237-5.763 5.763V4.375h-1.75v7h7z" fill="#932C47"/></svg><svg viewBox="0 0 19 16" id="telegram" xmlns="http://www.w3.org/2000/svg"><path d="M18.672 2.367c.234-1.094-.39-1.523-1.094-1.25L2.031 7.094c-1.054.43-1.015 1.015-.156 1.289l3.945 1.21 9.22-5.78c.429-.313.858-.118.507.156l-7.461 6.719-.274 4.101c.43 0 .586-.156.82-.39l1.915-1.876 4.023 2.97c.742.429 1.29.194 1.485-.665l2.617-12.46z" fill="inherit"/></svg><svg viewBox="0 0 21 12" id="vk" xmlns="http://www.w3.org/2000/svg"><path d="M19.579.806c.14-.465 0-.806-.662-.806h-2.193c-.558 0-.813.295-.953.619 0 0-1.115 2.719-2.695 4.482-.51.513-.743.675-1.021.675-.139 0-.341-.162-.341-.627V.806c0-.558-.161-.806-.626-.806H7.642c-.348 0-.558.258-.558.504 0 .528.79.65.871 2.138V5.87c0 .707-.127.836-.407.836-.743 0-2.551-2.729-3.624-5.853-.209-.607-.42-.852-.98-.852H.752C.125.001 0 .296 0 .62c0 .582.743 3.462 3.461 7.271 1.812 2.601 4.363 4.011 6.687 4.011 1.393 0 1.565-.313 1.565-.853V9.083c0-.626.133-.752.574-.752.324 0 .882.164 2.183 1.417 1.486 1.486 1.732 2.153 2.567 2.153h2.192c.626 0 .939-.313.759-.931-.197-.615-.907-1.51-1.849-2.569-.512-.604-1.277-1.254-1.51-1.579-.325-.419-.231-.604 0-.976.001.001 2.672-3.761 2.95-5.04z" fill="inherit"/></svg></svg>