<svg width="21" height="21" viewBox="0 0 21 21" fill="none" xmlns="http://www.w3.org/2000/svg">
<g id="Icons /">
<path id="Mask" fill-rule="evenodd" clip-rule="evenodd" d="M13.4753 1.3335H3.47526C2.55443 1.3335 1.80859 2.07933 1.80859 3.00016V14.6668H3.47526V3.00016H13.4753V1.3335ZM15.9753 4.66683H6.80859C5.88776 4.66683 5.14193 5.4135 5.14193 6.3335V18.0002C5.14193 18.9202 5.88776 19.6668 6.80859 19.6668H15.9753C16.8953 19.6668 17.6419 18.9202 17.6419 18.0002V6.3335C17.6419 5.4135 16.8953 4.66683 15.9753 4.66683ZM6.80859 6.3335H15.9753V18.0002H6.80859V6.3335Z" fill="white"/>
<mask id="mask0_2217_101" style="mask-type:luminance" maskUnits="userSpaceOnUse" x="1" y="1" width="17" height="19">
<path id="Mask_2" fill-rule="evenodd" clip-rule="evenodd" d="M13.4753 1.3335H3.47526C2.55443 1.3335 1.80859 2.07933 1.80859 3.00016V14.6668H3.47526V3.00016H13.4753V1.3335ZM15.9753 4.66683H6.80859C5.88776 4.66683 5.14193 5.4135 5.14193 6.3335V18.0002C5.14193 18.9202 5.88776 19.6668 6.80859 19.6668H15.9753C16.8953 19.6668 17.6419 18.9202 17.6419 18.0002V6.3335C17.6419 5.4135 16.8953 4.66683 15.9753 4.66683ZM6.80859 6.3335H15.9753V18.0002H6.80859V6.3335Z" fill="white"/>
</mask>
<g mask="url(#mask0_2217_101)">
<rect id="Rectangle 2" x="0.142578" y="0.5" width="20" height="20" fill="white"/>
</g>
</g>
</svg>
