<svg width="20" height="20" viewBox="0 0 20 20" fill="none" xmlns="http://www.w3.org/2000/svg">
<g id="Icons /">
<path id="Mask" fill-rule="evenodd" clip-rule="evenodd" d="M13.3327 0.833496H3.33268C2.41185 0.833496 1.66602 1.57933 1.66602 2.50016V14.1668H3.33268V2.50016H13.3327V0.833496V0.833496ZM15.8327 4.16683H6.66602C5.74518 4.16683 4.99935 4.9135 4.99935 5.8335V17.5002C4.99935 18.4202 5.74518 19.1668 6.66602 19.1668H15.8327C16.7527 19.1668 17.4993 18.4202 17.4993 17.5002V5.8335C17.4993 4.9135 16.7527 4.16683 15.8327 4.16683V4.16683ZM6.66602 5.8335H15.8327V17.5002H6.66602V5.8335Z" fill="#17161D"/>
<mask id="mask0_2217_101" style="mask-type:luminance" maskUnits="userSpaceOnUse" x="1" y="0" width="17" height="20">
<path id="Mask_2" fill-rule="evenodd" clip-rule="evenodd" d="M13.3327 0.833496H3.33268C2.41185 0.833496 1.66602 1.57933 1.66602 2.50016V14.1668H3.33268V2.50016H13.3327V0.833496V0.833496ZM15.8327 4.16683H6.66602C5.74518 4.16683 4.99935 4.9135 4.99935 5.8335V17.5002C4.99935 18.4202 5.74518 19.1668 6.66602 19.1668H15.8327C16.7527 19.1668 17.4993 18.4202 17.4993 17.5002V5.8335C17.4993 4.9135 16.7527 4.16683 15.8327 4.16683V4.16683ZM6.66602 5.8335H15.8327V17.5002H6.66602V5.8335Z" fill="white"/>
</mask>
<g mask="url(#mask0_2217_101)">
<rect id="Rectangle 2" width="20" height="20" fill="#17161D"/>
</g>
</g>
</svg>
