<svg width="18" height="18" xmlns="http://www.w3.org/2000/svg">
    <path fill-rule="evenodd" clip-rule="evenodd"
        d="M9 .035a.75.75 0 01.75.75v10.063l3.723-3.68a.75.75 0 011.054 1.068l-5 4.941a.75.75 0 01-1.054 0l-5-4.941a.75.75 0 011.054-1.067l3.723 3.679V.785A.75.75 0 019 .035zM1 12.082a.75.75 0 01.75.75v1.976c0 .323.13.634.363.864.234.231.553.363.887.363h12c.334 0 .653-.132.887-.363.233-.23.363-.541.363-.864v-1.976a.75.75 0 011.5 0v1.976c0 .726-.292 1.42-.809 1.931a2.762 2.762 0 01-1.941.796H3a2.762 2.762 0 01-1.941-.796 2.715 2.715 0 01-.809-1.93v-1.977a.75.75 0 01.75-.75z"
        fill="inherit" />
</svg>