<svg width="28" height="28" fill="none" xmlns="http://www.w3.org/2000/svg"><path d="M22.75 25.375h-.15C5.407 24.386 2.966 9.879 2.625 5.451A2.625 2.625 0 015.25 2.625h4.61a1.75 1.75 0 011.628 1.103L12.819 7a1.75 1.75 0 01-.385 1.89l-1.864 1.881a8.19 8.19 0 006.632 6.65l1.9-1.881A1.75 1.75 0 0121 15.181l3.299 1.322a1.75 1.75 0 011.076 1.627v4.62a2.625 2.625 0 01-2.625 2.625zm-17.5-21a.875.875 0 00-.875.945c.402 5.18 2.984 17.43 18.322 18.305a.875.875 0 00.926-.82l.002-.055v-4.62l-3.299-1.321-2.511 2.493-.42-.052c-7.613-.954-8.645-8.566-8.645-8.645l-.053-.42 2.485-2.511L9.87 4.375H5.25z" fill="#932C47"/><path d="M23.625 11.375v-1.75h-4.013l5.763-5.763-1.237-1.237-5.763 5.763V4.375h-1.75v7h7z" fill="#932C47"/></svg>